<svg xmlns="http://www.w3.org/2000/svg" xmlns:xlink="http://www.w3.org/1999/xlink" xmlns:lucid="lucid" width="2096" height="1299.51"><g transform="translate(-24 -84.23791472677144)" lucid:page-tab-id="0_0"><path d="M320 640c0 44.18-35.82 80-80 80s-80-35.82-80-80 35.82-80 80-80 80 35.82 80 80z" stroke="#5e5e5e" stroke-width="7" fill="#fff"/><path d="M63.5 640h63.9M63.6 640H60" stroke="#5e5e5e" stroke-width="7" fill="none"/><path d="M145.17 640l-14.26 4.64v-9.28z" stroke="#5e5e5e" stroke-width="7" fill="#5e5e5e"/><path d="M2100 640c0 44.18-35.82 80-80 80s-80-35.82-80-80 35.82-80 80-80 80 35.82 80 80z" stroke="#5e5e5e" stroke-width="7" fill="#fff"/><path d="M2070 640c0 27.6-22.4 50-50 50s-50-22.4-50-50 22.4-50 50-50 50 22.4 50 50zM1180 280c0 44.18-35.82 80-80 80s-80-35.82-80-80 35.82-80 80-80 80 35.82 80 80zM700 940c0 44.18-35.82 80-80 80s-80-35.82-80-80 35.82-80 80-80 80 35.82 80 80zM1180 940c0 44.18-35.82 80-80 80s-80-35.82-80-80 35.82-80 80-80 80 35.82 80 80zM1660 940c0 44.18-35.82 80-80 80s-80-35.82-80-80 35.82-80 80-80 80 35.82 80 80z" stroke="#5e5e5e" stroke-width="7" fill="#fff"/><path d="M1112.8 643.5H327.02v-7h785.78zm794.6 0h-760.18v-7h760.2z" fill="#5e5e5e"/><path d="M327.1 643.5h-3.7l.1-3.45v-.8l-.1-2.75h3.7zM1925.17 640l-14.26 4.64v-9.28z" fill="#5e5e5e"/><path d="M1936.5 640l-29.1 9.45v-18.9z" fill="#5e5e5e"/><use xlink:href="#a" transform="matrix(1,0,0,1,1112.8041980730204,603.5555555555557) translate(0.004999999999999005 58.29687499999997)"/><path d="M534.62 293.3l-2.12.27-33.02 5.56-27.43 5.8-23.27 5.97-20.06 6.05-17.52 6.1-15.46 6.1-13.77 6.13-12.37 6.14-11.17 6.13-10.15 6.15-9.3 6.17-8.5 6.2-7.88 6.22-7.28 6.27-6.76 6.35-6.3 6.44-5.9 6.53-5.5 6.64-5.16 6.8-4.84 6.97-4.54 7.16-4.26 7.38-4 7.64-3.72 7.92-3.47 8.25-3.2 8.64-2.95 9.05-2.67 9.56-2.37 10.12-2.05 10.76-1.7 11.5-1.3 12.36-.83 13.35-.23 11.06-7-.14.24-11.22.86-13.64L239 515.4l1.73-11.78 2.1-11.05 2.44-10.4 2.75-9.84 3.03-9.35 3.3-8.9 3.6-8.53 3.85-8.2 4.12-7.88 4.4-7.63 4.7-7.4 5.02-7.2 5.34-7.04 5.7-6.9 6.07-6.74 6.5-6.64 7-6.55 7.5-6.48 8.08-6.42 8.77-6.36 9.53-6.33 10.4-6.3 11.43-6.3 12.63-6.25 14.03-6.25 15.73-6.22 17.8-6.2 20.34-6.12 23.56-6.03 27.7-5.88 33.32-5.6 3.14-.4zm452.82-17.04l-.06 7-283.8-2.35-76.77 3.1-52.17 4.33v-7.02l51.75-4.28 77.1-3.1z" fill="#5e5e5e"/><path d="M243.57 552.97l-.07 3.64-3.45-.1h-.8l-2.75.1.07-3.77zM1005.17 279.9l-14.3 4.52.08-9.27z" fill="#5e5e5e"/><path d="M1016.5 280l-29.17 9.2.16-18.9z" fill="#5e5e5e"/><use xlink:href="#b" transform="matrix(1,0,0,1,534.6190822901781,253.93136187743) translate(0.004999999999999005 53.32031249999998)"/><path d="M1712.32 279.57l35.48 5.2 29.32 5.6 24.8 5.8 21.36 5.94 18.64 6.06 16.44 6.1 14.65 6.16 13.17 6.2 11.9 6.2 10.85 6.26 9.9 6.3 9.13 6.33 8.43 6.4 7.8 6.46 7.28 6.55 6.78 6.65 6.35 6.75 5.94 6.9 5.58 7.04 5.25 7.22 4.93 7.43 4.64 7.64 4.35 7.93 4.08 8.22 3.8 8.56 3.55 8.95 3.27 9.4 3 9.9 2.67 10.46 2.37 11.13 2 11.86 1.6 12.74.6 7.25-6.96.6-.6-7.12-1.57-12.45-1.94-11.58-2.3-10.84-2.62-10.18-2.9-9.6-3.17-9.13-3.44-8.68-3.7-8.3-3.94-7.96-4.22-7.66-4.5-7.4-4.76-7.18-5.08-7-5.4-6.8-5.75-6.67-6.16-6.55-6.57-6.44-7.05-6.33-7.6-6.28-8.18-6.22-8.88-6.17-9.67-6.13-10.6-6.1-11.64-6.1-12.9-6.05-14.37-6.04-16.18-6-18.36-5.96-21.07-5.88-24.53-5.73-29.04-5.5-35.18-5.2-13.74-1.42v-7.04zm-54.62-5.26v7.02l-48.76-3-421.9 5.14-.07-7 422.14-5.15z" fill="#5e5e5e"/><path d="M1187.14 283.46l-3.75.04.1-3.45v-.8l-.1-2.75 3.66-.04zM2019.52 545.18l-5.24-14.05 9.27-.4z" fill="#5e5e5e"/><path d="M2020 556.5l-10.68-28.67 18.9-.8z" fill="#5e5e5e"/><use xlink:href="#c" transform="matrix(1,0,0,1,1657.6989433024164,246.1446644048454) translate(0.004999999999999005 53.32031249999998)"/><path d="M1080 159.68l-3.18.98-3.03 1.14-2.68 1.18-2.34 1.2-2.05 1.23-1.8 1.22-1.57 1.2-1.37 1.2-1.22 1.17-1.06 1.16-.93 1.15-.83 1.16-.72 1.14-.62 1.15-.55 1.15-.47 1.17-.4 1.2-.32 1.22-.27 1.25-.18 1.3-.12 1.4-.04 1.43.05 1.54.16 1.64.27 1.77.4 1.93.6 2.1.78 2.33 1.07 2.57 1.4 2.9.18.35-6.12 3.4-.3-.52-1.56-3.3-1.2-2.96-.94-2.72-.7-2.5-.5-2.33-.32-2.2-.18-2.05-.06-1.95.05-1.86.17-1.8.25-1.7.35-1.68.44-1.63.54-1.58.62-1.56.73-1.54.82-1.5.94-1.5 1.05-1.5 1.2-1.46 1.34-1.47 1.5-1.47 1.7-1.46 1.9-1.46 2.13-1.44 2.4-1.43 2.72-1.4 3.04-1.36 3.42-1.27 3.8-1.17 1.64-.4zm41.18-6.94l3.85 1.16 3.47 1.27 3.08 1.34 2.75 1.4 2.44 1.44 2.17 1.44 1.92 1.46 1.7 1.46 1.53 1.47 1.35 1.47 1.2 1.47 1.08 1.5.95 1.5.84 1.5.74 1.52.63 1.56.53 1.58.45 1.62.15.7-6.84 1.46-.12-.5-.33-1.2-.4-1.2-.5-1.17-.55-1.15-.63-1.15-.73-1.14-.83-1.15-.94-1.15-1.07-1.16-1.24-1.18-1.4-1.2-1.58-1.2-1.82-1.23-2.08-1.2-2.38-1.22-2.7-1.18-3.08-1.13-2.82-.85v-7.24z" fill="#5e5e5e"/><path d="M1060.84 206.27l-1.42.74-4.48 2.7-.15.1-1.8-3.26 6.1-3.4zM1152.5 184.1l-7.74 12.85-1.3-14.95z" fill="#5e5e5e"/><path d="M1157.97 181.77l-15.77 26.2-2.64-30.46z" fill="#5e5e5e"/><use xlink:href="#c" transform="matrix(1,0,0,1,1079.9951659626681,120.23791472677144) translate(0.004999999999999005 53.32031249999998)"/><path d="M366.94 901.4l11.97 5.34 12.9 5.1 13.86 4.82 14.83 4.48 15.78 4.05 16.72 3.54 17.56 2.97 18.28 2.32 18.88 1.58-.6 6.97-19-1.6-18.58-2.33-17.85-3.02-17-3.6-16.1-4.14-15.1-4.56-14.14-4.9-13.16-5.23-12.24-5.45-6.67-3.3v-7.82zM243.68 732.23l.53 8.36.85 8.05 1.15 7.77 1.43 7.53 1.72 7.3 1.98 7.1 2.25 6.94 2.53 6.8 2.8 6.64 3.08 6.55 3.37 6.44 3.67 6.34 3.98 6.28 4.32 6.22 4.68 6.16 5.06 6.12 5.48 6.07 5.9 6.03 6.4 6 6.93 5.98 7.48 5.94 3.62 2.63v8.65l-7.85-5.7-7.7-6.12-7.15-6.16-6.6-6.2-6.14-6.25-5.67-6.3-5.24-6.35-4.86-6.4-4.5-6.46-4.13-6.53-3.82-6.6-3.5-6.7-3.2-6.8-2.9-6.94-2.63-7.06-2.34-7.2-2.07-7.4-1.77-7.6-1.5-7.8-1.2-8.06-.87-8.33-.54-8.66-.13-5.42 7-.15z" fill="#5e5e5e"/><path d="M243.57 727.02l-7 .15-.07-3.78 3.45.1h.8l2.75-.1zM525.18 939.64l-14.4 4.2.3-9.28z" fill="#5e5e5e"/><path d="M536.5 940l-29.37 8.53.6-18.9z" fill="#5e5e5e"/><use xlink:href="#a" transform="matrix(1,0,0,1,322.8720434659957,854.586150657903) translate(0.004999999999999005 58.29687499999997)"/><path d="M804.4 943.5H707v-7h97.4zm183 0H844.43v-7h143z" fill="#5e5e5e"/><path d="M707.1 943.5h-3.7l.1-3.45v-.8l-.1-2.75h3.7zM1005.17 940l-14.26 4.64v-9.28z" fill="#5e5e5e"/><path d="M1016.5 940l-29.1 9.45v-18.9z" fill="#5e5e5e"/><use xlink:href="#c" transform="matrix(1,0,0,1,804.4135451286401,906.6666666666667) translate(0.004999999999999005 53.32031249999998)"/><path d="M1320 943.5h-133v-7h133zm147.4 0H1360v-7h107.4z" fill="#5e5e5e"/><path d="M1187.1 943.5h-3.7l.1-3.45v-.8l-.1-2.75h3.7zM1485.17 940l-14.26 4.64v-9.28z" fill="#5e5e5e"/><path d="M1496.5 940l-29.1 9.45v-18.9z" fill="#5e5e5e"/><use xlink:href="#b" transform="matrix(1,0,0,1,1319.9990922677423,906.6666666666666) translate(0.004999999999999005 53.32031249999998)"/><path d="M1910.58 895.05l-2.7 1.4-12.2 5.75-13.6 5.7-15.1 5.62-16.9 5.5-18.93 5.26-21.2 4.97-23.77 4.52-26.54 3.9-29.43 3.1-32.2 2-30.92.66-.15-7 30.78-.64 31.93-2 29.13-3.06 26.25-3.87 23.5-4.47 20.9-4.9 18.65-5.2 16.62-5.4 14.84-5.5 13.32-5.6 11.96-5.62 5.8-3.03zm110.85-142.12l-.07.57-1.3 7.73-1.6 7.43-1.83 7.17-2.1 6.94-2.34 6.73-2.6 6.56-2.86 6.4-3.1 6.28-3.4 6.16-3.66 6.06-3.98 5.98-4.3 5.9-4.64 5.87-5.02 5.83-5.44 5.8-5.9 5.76-6.4 5.75-6.96 5.76-7.6 5.77-1.34.94v-8.7l4.6-3.48 6.73-5.57 6.18-5.56 5.7-5.58 5.23-5.58 4.84-5.6 4.46-5.62 4.12-5.68 3.8-5.73 3.53-5.8 3.25-5.9 2.98-6 2.74-6.15 2.5-6.3 2.24-6.45 2-6.66 1.78-6.88 1.5-7.14 1.27-7.44.05-.42z" fill="#5e5e5e"/><path d="M1667.17 943.42l-3.78.08.1-3.45v-.8l-.1-2.75 3.62-.07zM2022.82 749.35l-9.24-.65 5.62-13.9z" fill="#5e5e5e"/><path d="M2027.38 753.18l-18.85-1.32L2020 723.5z" fill="#5e5e5e"/><use xlink:href="#a" transform="matrix(1,0,0,1,1910.5807710582433,845.0535852242795) translate(0.004999999999999005 58.29687499999997)"/><path d="M1583.43 1027.08l-.13 6.07-.6 9.36-.95 9.12-1.3 8.9-1.67 8.7-2 8.55-2.36 8.42-2.7 8.3-3.05 8.2-3.43 8.16-3.8 8.1-4.23 8.07-4.65 8.06-5.12 8.06-5.62 8.08-6.15 8.12-6.76 8.17-7.42 8.23-8.14 8.3-8.92 8.38-9.8 8.46-10.8 8.55-11.9 8.63-13.1 8.7-14.48 8.77-16 8.78-17.66 8.76-19.52 8.68-21.54 8.52-23.72 8.25-26.03 7.85-28.4 7.28-30.74 6.52-32.97 5.57-34.94 4.4-36.48 3.07-37.48 1.56h-1.66v-7h1.52l37.18-1.55 36.2-3.03 34.64-4.37 32.68-5.52 30.47-6.47 28.1-7.2 25.74-7.77 23.44-8.16 21.27-8.42 19.25-8.56 17.4-8.64 15.74-8.64 14.22-8.6 12.87-8.55 11.65-8.46 10.57-8.37 9.58-8.27 8.72-8.18 7.92-8.1 7.22-8 6.56-7.94 6-7.88 5.44-7.84 4.96-7.82 4.5-7.8 4.1-7.8 3.7-7.85 3.3-7.87 2.95-7.94 2.62-8.04 2.27-8.13 1.93-8.26 1.6-8.42 1.28-8.6.93-8.82.57-9.07.13-5.92zm-956.97 32.25l1.6 8.42L630 1076l2.27 8.15 2.6 8.02 2.96 7.94 3.32 7.9 3.68 7.83 4.1 7.8 4.5 7.82 4.96 7.8 5.44 7.86 5.98 7.9 6.57 7.93 7.2 8 7.93 8.1 8.7 8.18 9.6 8.28 10.56 8.37 11.64 8.46 12.86 8.55 14.22 8.6 15.73 8.65 17.4 8.64 19.25 8.56 21.27 8.42 23.44 8.15 25.74 7.76 28.1 7.2 30.46 6.48 32.68 5.53 34.65 4.38 36.18 3.04 37.2 1.56h1.6v7h-1.75l-37.48-1.57-36.48-3.06-34.94-4.4-32.97-5.58-30.75-6.54-28.4-7.28-26-7.85-23.72-8.25-21.54-8.52-19.53-8.7-17.66-8.75-15.98-8.78-14.47-8.75-13.1-8.7-11.9-8.64-10.78-8.55-9.8-8.46-8.93-8.38-8.13-8.3-7.4-8.23-6.76-8.16-6.17-8.12-5.62-8.08-5.1-8.07-4.67-8.06-4.22-8.06-3.8-8.1-3.44-8.15-3.05-8.23-2.7-8.3-2.35-8.42-2-8.55-1.66-8.7-1.1-7.48 6.92-1.02z" fill="#5e5e5e"/><path d="M1583.42 1027.17l-7-.14.08-3.64 3.45.1h.8l2.75-.1zM626.3 1048.73l-9.24.6 3.7-14.53z" fill="#5e5e5e"/><path d="M631.35 1051.9l-18.87 1.25 7.52-29.65z" fill="#5e5e5e"/><use xlink:href="#a" transform="matrix(1,0,0,1,1082.786346913161,1274.8584068182117) translate(0.004999999999999005 58.29687499999997)"/><defs><path fill="#333" d="M364-313c0 239 364 131 432 6l142 142C784 80 73 125 79-296c0-176 125-245 284-262-148-23-256-97-256-256 0-364 677-364 814-119L762-808c-51-131-387-176-387 6 0 148 171 154 330 148v182c-171-6-341-6-341 159" id="d"/><use transform="matrix(0.03559027777777776,0,0,0.03559027777777776,0,0)" xlink:href="#d" id="a"/><path fill="#333" d="M775-193C708-75 621 20 439 20 226 20 106-93 106-306c0-251 170-341 417-346l223-4c4-143-12-264-148-264-103 0-141 58-150 153l-293-14c37-219 194-321 455-321 263 0 418 130 417 390v392c1 84 5 161 89 160 21 0 42-2 62-6v152c-57 15-108 27-180 26-145 0-202-73-217-205h-6zm-256 17c168 0 234-139 227-325-166 4-347-25-347 173 0 94 33 152 120 152" id="e"/><use transform="matrix(0.03255208333333332,0,0,0.03255208333333332,0,0)" xlink:href="#e" id="b"/><path fill="#333" d="M429-1484c1 190-1 388 0 572 54-116 155-191 317-191 300 0 386 257 386 563 0 241-73 429-226 518-49 28-106 42-169 42-162 0-251-81-306-196h-4c-1 59-5 127-15 176H140c4-67 9-153 8-236v-1248h281zm66 648c-93 114-92 466 1 585 35 45 77 79 142 79 64 0 112-31 148-92 69-115 68-440-2-561-39-68-131-111-221-70-25 11-46 32-68 59" id="f"/><use transform="matrix(0.03255208333333332,0,0,0.03255208333333332,0,0)" xlink:href="#f" id="c"/></defs></g></svg>