<svg xmlns="http://www.w3.org/2000/svg" xmlns:xlink="http://www.w3.org/1999/xlink" xmlns:lucid="lucid" width="1973.08" height="1084.35"><g transform="translate(-449 -368.4275910216301)" lucid:page-tab-id="0_0"><path d="M740 820c0 44.18-35.82 80-80 80s-80-35.82-80-80 35.82-80 80-80 80 35.82 80 80zM1740 820c0 44.18-35.82 80-80 80s-80-35.82-80-80 35.82-80 80-80 80 35.82 80 80zM1240 1220c0 44.18-35.82 80-80 80s-80-35.82-80-80 35.82-80 80-80 80 35.82 80 80zM2400 820c0 44.18-35.82 80-80 80s-80-35.82-80-80 35.82-80 80-80 80 35.82 80 80z" stroke="#5e5e5e" stroke-width="6" fill="#fff"/><path d="M483 820h67.03M483.08 820H480" stroke="#5e5e5e" stroke-width="6" fill="none"/><path d="M567.3 820l-14.27 4.64v-9.28z" stroke="#5e5e5e" stroke-width="6" fill="#5e5e5e"/><path d="M1137.34 440.34l-35.6 1.48L1064 445l-36.1 4.54-34.1 5.76-31.74 6.74-29.3 7.5-26.85 8.1-24.44 8.5-22.18 8.78-20.08 8.94-18.16 9-16.4 9.02-14.84 8.98-13.43 8.9-12.16 8.84-11 8.73-10.02 8.64-9.1 8.53-8.27 8.45-7.53 8.37-6.86 8.3-6.24 8.22-5.7 8.2-5.18 8.16-4.7 8.16-4.28 8.16-3.85 8.18-3.47 8.24-3.08 8.3-2.73 8.38-2.37 8.5-2.03 8.63-1.67 8.8-1.33 9-.97 9.2-.6 9.47-.14 6.83-6-.12.15-6.96.62-9.72 1-9.46 1.36-9.25 1.72-9.04 2.1-8.87 2.43-8.74 2.8-8.64 3.17-8.53 3.56-8.47 3.96-8.4 4.4-8.4 4.82-8.37 5.32-8.38 5.84-8.4 6.4-8.44 7.03-8.5 7.7-8.54 8.45-8.62 9.28-8.7 10.2-8.8 11.22-8.9 12.37-8.98 13.63-9.05 15.05-9.12 16.64-9.14 18.38-9.12 20.3-9.03 22.42-8.88 24.7-8.58 27.07-8.17 29.55-7.58 32-6.8 34.3-5.8 36.38-4.58 37.98-3.18 35.98-1.5zm81.4-4.5l37.97 3.2 36.37 4.58 34.32 5.8 32 6.8 29.53 7.57 27.07 8.16 24.68 8.58 22.4 8.87 20.32 9.05 18.38 9.1 16.62 9.15 15.05 9.1 13.63 9.06 12.36 8.98 11.22 8.9 10.2 8.8 9.28 8.7 8.45 8.62 7.7 8.55 7 8.5 6.4 8.44 5.85 8.4 5.32 8.37 4.83 8.38 4.4 8.4 3.95 8.4 3.55 8.47 3.18 8.53 2.8 8.63 2.44 8.75 2.08 8.88 1.73 9.04 1.36 9.24.2 1.97-5.97.63-.2-1.84-1.32-9-1.67-8.8-2.02-8.62-2.37-8.5-2.72-8.4-3.08-8.28-3.46-8.24-3.85-8.18-4.26-8.16-4.7-8.16-5.2-8.16-5.68-8.2-6.25-8.23-6.86-8.3-7.53-8.36-8.26-8.45-9.1-8.53-10-8.65-11.02-8.73-12.16-8.83-13.42-8.92-14.84-8.98-16.4-9.02-18.16-9-20.07-8.94-22.18-8.77-24.45-8.5-26.83-8.1-29.3-7.52-31.75-6.74-34.07-5.75-36.12-4.55-37.72-3.17-35.68-1.5v-6z" fill="#5e5e5e"/><path d="M663.06 733.97l-.06 3.12-2.96-.1h-.78l-2.26.1.06-3.25zM1659.43 727.3l-5.47-13.96 9.25-.55z" fill="#5e5e5e"/><path d="M1660 737l-10.34-26.4 17.5-1.04zm-1.74-20.9l.6 1.52.4-1.6z" fill="#5e5e5e"/><use xlink:href="#a" transform="matrix(1,0,0,1,1137.3356376193776,399.4275910216301) translate(0.004999999999999005 60.42968749999999)"/><path d="M776.58 1126.8l11.94 8.66 12.86 8.54 13.83 8.38 14.87 8.16 15.95 7.9 17.07 7.6 18.22 7.22 19.4 6.76 20.57 6.2 21.68 5.57 22.73 4.82 23.68 4 24.44 3.08 25.03 2.1 11.3.48-.24 6-11.43-.5-25.28-2.1-24.7-3.13-23.9-4.04-23-4.87-21.92-5.63-20.8-6.27-19.65-6.84-18.47-7.32-17.3-7.7-16.17-8.02-15.1-8.3-14.04-8.5-13.06-8.67-10.13-7.36v-7.52zm-113.3-210.9l.77 12.44 1.26 11.98 1.72 11.6 2.15 11.26 2.57 10.95 2.98 10.68 3.4 10.45 3.8 10.22 4.2 10.03 4.65 9.86 5.08 9.72 5.53 9.58 6 9.48 6.53 9.37 7.05 9.3 7.6 9.18 1.08 1.2v8.95l-5.6-6.22-7.78-9.4-7.2-9.47-6.65-9.57-6.15-9.7-5.66-9.8-5.2-9.93-4.76-10.1-4.3-10.25-3.9-10.46-3.47-10.67-3.05-10.92-2.62-11.2-2.2-11.5-1.75-11.85-1.28-12.24-.8-12.68-.2-10.1 6-.12z" fill="#5e5e5e"/><path d="M659.96 903h.78l2.26-.1.06 3.12-6 .13-.06-3.24zM1067.3 1219.74l-14.4 4.25.26-9.28z" fill="#5e5e5e"/><path d="M1077 1220l-27.2 8.03.47-17.52zm-20.98-.06l1.57-.46-1.55-.55z" fill="#5e5e5e"/><use xlink:href="#b" transform="matrix(1,0,0,1,729.6288567926563,1072.7397203823252) translate(0.004999999999999005 60.42968749999999)"/><path d="M1107.3 1287.82l-1.36 1.78-1.33 1.96-1.2 1.97-1.07 1.98-.96 2-.85 2.03-.74 2.05-.64 2.1-.54 2.1-.43 2.2-.34 2.2-.22 2.3-.1 2.35v2.42l.12 2.5.26 2.58.4 2.67.57 2.75.73 2.83.9 2.92 1.1 3 1.3 3.06 1.5 3.1 1.7 3.15 1.93 3.15 2.14 3.12 2.33 3.06 2.5 2.98 2.64 2.85 2.78 2.7 2.85 2.5 2.9 2.32 2.94 2.1 2.92 1.9 2.9 1.66 2.44 1.26v6.6l-2.2-1-3.12-1.6-3.16-1.8-3.17-2.06-3.18-2.28-3.14-2.5-3.08-2.7-2.98-2.9-2.85-3.08-2.7-3.2-2.5-3.3-2.3-3.37-2.08-3.4-1.87-3.4-1.63-3.37-1.4-3.33-1.2-3.28-1-3.2-.8-3.13-.62-3.05-.45-2.96-.3-2.9-.13-2.8v-2.7l.12-2.66.26-2.58.37-2.53.5-2.46.6-2.42.74-2.37.83-2.33.97-2.3 1.1-2.27 1.2-2.24 1.36-2.23 1.5-2.2 1.44-1.9zm120.84 21.6l.26 2.58.13 2.64v2.72l-.14 2.8-.3 2.88-.45 2.95-.62 3.04-.8 3.12-.98 3.2-1.2 3.28-1.4 3.33-1.64 3.38-1.84 3.4-2.08 3.4-2.3 3.37-2.5 3.3-2.7 3.2-2.84 3.08-2.98 2.9-3.08 2.72-3.14 2.5-3.18 2.3-3.17 2.04-3.17 1.82-3.1 1.6-2.25 1v-6.6l2.48-1.27 2.9-1.66 2.92-1.9 2.93-2.1 2.92-2.32 2.85-2.52 2.77-2.7 2.65-2.84 2.5-2.98 2.3-3.06 2.14-3.13 1.92-3.15 1.72-3.14 1.5-3.1 1.3-3.06 1.08-3 .9-2.9.72-2.84.56-2.75.4-2.66.26-2.6.13-2.5v-2.4l-.12-2.36-.2-2.28-.32-2.07 5.93-.9z" fill="#5e5e5e"/><path d="M1107.36 1284.18l1.8 1.38-2.02 2.42-4.6-3.85 2-2.4zM1227.86 1303.24l-8.34 4.05-2.06-14.87z" fill="#5e5e5e"/><path d="M1232.88 1304.13l-15.77 7.66-3.88-28.1zm-10.96-1.34l.9-.46-1.12-1.18z" fill="#5e5e5e"/><use xlink:href="#c" transform="matrix(1,0,0,1,1137.3364969586135,1346.2220829814196) translate(0.004999999999999005 60.42968749999999)"/><path d="M1556.74 1123.85l-3.93 3.25-11.7 8.9-12.6 8.75-13.55 8.6-14.56 8.4-15.63 8.15-16.73 7.87-17.88 7.5-19.05 7.1-20.2 6.57-21.4 5.96-22.46 5.27-23.46 4.47-24.32 3.6-25 2.62-25.5 1.6-22.7.48-.12-6 22.56-.47 25.24-1.6 24.77-2.6 24.08-3.55 23.22-4.42 22.22-5.2 21.13-5.9 20-6.5 18.8-7 17.65-7.4 16.5-7.77 15.4-8.05 14.34-8.27 13.34-8.45 12.4-8.62 11.5-8.73 7.66-6.33zm105-193.66l-.4 4.8-1.5 12.04-1.98 11.67-2.42 11.36-2.83 11.05-3.25 10.8-3.68 10.57-4.1 10.35-4.53 10.18-4.97 10-5.43 9.88-5.9 9.74-6.4 9.63-6.92 9.53-7.48 9.43-4.6 5.34v-9.2l7.3-9.2 6.78-9.3 6.26-9.43 5.77-9.52 5.3-9.65 4.86-9.8 4.44-9.93 4-10.12 3.6-10.33 3.2-10.55 2.76-10.8 2.36-11.1 1.93-11.44 1.48-11.8.4-4.67z" fill="#5e5e5e"/><path d="M1246.15 1222.93l-3.24.07.1-2.96v-.78l-.1-2.26 3.12-.06zM1663.53 927.16l-9.26-.42 5.28-14.04z" fill="#5e5e5e"/><path d="M1667.52 930.35l-17.5-.8L1660 903zm-9-6.42l1.02.05-.43-1.58z" fill="#5e5e5e"/><use xlink:href="#d" transform="matrix(1,0,0,1,1556.736372899176,1061.718743528243) translate(0.004999999999999005 65.40625)"/><path d="M1923.6 823H1746v-6h177.6zm286.43 0h-241.1v-6h241.1z" fill="#5e5e5e"/><path d="M1746.08 823h-3.17l.1-2.96v-.78l-.1-2.26h3.18zM2227.3 820l-14.27 4.64v-9.28z" fill="#5e5e5e"/><path d="M2237 820l-26.97 8.76v-17.52zm-20.97.5l1.55-.5-1.55-.5z" fill="#5e5e5e"/><use xlink:href="#b" transform="matrix(1,0,0,1,1923.5952399470352,782.2222222222224) translate(0.004999999999999005 60.42968749999999)"/><path d="M2297.2 667.1l-2.23 1.23-2.82 1.74-2.84 1.97-2.82 2.2-2.8 2.38-2.7 2.6-2.62 2.76-2.48 2.9-2.3 3-2.13 3.1-1.93 3.14-1.7 3.14-1.5 3.13-1.3 3.1-1.1 3.03-.9 2.98-.7 2.9-.54 2.84-.38 2.74-.23 2.67-.08 2.6.03 2.52.18 2.46.3 2.4.4 2.35.54 2.3.64 2.26.76 2.23.88 2.2 1 2.18 1.15 2.16 1.28 2.16 1.38 2.1-5 3.3-1.46-2.2-1.44-2.42-1.28-2.44-1.14-2.46-.98-2.48-.87-2.52-.72-2.56-.6-2.6-.47-2.66-.33-2.7-.2-2.78-.05-2.84.1-2.9.26-2.98.42-3.06.6-3.13.78-3.2.98-3.28 1.2-3.33 1.4-3.38 1.65-3.4 1.86-3.43 2.1-3.4 2.3-3.33 2.5-3.26 2.66-3.13 2.82-3 2.94-2.8 3.03-2.6 3.06-2.37 3.1-2.15 3.08-1.9 3.06-1.7 2.2-1.06zm47.04-6l3.02 1.6 3.05 1.86 3.08 2.08 3.06 2.3 3 2.54 2.96 2.75 2.84 2.94 2.7 3.1 2.54 3.24 2.35 3.34 2.14 3.4 1.92 3.43 1.68 3.43 1.47 3.4 1.25 3.4 1.04 3.3.83 3.25.65 3.18.46 3.1.3 3.03.12 2.95-.02 2.9-.17 2.8-.2 1.95-5.97-.66.2-1.8.15-2.5.02-2.58-.12-2.64-.26-2.72-.4-2.8-.6-2.87-.75-2.96-.95-3-1.14-3.1-1.35-3.12-1.55-3.16-1.77-3.16-1.96-3.13-2.17-3.08-2.35-3-2.5-2.87-2.62-2.72-2.72-2.52-2.78-2.34-2.8-2.12-2.83-1.9-2.78-1.7-1.75-.92v-6.7z" fill="#5e5e5e"/><path d="M2271.3 752.8l-.37.25-4.1 3.2-.26.24-1.9-2.56 4.82-3.58zM2384.57 734.27l-9.76 11.4 1.2-14.96z" fill="#5e5e5e"/><path d="M2389.53 733.08l-18.45 21.54 2.27-28.27zm-11 3.6l1.07-1.23-.93-.4z" fill="#5e5e5e"/><use xlink:href="#b" transform="matrix(1,0,0,1,2297.210962697231,620.2228818401154) translate(0.004999999999999005 60.42968749999999)"/><path d="M2380 820c0 33.14-26.86 60-60 60s-60-26.86-60-60 26.86-60 60-60 60 26.86 60 60z" stroke="#5e5e5e" stroke-width="6" fill="#fff"/><defs><path fill="#333" d="M775-193C708-75 621 20 439 20 226 20 106-93 106-306c0-251 170-341 417-346l223-4c4-143-12-264-148-264-103 0-141 58-150 153l-293-14c37-219 194-321 455-321 263 0 418 130 417 390v392c1 84 5 161 89 160 21 0 42-2 62-6v152c-57 15-108 27-180 26-145 0-202-73-217-205h-6zm-256 17c168 0 234-139 227-325-166 4-347-25-347 173 0 94 33 152 120 152" id="e"/><use transform="matrix(0.036892361111111105,0,0,0.036892361111111105,0,0)" xlink:href="#e" id="a"/><path fill="#333" d="M1109-360C1066-122 902 20 624 20c-347 0-514-209-514-555 0-353 168-567 518-567 270 0 425 136 473 361l-283 14c-16-106-75-183-196-182-75 0-130 31-165 93s-52 152-52 270c0 249 74 374 221 374 120 0 188-82 201-201" id="f"/><use transform="matrix(0.036892361111111105,0,0,0.036892361111111105,0,0)" xlink:href="#f" id="b"/><path fill="#333" d="M429-1484c1 190-1 388 0 572 54-116 155-191 317-191 300 0 386 257 386 563 0 241-73 429-226 518-49 28-106 42-169 42-162 0-251-81-306-196h-4c-1 59-5 127-15 176H140c4-67 9-153 8-236v-1248h281zm66 648c-93 114-92 466 1 585 35 45 77 79 142 79 64 0 112-31 148-92 69-115 68-440-2-561-39-68-131-111-221-70-25 11-46 32-68 59" id="g"/><use transform="matrix(0.036892361111111105,0,0,0.036892361111111105,0,0)" xlink:href="#g" id="c"/><path fill="#333" d="M364-313c0 239 364 131 432 6l142 142C784 80 73 125 79-296c0-176 125-245 284-262-148-23-256-97-256-256 0-364 677-364 814-119L762-808c-51-131-387-176-387 6 0 148 171 154 330 148v182c-171-6-341-6-341 159" id="h"/><use transform="matrix(0.03993055555555555,0,0,0.03993055555555555,0,0)" xlink:href="#h" id="d"/></defs></g></svg>