<svg xmlns="http://www.w3.org/2000/svg" xmlns:xlink="http://www.w3.org/1999/xlink" xmlns:lucid="lucid" width="1264.73" height="360"><g transform="translate(-449.0017774681916 -520)" lucid:page-tab-id="0_0"><path d="M660 700c0 22.1-17.9 40-40 40s-40-17.9-40-40 17.9-40 40-40 40 17.9 40 40z" stroke="#5e5e5e" stroke-width="3" fill="#fff"/><use xlink:href="#a" transform="matrix(1,0,0,1,585,665) translate(26.998697916666668 43.203125)"/><path d="M880 700c0 22.1-17.9 40-40 40s-40-17.9-40-40 17.9-40 40-40 40 17.9 40 40z" stroke="#5e5e5e" stroke-width="3" fill="#fff"/><use xlink:href="#b" transform="matrix(1,0,0,1,805,665) translate(26.998697916666668 43.203125)"/><path d="M716 701h-53.5v-2H716zm64 0h-50.66v-2H780z" fill="#5e5e5e"/><path d="M662.53 701h-1.1l.07-.98-.03-1.02h1.06zM795.26 700L781 704.64v-9.28z" fill="#5e5e5e"/><path d="M798.5 700l-18.5 6v-12zm-16.5 3.26l10.03-3.26-10.03-3.26z" fill="#5e5e5e"/><use xlink:href="#c" transform="matrix(1,0,0,1,716.0000524051477,688.888888888889) translate(0.004999999999999893 17.773437499999996)"/><path d="M1098.5 700c0 22.1-17.9 40-40 40s-40-17.9-40-40 17.9-40 40-40 40 17.9 40 40z" stroke="#5e5e5e" stroke-width="3" fill="#fff"/><use xlink:href="#d" transform="matrix(1,0,0,1,1023.4990644204674,665) translate(26.998697916666668 43.203125)"/><path d="M934.5 701H881v-2h53.5zm64 0h-50.67v-2h50.67z" fill="#5e5e5e"/><path d="M881.03 701H880v-2h1.03zM1013.76 700l-14.26 4.64v-9.28z" fill="#5e5e5e"/><path d="M1017 700l-18.5 6v-12zm-16.5 3.26l10.03-3.26-10.03-3.26z" fill="#5e5e5e"/><use xlink:href="#e" transform="matrix(1,0,0,1,934.4991168256151,688.888888888889) translate(0.004999999999999893 17.773437499999996)"/><path d="M1317 700c0 22.1-17.9 40-40 40s-40-17.9-40-40 17.9-40 40-40 40 17.9 40 40z" stroke="#5e5e5e" stroke-width="3" fill="#fff"/><use xlink:href="#f" transform="matrix(1,0,0,1,1241.998128840935,665) translate(26.998697916666668 43.203125)"/><path d="M1153 701h-53.5v-2h53.5zm64 0h-50.67v-2H1217z" fill="#5e5e5e"/><path d="M1099.53 701h-1.03v-2h1.03zM1232.26 700l-14.26 4.64v-9.28z" fill="#5e5e5e"/><path d="M1235.5 700l-18.5 6v-12zm-16.5 3.26l10.03-3.26-10.03-3.26z" fill="#5e5e5e"/><use xlink:href="#g" transform="matrix(1,0,0,1,1152.9981812460824,688.888888888889) translate(0.004999999999999893 17.773437499999996)"/><path d="M1500 820c0 22.1-17.9 40-40 40s-40-17.9-40-40 17.9-40 40-40 40 17.9 40 40z" stroke="#5e5e5e" stroke-width="3" fill="#fff"/><use xlink:href="#h" transform="matrix(1,0,0,1,1425,785) translate(26.998697916666668 43.203125)"/><path d="M1500 580c0 22.1-17.9 40-40 40s-40-17.9-40-40 17.9-40 40-40 40 17.9 40 40z" stroke="#5e5e5e" stroke-width="3" fill="#fff"/><use xlink:href="#i" transform="matrix(1,0,0,1,1425,545) translate(26.998697916666668 43.203125)"/><path d="M1359.98 662.15l-3.67 7.42-2.82 5.16-2.4 3.95-2.1 3.16-1.88 2.6-1.74 2.2-1.62 1.9-1.53 1.62-1.44 1.42-1.38 1.24-1.33 1.1-1.3.98-1.25.88-1.22.78-1.2.7-1.2.6-1.17.57-1.17.5-1.17.43-1.17.38-1.2.33-1.18.28-1.2.23-1.24.18-1.26.13-1.3.07h-.3l-.04-2h.27l1.2-.07 1.18-.13 1.15-.17 1.12-.2 1.1-.27 1.1-.3 1.1-.36 1.1-.4 1.1-.47 1.1-.52 1.1-.58 1.14-.66 1.16-.73 1.18-.8 1.22-.94 1.27-1.05 1.32-1.18 1.38-1.36 1.47-1.57 1.56-1.82 1.7-2.13 1.85-2.55 2.05-3.1 2.35-3.87 2.8-5.1 3.62-7.33 4.47-10.16h2.18zm41.8-75.68l-.36.24-1.23.94-1.27 1.05-1.33 1.18-1.38 1.36-1.47 1.57-1.57 1.82-1.7 2.13-1.83 2.55-2.05 3.1-2.35 3.87-2.8 5.1-3.62 7.33-4.4 10.22h-2.17l4.76-11.06 3.67-7.43 2.82-5.16 2.4-3.95 2.1-3.16 1.88-2.6 1.74-2.2 1.62-1.9 1.53-1.62 1.43-1.42 1.4-1.24 1.32-1.1 1.3-.98.38-.28z" fill="#5e5e5e"/><path d="M1319.55 700.98l-1.1.02.05-.98-.04-1.02 1.05-.02zM1403.3 589.84l-2.88-8.82 15-.02z" fill="#5e5e5e"/><path d="M1402.78 591.46l-3.73-11.43 19.45-.03zm-.98-9.44l2.02 6.2 8.53-6.2z" fill="#5e5e5e"/><use xlink:href="#g" transform="matrix(1,0,0,1,1361.894328375505,628.9154922232898) translate(0.004999999999999893 17.773437499999996)"/><path d="M1378.83 781.3l3.63 7.34 2.8 5.1 2.34 3.87 2.05 3.1 1.84 2.55 1.68 2.13 1.57 1.8 1.47 1.58 1.38 1.36 1.33 1.2 1.26 1.04 1.22.93.35.23-1.14 1.65-.4-.28-1.28-.97-1.33-1.1-1.4-1.25-1.43-1.42-1.54-1.63-1.62-1.88-1.74-2.2-1.9-2.6-2.1-3.17-2.38-3.95-2.83-5.16-3.68-7.43-1.2-2.77h2.18zm-59-82.27l1.3.08 1.25.14 1.23.18 1.22.23 1.2.28 1.17.33 1.16.38 1.17.44 1.18.5 1.18.55 1.2.62 1.2.7 1.22.77 1.26.88 1.3.97 1.32 1.1 1.38 1.25 1.45 1.42 1.54 1.63 1.62 1.88 1.74 2.2 1.9 2.6 2.1 3.17 2.38 3.95 2.83 5.16 3.68 7.42 6.96 15.83 1.5 3.47h-2.18l-1.15-2.68-6.93-15.77-3.63-7.34-2.8-5.1-2.34-3.87-2.05-3.1-1.85-2.55-1.7-2.13-1.55-1.8-1.47-1.58-1.4-1.36-1.3-1.2-1.28-1.04-1.22-.93-1.18-.8-1.16-.74-1.13-.66-1.1-.58-1.1-.52-1.1-.46-1.1-.4-1.1-.36-1.1-.3-1.1-.27-1.12-.2-1.15-.17-1.18-.13-1.2-.07h-.27l.04-2zM1319.55 699.02l-.04 2-1.06-.02.06-.98-.04-1.02zM1415.42 819l-15-.02 2.88-8.82z" fill="#5e5e5e"/><path d="M1418.5 820l-19.45-.03 3.73-11.43zm-16.7-2.02h10.55l-8.53-6.2z" fill="#5e5e5e"/><use xlink:href="#j" transform="matrix(1,0,0,1,1365.4606667022688,757.1475433589801) translate(0.004999999999999893 17.773437499999996)"/><path d="M1680 700c0 22.1-17.9 40-40 40s-40-17.9-40-40 17.9-40 40-40 40 17.9 40 40z" stroke="#5e5e5e" stroke-width="3" fill="#fff"/><use xlink:href="#k" transform="matrix(1,0,0,1,1605,665) translate(26.998697916666668 43.203125)"/><path d="M1502.76 579.03l1.2.07 1.2.13 1.17.17 1.14.22 1.13.26 1.12.32 1.1.36 1.13.4 1.1.48 1.13.53 1.13.6 1.16.65 1.16.74 1.2.83 1.23.92 1.27 1.06 1.3 1.18 1.4 1.35 1.45 1.56 1.54 1.8 1.66 2.08 1.8 2.48 2 3 2.23 3.7 2.62 4.8 3.3 6.7 5.18 11.67 15.38 36.64 3.27 6.6 2.6 4.74 2.2 3.64 1.93 2.92 1.75 2.4 1.6 2.03 1.5 1.73 1.4 1.5 1.3 1.28 1.26 1.13 1.2 1 .73.57-1.2 1.6-.78-.6-1.27-1.05-1.3-1.18-1.4-1.35-1.45-1.56-1.54-1.8-1.66-2.08-1.8-2.48-2-3-2.23-3.7-2.62-4.8-3.32-6.7-15.4-36.7-5.14-11.62-3.27-6.6-2.6-4.74-2.2-3.64-1.93-2.92-1.75-2.4-1.6-2.03-1.5-1.73-1.4-1.5-1.3-1.28-1.26-1.13-1.2-1-1.16-.9-1.12-.77-1.1-.7-1.07-.62-1.06-.54-1.05-.5-1.04-.43-1.02-.38-1.04-.34-1.04-.28-1.04-.25-1.07-.2-1.1-.16-1.1-.1-1.13-.08h-.2l.05-2z" fill="#5e5e5e"/><path d="M1502.55 579.02l-.04 2-1.06-.02.06-.98-.03-1.02zM1595.44 698.94l-11.56-.2v-.34h-3.35l2.94-8.5z" fill="#5e5e5e"/><path d="M1598.5 700l-14.62-.27v-1.33h-4.4l3.5-10.13zm-16.66-2.3l10.54.2-8.4-6.37zM1570.54 719.32l-1.3 1.96-2.2 3.64-2.6 4.73-3.26 6.6-15.38 36.66-5.17 11.68-3.3 6.7-2.64 4.8-2.25 3.7-2 3-1.8 2.48-1.64 2.1-1.53 1.78-1.46 1.55-1.37 1.34-1.3 1.18-1.28 1.06-1.23.93-1.2.84-1.16.74-1.15.66-1.12.6-1.12.52-1.1.47-1.13.4-1.1.37-1.13.32-1.13.26-1.14.22-1.17.17-1.2.13-1.2.07h-.24l-.04-2h.2l1.13-.07 1.1-.1 1.1-.17 1.06-.2 1.04-.25 1.04-.3 1.04-.33 1.03-.38 1.05-.44 1.04-.5 1.05-.54 1.07-.63 1.1-.7 1.12-.78 1.16-.9 1.2-1 1.26-1.12 1.32-1.3 1.4-1.48 1.5-1.73 1.6-2.02 1.74-2.4 1.94-2.93 2.2-3.64 2.6-4.73 3.26-6.6 5.14-11.63 15.4-36.7 3.32-6.7 2.63-4.8 2.25-3.7 2-3 1-1.4z" fill="#5e5e5e"/><path d="M1502.55 820.98l-1.1.02.05-.98-.03-1.02 1.04-.02zM1583.88 709.8v-8.53l11.56-.2z" fill="#5e5e5e"/><path d="M1583.88 711.05v-2.84l.1.27 8.4-6.36-8.5.17v-2l14.62-.27z" fill="#5e5e5e"/><use xlink:href="#l" transform="matrix(1,0,0,1,1570.5430657702436,698.4035833371323) translate(0.004999999999999893 17.773437499999996)"/><path d="M461 700h99M461.03 700H460" stroke="#5e5e5e" stroke-width="2" fill="none"/><path d="M575.26 700L561 704.64v-9.28z" stroke="#5e5e5e" stroke-width="2" fill="#5e5e5e"/><path d="M594.86 616.05l-1.5 2.13-1.47 2.42-1.4 2.76-1.33 3.18-1.23 3.7-1.1 4.36-.9 5.2-.6 6.26-.2 7.7.5 9.65 1.44 11.4-2 .25-1.43-11.46-.5-9.8.18-7.86.63-6.42.93-5.34 1.12-4.5 1.27-3.84 1.37-3.32 1.47-2.9 1.53-2.54 1.6-2.25.25-.3h2.6zm56.9-1.4l2.82 2.62 2.54 2.74 2.23 2.8 1.93 2.84 1.63 2.83 1.37 2.8 1.1 2.8.86 2.75.64 2.73.42 2.7.2 2.7.02 2.7-.2 2.7-.38 2.74-.6 2.76-.85 2.82-.84 2.16-1.87-.72.8-2.08.8-2.7.57-2.6.37-2.6.18-2.55-.02-2.56-.2-2.55-.4-2.57-.6-2.6-.8-2.6-1.06-2.65-1.3-2.68-1.55-2.7-1.86-2.7-2.14-2.68-2.43-2.63-2.72-2.55-2.03-1.63h3.2z" fill="#5e5e5e"/><path d="M587.2 675.8l-1.98.24-.13-1.02 1.97-.25zM667.13 663.76l-11.66 9.44 3.88-14.5z" fill="#5e5e5e"/><path d="M668.83 663.67l-15.12 12.25 5.04-18.8zm-11.6 6.82l8.2-6.65-5.47-3.55z" fill="#5e5e5e"/><use xlink:href="#m" transform="matrix(1,0,0,1,565.1726003327204,592.3009040566222) translate(0.005000000000002558 17.773437499999996)"/><path d="M1618.65 622.92l-2.4 3.07-2.42 3.65-2.4 4.3-2.26 4.84-1.97 5.23-1.55 5.3-1.07 5-.6 4.38-.2 3.65.04 2.92.2 2.3.32 1.83.36 1.44.37 1.15.4.92.37.75.38.62.18.25-1.62 1.16-.23-.3-.46-.76-.46-.9-.44-1.05-.43-1.3-.4-1.6-.32-1.96-.23-2.46-.05-3.07.23-3.78.6-4.53 1.1-5.15 1.6-5.45 2.03-5.38 2.32-5 2.47-4.4 2.52-3.8 2.48-3.2.7-.77h2.7zm49.55.3l2.58 3.45 2.5 3.92 2.3 4.3 2.03 4.56 1.63 4.58 1.2 4.4.78 4.03.42 3.58.13 3.13-.02.47-2-.07.02-.4-.12-2.97-.4-3.43-.75-3.88-1.16-4.26-1.57-4.44-1.96-4.4-2.25-4.2-2.42-3.8-2.5-3.3-2.47-2.86-.8-.8h2.76z" fill="#5e5e5e"/><path d="M1606.84 675.1l-.52.64-.67 1.06-.86-1.03 1.52-1.28zM1684.9 661.68l-9.9 11.26 1.38-14.93z" fill="#5e5e5e"/><path d="M1686.55 661.3l-12.84 14.62 1.8-19.37zm-10.28 8.67l6.96-7.92-6-2.58z" fill="#5e5e5e"/><use xlink:href="#m" transform="matrix(1,0,0,1,1582.712227488176,598.6244542939573) translate(0.005000000000002558 17.773437499999996)"/><path d="M1670 700c0 16.57-13.43 30-30 30s-30-13.43-30-30 13.43-30 30-30 30 13.43 30 30z" stroke="#5e5e5e" stroke-width="3" fill="#fff"/><use xlink:href="#k" transform="matrix(1,0,0,1,1615,675) translate(16.998697916666668 33.828125)"/><defs><path fill="#333" d="M138-1120c207-4 339-93 415-229h266v1140h323V0H149v-209h389v-891c-70 121-216 187-400 194v-214" id="n"/><use transform="matrix(0.01302083333333333,0,0,0.01302083333333333,0,0)" xlink:href="#n" id="a"/><path fill="#333" d="M135-968c34-256 187-402 480-402 217 0 371 75 441 220 45 93 40 219-8 308-114 212-348 323-508 488-38 39-66 80-85 123h654V0H123v-195c112-245 321-399 515-560 57-48 107-96 142-157 14-26 22-53 22-80-1-104-73-156-185-154-131 2-181 74-199 194" id="o"/><use transform="matrix(0.01302083333333333,0,0,0.01302083333333333,0,0)" xlink:href="#o" id="b"/><path fill="#333" d="M622-916c-112 2-200 14-200 111 0 90 89 101 168 121 234 58 514 77 514 368C1104-4 751 54 434 5 267-21 161-112 121-270l247-37c24 111 113 145 252 141 114-3 226-12 226-124 0-101-103-113-192-134-225-54-490-76-490-351 0-247 201-328 458-328 245 0 413 88 457 292l-249 26c-16-98-92-133-208-131" id="p"/><use transform="matrix(0.010850694444444442,0,0,0.010850694444444442,0,0)" xlink:href="#p" id="c"/><path fill="#333" d="M788-691c191 26 337 112 337 315 0 286-214 399-510 399-306 0-483-128-522-391l286-25c18 124 91 190 235 188 132-2 223-58 223-188 0-176-191-182-378-179v-227c176 5 345-9 345-176 0-115-82-171-200-171s-198 55-206 169l-281-20c34-252 213-373 492-373 224 0 381 74 451 224 20 43 29 89 29 136 0 195-130 279-301 315v4" id="q"/><use transform="matrix(0.01302083333333333,0,0,0.01302083333333333,0,0)" xlink:href="#q" id="d"/><path fill="#333" d="M616-1102c361 0 521 202 521 560 0 354-171 562-527 562C259 20 92-192 92-542c0-351 169-560 524-560zm-9 930c200-2 236-165 236-370 0-199-27-367-223-367-195 0-233 146-233 367 0 129 18 223 55 282s92 88 165 88" id="r"/><use transform="matrix(0.010850694444444442,0,0,0.010850694444444442,0,0)" xlink:href="#r" id="e"/><path fill="#333" d="M980-287V0H712v-287H71v-211l595-851h314v853h188v209H980zM712-496c2-204-7-417 9-609-118 224-277 405-414 609h405" id="s"/><use transform="matrix(0.01302083333333333,0,0,0.01302083333333333,0,0)" xlink:href="#s" id="f"/><path fill="#333" d="M768-1103c247 0 336 167 336 416V0H824v-619c-3-164-24-273-171-273-164 0-229 142-229 312V0H143c-4-359 9-736-8-1082h268c7 63 12 146 13 215h4c67-145 160-236 348-236" id="t"/><use transform="matrix(0.010850694444444442,0,0,0.010850694444444442,0,0)" xlink:href="#t" id="g"/><path fill="#333" d="M706-877c265 0 409 163 409 431 0 299-171 466-474 466-381 0-516-302-516-692 0-236 47-410 135-526 112-147 319-207 541-154 154 36 236 149 276 306l-265 37c-22-86-75-139-170-139-76 0-135 36-178 108s-64 179-64 318c54-94 164-155 306-155zm-74 678c138 0 201-98 201-239s-67-232-208-232c-125 0-205 73-205 202 0 149 67 269 212 269" id="u"/><use transform="matrix(0.01302083333333333,0,0,0.01302083333333333,0,0)" xlink:href="#u" id="h"/><path fill="#333" d="M426-814c58-49 145-93 255-90 282 8 442 169 442 450 0 312-203 474-522 474-288 0-453-130-497-372l281-23c24 104 89 172 219 172 153 0 230-91 230-245 0-144-78-226-224-229-94-2-148 42-191 91H145l49-763h847v209H449" id="v"/><use transform="matrix(0.01302083333333333,0,0,0.01302083333333333,0,0)" xlink:href="#v" id="i"/><path fill="#333" d="M802-909c-3-189-2-383-2-575h281v1248c-1 83 4 168 8 236H817c-9-50-14-117-15-176h-4C735-49 651 20 482 20 191 20 97-238 97-539c0-243 66-432 221-519 50-28 108-42 175-42 162 2 253 78 309 191zm-70 658c91-113 93-462 2-584-46-61-145-100-224-53-96 56-119 190-120 349 0 123 17 214 52 275 46 82 130 115 222 74 25-12 46-33 68-61" id="w"/><use transform="matrix(0.010850694444444442,0,0,0.010850694444444442,0,0)" xlink:href="#w" id="j"/><path fill="#333" d="M1092-1126C914-878 744-630 663-296c-23 96-34 194-34 296H336c7-366 145-620 298-854 59-90 126-177 197-264H131v-231h961v223" id="x"/><use transform="matrix(0.01302083333333333,0,0,0.01302083333333333,0,0)" xlink:href="#x" id="k"/><path fill="#333" d="M1113-274C1038-96 884 20 626 20c-352 0-526-209-526-566 0-358 185-556 530-556 358 0 496 251 499 615H395c5 180 68 319 245 319 102 0 186-45 208-129zM857-663c-6-177-128-307-315-247-94 30-141 121-145 247h460" id="y"/><use transform="matrix(0.010850694444444442,0,0,0.010850694444444442,0,0)" xlink:href="#y" id="l"/><path fill="#333" d="M258 363l169-662h315L431 363H258" id="z"/><g id="m"><use transform="matrix(0.010850694444444442,0,0,0.010850694444444442,0,0)" xlink:href="#w"/><use transform="matrix(0.010850694444444442,0,0,0.010850694444444442,13.33550347222222,0)" xlink:href="#z"/><use transform="matrix(0.010850694444444442,0,0,0.010850694444444442,26.67100694444444,0)" xlink:href="#y"/><use transform="matrix(0.010850694444444442,0,0,0.010850694444444442,40.00651041666666,0)" xlink:href="#z"/><use transform="matrix(0.010850694444444442,0,0,0.010850694444444442,53.34201388888888,0)" xlink:href="#t"/><use transform="matrix(0.010850694444444442,0,0,0.010850694444444442,66.6775173611111,0)" xlink:href="#z"/><use transform="matrix(0.010850694444444442,0,0,0.010850694444444442,80.01302083333331,0)" xlink:href="#r"/><use transform="matrix(0.010850694444444442,0,0,0.010850694444444442,93.34852430555554,0)" xlink:href="#z"/><use transform="matrix(0.010850694444444442,0,0,0.010850694444444442,106.68402777777774,0)" xlink:href="#p"/></g></defs></g></svg>