<svg xmlns="http://www.w3.org/2000/svg" xmlns:xlink="http://www.w3.org/1999/xlink" xmlns:lucid="lucid" width="1270.73" height="773.41"><g transform="translate(-449.0017774681916 -313.29816305540186)" lucid:page-tab-id="0_0"><path d="M660 700c0 22.1-17.9 40-40 40s-40-17.9-40-40 17.9-40 40-40 40 17.9 40 40z" stroke="#5e5e5e" stroke-width="3" fill="#fff"/><use xlink:href="#a" transform="matrix(1,0,0,1,585,665) translate(26.331922743055568 42.79296874999997)"/><path d="M880 700c0 22.1-17.9 40-40 40s-40-17.9-40-40 17.9-40 40-40 40 17.9 40 40z" stroke="#5e5e5e" stroke-width="3" fill="#fff"/><use xlink:href="#b" transform="matrix(1,0,0,1,805,665) translate(17.663845486111136 42.79296874999997)"/><path d="M715.33 701H662.5v-2h52.83zm64.67 0h-50v-2h50z" fill="#5e5e5e"/><path d="M662.53 701h-1.1l.07-.98-.03-1.02h1.06zM795.26 700L781 704.64v-9.28z" fill="#5e5e5e"/><path d="M798.5 700l-18.5 6v-12zm-16.5 3.26l10.03-3.26-10.03-3.26z" fill="#5e5e5e"/><use xlink:href="#c" transform="matrix(1,0,0,1,715.3332772315366,687.7777777777779) translate(0.004999999999999893 19.550781249999986)"/><path d="M1098.5 700c0 22.1-17.9 40-40 40s-40-17.9-40-40 17.9-40 40-40 40 17.9 40 40z" stroke="#5e5e5e" stroke-width="3" fill="#fff"/><use xlink:href="#d" transform="matrix(1,0,0,1,1023.4990644204674,665) translate(17.663845486111136 42.79296874999997)"/><path d="M933.83 701H881v-2h52.83zm64.67 0h-50v-2h50z" fill="#5e5e5e"/><path d="M881.03 701H880v-2h1.03zM1013.76 700l-14.26 4.64v-9.28z" fill="#5e5e5e"/><path d="M1017 700l-18.5 6v-12zm-16.5 3.26l10.03-3.26-10.03-3.26z" fill="#5e5e5e"/><use xlink:href="#e" transform="matrix(1,0,0,1,933.8323416520041,687.7777777777779) translate(0.004999999999999893 19.550781249999986)"/><path d="M1317 700c0 22.1-17.9 40-40 40s-40-17.9-40-40 17.9-40 40-40 40 17.9 40 40z" stroke="#5e5e5e" stroke-width="3" fill="#fff"/><use xlink:href="#f" transform="matrix(1,0,0,1,1241.998128840935,665) translate(17.663845486111136 42.79296874999997)"/><path d="M1152.33 701h-52.83v-2h52.83zm64.67 0h-50v-2h50z" fill="#5e5e5e"/><path d="M1099.53 701h-1.03v-2h1.03zM1232.26 700l-14.26 4.64v-9.28z" fill="#5e5e5e"/><path d="M1235.5 700l-18.5 6v-12zm-16.5 3.26l10.03-3.26-10.03-3.26z" fill="#5e5e5e"/><use xlink:href="#g" transform="matrix(1,0,0,1,1152.3314060724713,687.7777777777779) translate(0.004999999999999893 19.550781249999986)"/><path d="M1500 820c0 22.1-17.9 40-40 40s-40-17.9-40-40 17.9-40 40-40 40 17.9 40 40z" stroke="#5e5e5e" stroke-width="3" fill="#fff"/><use xlink:href="#h" transform="matrix(1,0,0,1,1425,785) translate(17.663845486111136 42.79296874999997)"/><path d="M1500 580c0 22.1-17.9 40-40 40s-40-17.9-40-40 17.9-40 40-40 40 17.9 40 40z" stroke="#5e5e5e" stroke-width="3" fill="#fff"/><use xlink:href="#i" transform="matrix(1,0,0,1,1425,545) translate(17.663845486111136 42.79296874999997)"/><path d="M1359.98 662.15l-3.67 7.42-2.82 5.16-2.4 3.95-2.1 3.16-1.88 2.6-1.74 2.2-1.62 1.9-1.53 1.62-1.44 1.42-1.38 1.24-1.33 1.1-1.3.98-1.25.88-1.22.78-1.2.7-1.2.6-1.17.57-1.17.5-1.17.43-1.17.38-1.2.33-1.18.28-1.2.23-1.24.18-1.26.13-1.3.07h-.3l-.04-2h.27l1.2-.07 1.18-.13 1.15-.17 1.12-.2 1.1-.27 1.1-.3 1.1-.36 1.1-.4 1.1-.47 1.1-.52 1.1-.58 1.14-.66 1.16-.73 1.18-.8 1.22-.94 1.27-1.05 1.32-1.18 1.38-1.36 1.47-1.57 1.56-1.82 1.7-2.13 1.85-2.55 2.05-3.1 2.35-3.87 2.8-5.1 3.62-7.33 3.98-9.05h2.18zm41.8-75.68l-.36.24-1.23.94-1.27 1.05-1.33 1.18-1.38 1.36-1.47 1.57-1.57 1.82-1.7 2.13-1.83 2.55-2.05 3.1-2.35 3.87-2.8 5.1-3.62 7.33-3.92 9.1h-2.17l4.3-9.94 3.66-7.43 2.82-5.16 2.4-3.95 2.1-3.16 1.88-2.6 1.74-2.2 1.62-1.9 1.53-1.62 1.43-1.42 1.4-1.24 1.32-1.1 1.3-.98.38-.28z" fill="#5e5e5e"/><path d="M1319.55 700.98l-1.1.02.05-.98-.04-1.02 1.05-.02zM1403.3 589.84l-2.88-8.82 15-.02z" fill="#5e5e5e"/><path d="M1402.78 591.46l-3.73-11.43 19.45-.03zm-.98-9.44l2.02 6.2 8.53-6.2z" fill="#5e5e5e"/><use xlink:href="#g" transform="matrix(1,0,0,1,1361.227553201894,627.8043811121787) translate(0.004999999999999893 19.550781249999986)"/><path d="M1378.83 781.3l3.63 7.34 2.8 5.1 2.34 3.87 2.05 3.1 1.84 2.55 1.68 2.13 1.57 1.8 1.47 1.58 1.38 1.36 1.33 1.2 1.26 1.04 1.22.93.35.23-1.14 1.65-.4-.28-1.28-.97-1.33-1.1-1.4-1.25-1.43-1.42-1.54-1.63-1.62-1.88-1.74-2.2-1.9-2.6-2.1-3.17-2.38-3.95-2.83-5.16-3.68-7.43-.72-1.66h2.18zm-59-82.27l1.3.08 1.25.14 1.23.18 1.22.23 1.2.28 1.17.33 1.16.38 1.17.44 1.18.5 1.18.55 1.2.62 1.2.7 1.22.77 1.26.88 1.3.97 1.32 1.1 1.38 1.25 1.45 1.42 1.54 1.63 1.62 1.88 1.74 2.2 1.9 2.6 2.1 3.17 2.38 3.95 2.83 5.16 3.68 7.42 6.96 15.83 1.02 2.36h-2.18l-.67-1.57-6.93-15.77-3.63-7.34-2.8-5.1-2.34-3.87-2.05-3.1-1.85-2.55-1.7-2.13-1.55-1.8-1.47-1.58-1.4-1.36-1.3-1.2-1.28-1.04-1.22-.93-1.18-.8-1.16-.74-1.13-.66-1.1-.58-1.1-.52-1.1-.46-1.1-.4-1.1-.36-1.1-.3-1.1-.27-1.12-.2-1.15-.17-1.18-.13-1.2-.07h-.27l.04-2zM1319.55 699.02l-.04 2-1.06-.02.06-.98-.04-1.02zM1415.42 819l-15-.02 2.88-8.82z" fill="#5e5e5e"/><path d="M1418.5 820l-19.45-.03 3.73-11.43zm-16.7-2.02h10.55l-8.53-6.2z" fill="#5e5e5e"/><use xlink:href="#j" transform="matrix(1,0,0,1,1364.7938915286577,756.036432247869) translate(0.004999999999999893 19.550781249999986)"/><path d="M1680 700c0 22.1-17.9 40-40 40s-40-17.9-40-40 17.9-40 40-40 40 17.9 40 40z" stroke="#5e5e5e" stroke-width="3" fill="#fff"/><use xlink:href="#k" transform="matrix(1,0,0,1,1605,665) translate(26.331922743055568 42.79296874999997)"/><path d="M1502.76 579.03l1.2.07 1.2.13 1.17.17 1.14.22 1.13.26 1.12.32 1.1.36 1.13.4 1.1.48 1.13.53 1.13.6 1.16.65 1.16.74 1.2.83 1.23.92 1.27 1.06 1.3 1.18 1.4 1.35 1.45 1.56 1.54 1.8 1.66 2.08 1.8 2.48 2 3 2.23 3.7 2.62 4.8 3.3 6.7 5.18 11.67 15.38 36.64 3.27 6.6 2.6 4.74 2.2 3.64 1.93 2.92 1.75 2.4 1.6 2.03 1.5 1.73 1.4 1.5 1.3 1.28 1.26 1.13 1.2 1 .73.57-1.2 1.6-.78-.6-1.27-1.05-1.3-1.18-1.4-1.35-1.45-1.56-1.54-1.8-1.66-2.08-1.8-2.48-2-3-2.23-3.7-2.62-4.8-3.32-6.7-15.4-36.7-5.14-11.62-3.27-6.6-2.6-4.74-2.2-3.64-1.93-2.92-1.75-2.4-1.6-2.03-1.5-1.73-1.4-1.5-1.3-1.28-1.26-1.13-1.2-1-1.16-.9-1.12-.77-1.1-.7-1.07-.62-1.06-.54-1.05-.5-1.04-.43-1.02-.38-1.04-.34-1.04-.28-1.04-.25-1.07-.2-1.1-.16-1.1-.1-1.13-.08h-.2l.05-2z" fill="#5e5e5e"/><path d="M1502.55 579.02l-.04 2-1.06-.02.06-.98-.03-1.02zM1595.44 698.94l-10.9-.2v-1.45h-3.62l2.55-7.4z" fill="#5e5e5e"/><path d="M1598.5 700l-13.95-.26v-2l7.83.15-8.4-6.37-2 5.76h-2.12l3.12-9.03zM1569.88 720.33l-.64.95-2.2 3.64-2.6 4.73-3.26 6.6-15.38 36.66-5.17 11.68-3.3 6.7-2.64 4.8-2.25 3.7-2 3-1.8 2.48-1.64 2.1-1.53 1.78-1.46 1.55-1.37 1.34-1.3 1.18-1.28 1.06-1.23.93-1.2.84-1.16.74-1.15.66-1.12.6-1.12.52-1.1.47-1.13.4-1.1.37-1.13.32-1.13.26-1.14.22-1.17.17-1.2.13-1.2.07h-.24l-.04-2h.2l1.13-.07 1.1-.1 1.1-.17 1.06-.2 1.04-.25 1.04-.3 1.04-.33 1.03-.38 1.05-.44 1.04-.5 1.05-.54 1.07-.63 1.1-.7 1.12-.78 1.16-.9 1.2-1 1.26-1.12 1.32-1.3 1.4-1.48 1.5-1.73 1.6-2.02 1.74-2.4 1.94-2.93 2.2-3.64 2.6-4.73 3.26-6.6 5.14-11.63 15.4-36.7 3.32-6.7 2.63-4.8 2.25-3.7 2-3 .33-.47z" fill="#5e5e5e"/><path d="M1502.55 820.98l-1.1.02.05-.98-.03-1.02 1.04-.02zM1584.55 709.3v-8.04l10.9-.2z" fill="#5e5e5e"/><path d="M1584.55 710.54v-2.5l7.83-5.93-7.83.16v-2l13.95-.26z" fill="#5e5e5e"/><use xlink:href="#l" transform="matrix(1,0,0,1,1569.8762905966325,697.2924722260212) translate(0.004999999999999893 19.550781249999986)"/><path d="M461 700h99M461.03 700H460" stroke="#5e5e5e" stroke-width="2" fill="none"/><path d="M575.26 700L561 704.64v-9.28z" stroke="#5e5e5e" stroke-width="2" fill="#5e5e5e"/><path d="M594.86 616.05l-1.5 2.13-1.47 2.42-1.4 2.76-1.33 3.18-1.23 3.7-1.1 4.36-.9 5.2-.6 6.26-.2 7.7.5 9.65 1.44 11.4-2 .25-1.43-11.46-.5-9.8.18-7.86.63-6.42.93-5.34 1.12-4.5 1.27-3.84 1.37-3.32 1.47-2.9 1.53-2.54 1.03-1.45h2.5zm59.72 1.22l2.54 2.74 2.23 2.8 1.93 2.84 1.63 2.83 1.37 2.8 1.1 2.8.86 2.75.64 2.73.42 2.7.2 2.7.02 2.7-.2 2.7-.38 2.74-.6 2.76-.85 2.82-.84 2.16-1.87-.72.8-2.08.8-2.7.57-2.6.37-2.6.18-2.55-.02-2.56-.2-2.55-.4-2.57-.6-2.6-.8-2.6-1.06-2.65-1.3-2.68-1.55-2.7-1.86-2.7-2.14-2.68-2.43-2.63-2.72-2.55-.65-.52h3.03z" fill="#5e5e5e"/><path d="M587.2 675.8l-1.98.24-.13-1.02 1.97-.25zM667.13 663.76l-11.66 9.44 3.88-14.5z" fill="#5e5e5e"/><path d="M668.83 663.67l-15.12 12.25 5.04-18.8zm-11.6 6.82l8.2-6.65-5.47-3.55z" fill="#5e5e5e"/><use xlink:href="#m" transform="matrix(1,0,0,1,573.8406775896649,591.1897929455112) translate(0.005000000000002558 19.550781249999986)"/><path d="M1618.65 622.92l-2.4 3.07-2.42 3.65-2.4 4.3-2.26 4.84-1.97 5.23-1.55 5.3-1.07 5-.6 4.38-.2 3.65.04 2.92.2 2.3.32 1.83.36 1.44.37 1.15.4.92.37.75.38.62.18.25-1.62 1.16-.23-.3-.46-.76-.46-.9-.44-1.05-.43-1.3-.4-1.6-.32-1.96-.23-2.46-.05-3.07.23-3.78.6-4.53 1.1-5.15 1.6-5.45 2.03-5.38 2.32-5 2.47-4.4 2.52-3.8 2.23-2.86h2.65zm49.55.3l2.58 3.45 2.5 3.92 2.3 4.3 2.03 4.56 1.63 4.58 1.2 4.4.78 4.03.42 3.58.13 3.13-.02.47-2-.07.02-.4-.12-2.97-.4-3.43-.75-3.88-1.16-4.26-1.57-4.44-1.96-4.4-2.25-4.2-2.42-3.8-2.5-3.3-2.2-2.54h2.66z" fill="#5e5e5e"/><path d="M1606.84 675.1l-.52.64-.67 1.06-.86-1.03 1.52-1.28zM1684.9 661.68l-9.9 11.26 1.38-14.93z" fill="#5e5e5e"/><path d="M1686.55 661.3l-12.84 14.62 1.8-19.37zm-10.28 8.67l6.96-7.92-6-2.58z" fill="#5e5e5e"/><use xlink:href="#n" transform="matrix(1,0,0,1,1576.711250925676,597.5133431828463) translate(0.0049999999999954525 19.550781249999986)"/><path d="M1670 700c0 16.57-13.43 30-30 30s-30-13.43-30-30 13.43-30 30-30 30 13.43 30 30z" stroke="#5e5e5e" stroke-width="3" fill="#fff"/><use xlink:href="#o" transform="matrix(1,0,0,1,1615,675) translate(7.663845486111136 32.48046874999997)"/><path d="M840.98 742.52l-.03 1.2-.13 2.15-.22 2.1-.3 2.05-.4 2-.45 1.97-.54 1.92-.6 1.92-.7 1.9-.8 1.86-.88 1.87-.97 1.85-1.07 1.86-1.18 1.85-1.3 1.86-1.4 1.86-1.56 1.88-1.7 1.9-1.88 1.9-2.05 1.92-2.24 1.95-2.48 1.97-2.73 2-3.02 1.98-3.32 2.02-3.66 2-4.06 2.03-4.48 2-4.94 1.94-5.45 1.9-5.96 1.8-6.5 1.67-7.07 1.5-5.26.9v-2.03l4.9-.83 6.97-1.48 6.43-1.65 5.9-1.76 5.36-1.87 4.87-1.93 4.4-1.96 3.98-1.97 3.6-1.97 3.26-1.96 2.94-1.96 2.67-1.92 2.4-1.9 2.2-1.9 2-1.87 1.8-1.84 1.65-1.83 1.5-1.8 1.37-1.8 1.24-1.8 1.13-1.8 1.03-1.77.93-1.78.84-1.8.76-1.8.67-1.8.6-1.83.5-1.86.46-1.9.36-1.92.3-1.96.2-2 .14-2.08.02-1.16zm-215.95 18.26l.84 1.8.93 1.77 1.03 1.8 1.13 1.77 1.25 1.8 1.37 1.8 1.5 1.8 1.65 1.83 1.8 1.85 2 1.87 2.2 1.9 2.4 1.9 2.67 1.94 2.93 1.96 3.25 1.97 3.6 1.98 3.98 1.98 4.4 1.96 4.87 1.92 5.36 1.87 5.88 1.78 6.43 1.66 7 1.48 4.9.83V806l-5.3-.9-7.04-1.5-6.52-1.67-5.97-1.8-5.44-1.9-4.94-1.95-4.5-2-4.05-2-3.67-2.02-3.32-2-3-2-2.74-2-2.48-1.96-2.26-1.94-2.05-1.93-1.87-1.9-1.7-1.9-1.55-1.88-1.4-1.86-1.3-1.87-1.18-1.86-1.07-1.85-.97-1.86-.88-1.86-.7-1.65 1.85-.77z" fill="#5e5e5e"/><path d="M839.98 741.5l1.02-.03-.02 1.08-2-.04.02-1.06zM627.82 757.83l-9.1 1.73 1.88-14.88z" fill="#5e5e5e"/><path d="M629.36 758.56l-11.8 2.24 2.44-19.3zm-9.48-.24l6.4-1.2-5.07-9.26z" fill="#5e5e5e"/><use xlink:href="#p" transform="matrix(1,0,0,1,698.3875703140156,795.4557487909974) translate(0.004999999999999005 15.999999999999986)"/><path d="M623.1 761.84l.9 3.8 1.03 3.73 1.2 3.7 1.36 3.65 1.5 3.62 1.7 3.6 1.88 3.6 2.07 3.58 2.28 3.6 2.5 3.6 2.76 3.6 3 3.66 3.32 3.68 3.64 3.7 4 3.76 4.4 3.8 4.83 3.84 5.33 3.88 5.9 3.9 6.52 3.96 7.2 3.96 7.98 3.95 8.8 3.93 9.75 3.86 10.73 3.72 11.8 3.55 12.85 3.3 13.93 2.96 14.96 2.53 15.84 2 16.56 1.4 17 .7h8.5v2h-8.54l-17.1-.72-16.62-1.4-15.94-2-15.03-2.54-14-2.98-12.95-3.32-11.86-3.58-10.82-3.76-9.8-3.88-8.9-3.96-8.05-4-7.28-4-6.6-3.98-5.96-3.96-5.42-3.93-4.9-3.9-4.47-3.84-4.04-3.8-3.7-3.77-3.37-3.74-3.08-3.72-2.8-3.7-2.55-3.66-2.33-3.67-2.1-3.66-1.93-3.67-1.72-3.68-1.55-3.7-1.4-3.73-1.2-3.77-1.08-3.82-.9-3.88-.42-2.17 1.96-.37zm436.38-19.3l-.07 3.35-.26 4.23-.43 4.14-.6 4.04-.74 3.96-.9 3.88-1.08 3.82-1.23 3.77-1.38 3.73-1.56 3.7-1.72 3.68-1.92 3.66-2.1 3.66-2.34 3.66-2.55 3.68-2.8 3.7-3.07 3.7-3.37 3.74-3.7 3.77-4.06 3.82-4.46 3.85-4.9 3.9-5.4 3.92-5.98 3.95-6.6 4-7.27 4-8.05 3.98-8.9 3.96-9.8 3.87-10.82 3.76-11.86 3.58-12.94 3.33-14.02 2.97-10.2 1.72V867l9.82-1.66 13.94-2.96 12.86-3.3 11.8-3.55 10.72-3.74 9.74-3.86 8.8-3.92 8-3.95 7.2-3.96 6.5-3.94 5.9-3.92 5.35-3.87 4.84-3.84 4.4-3.8 4-3.75 3.63-3.7 3.32-3.7 3-3.64 2.75-3.62 2.5-3.6 2.3-3.6 2.06-3.58 1.9-3.6 1.68-3.6 1.53-3.62 1.36-3.65 1.2-3.7 1.05-3.73.9-3.8.74-3.86.58-3.96.43-4.05.26-4.17.08-3.3z" fill="#5e5e5e"/><path d="M1058.48 741.5l1.02-.03-.02 1.08-2-.04.02-1.06zM626.24 758.5l-9.24.86 3.3-14.64z" fill="#5e5e5e"/><path d="M627.7 759.37l-11.97 1.1L620 741.5zm-9.42-1.14l6.5-.6-4.18-9.68z" fill="#5e5e5e"/><use xlink:href="#q" transform="matrix(1,0,0,1,839.1468381126186,859.755834173344) translate(0.004999999999999005 15.999999999999986)"/><path d="M622.17 760.3l.87 5.95 1.1 5.82 1.35 5.72 1.56 5.6 1.8 5.56 2.05 5.5 2.3 5.43 2.55 5.4 2.82 5.4 3.1 5.4 3.44 5.4 3.77 5.4 4.13 5.46 4.54 5.48 4.98 5.52 5.46 5.58 6 5.64 6.6 5.7 7.28 5.76 8.02 5.82 8.85 5.88 9.78 5.92 10.83 5.95 11.96 5.94 13.22 5.9 14.6 5.77 16.1 5.6 17.67 5.34 19.28 4.95 20.9 4.42 22.43 3.8 23.77 3 24.83 2.08 25.5 1.06h25.74l25.5-1.06 7.4-.62v2l-7.27.62-25.6 1.07h-25.8l-25.6-1.08-24.9-2.1-23.86-3-22.5-3.8-20.98-4.47-19.37-4.97-17.75-5.35-16.17-5.62-14.7-5.8-13.3-5.93-12.03-5.97-10.9-5.98-9.84-5.97-8.92-5.92-8.1-5.87-7.33-5.8-6.65-5.77-6.07-5.7-5.52-5.63-5.04-5.6-4.58-5.53-4.2-5.5-3.8-5.5-3.47-5.46-3.16-5.47-2.85-5.47-2.58-5.5-2.32-5.52-2.07-5.57-1.83-5.6-1.6-5.72-1.35-5.8-1.13-5.9-.9-6.02-.04-.5 2-.2zm655.8-17.77l-.1 5.52-.4 6.35-.66 6.17-.88 6.03-1.12 5.9-1.36 5.8-1.6 5.7-1.82 5.63-2.07 5.57-2.33 5.52-2.58 5.5-2.86 5.46-3.16 5.47-3.47 5.47-3.82 5.48-4.18 5.5-4.6 5.56-5.02 5.6-5.53 5.62-6.06 5.7-6.67 5.75-7.34 5.82-8.1 5.87-8.92 5.93-9.84 5.96-10.9 6-12.03 5.97-13.3 5.9-14.7 5.82-16.18 5.62-17.75 5.36-19.37 4.96-21 4.46-18.48 3.12v-2.03l18.12-3.07 20.9-4.43 19.3-4.95 17.67-5.33 16.1-5.6 14.6-5.78 13.24-5.88 11.96-5.94 10.82-5.94 9.78-5.92 8.86-5.88 8.02-5.83 7.27-5.76 6.6-5.7 6-5.65 5.47-5.57 4.98-5.53 4.53-5.48 4.14-5.44 3.76-5.42 3.43-5.4 3.12-5.38 2.83-5.4 2.55-5.4 2.3-5.46 2.03-5.5 1.8-5.54 1.57-5.62 1.34-5.7 1.1-5.83.9-5.95.63-6.1.4-6.25.1-5.48z" fill="#5e5e5e"/><path d="M1276.98 741.5l1.02-.03-.02 1.1-2-.06.02-1.06zM625.7 758.7l-9.26.55 3.76-14.52z" fill="#5e5e5e"/><path d="M627.13 759.6l-12 .73L620 741.5zm-9.38-1.43l6.5-.4-3.86-9.8z" fill="#5e5e5e"/><use xlink:href="#r" transform="matrix(1,0,0,1,994.2455883698314,922.6552816989011) translate(0.004999999999999005 15.999999999999986)"/><path d="M622.58 766.72l1.22 8.25 1.56 8.22 1.93 8.2 2.28 8.2 2.67 8.22 3.08 8.3 3.5 8.33 3.98 8.44 4.5 8.54 5 8.68 5.6 8.83 6.26 9 6.98 9.2 7.78 9.4 8.67 9.63 9.65 9.86 10.78 10.1 12 10.37 13.4 10.62 14.9 10.83 16.6 11.03 18.46 11.17 20.44 11.23 22.55 11.2 24.73 11 26.9 10.64 28.95 10.08 30.75 9.28 32.17 8.26 33.08 7.03 33.38 5.65 33.05 4.18 32.15 2.7 18.84.8v2l-18.97-.8-32.23-2.7-33.14-4.2-33.46-5.66-33.16-7.05-32.25-8.3-30.84-9.3-29.03-10.1-26.98-10.68-24.8-11.04-22.64-11.23-20.5-11.27-18.53-11.2-16.68-11.1-15-10.87-13.44-10.65-12.07-10.4-10.84-10.18-9.73-9.92-8.72-9.7-7.83-9.46-7.03-9.27-6.3-9.07-5.65-8.9-5.07-8.75-4.5-8.62-4-8.5-3.56-8.44-3.1-8.36-2.7-8.3-2.32-8.3-1.94-8.28-1.58-8.3-1.23-8.33-.73-6.9 2-.2zm838.4 95.8l-.16 7.44-.5 8.04-.8 7.7-1.1 7.4-1.36 7.1-1.6 6.88-1.87 6.65-2.1 6.46-2.35 6.3-2.58 6.14-2.83 6.02-3.1 5.9-3.35 5.8-3.64 5.74-3.94 5.66-4.25 5.6-4.6 5.54-4.95 5.5-5.37 5.5-5.8 5.45-6.3 5.43-6.84 5.42-7.42 5.4-8.1 5.37-8.84 5.35-9.66 5.3-10.6 5.26-11.62 5.18-12.8 5.06-14.1 4.9-15.53 4.68-17.15 4.4-18.9 4-20.8 3.52-22.84 2.88-24.93 2.08-4.7.2v-2l4.58-.2 24.85-2.07 22.75-2.86 20.73-3.5 18.83-4 17.06-4.36 15.45-4.66 14.02-4.88 12.7-5.03 11.57-5.13 10.5-5.22 9.6-5.27 8.77-5.3 8.03-5.33 7.37-5.35 6.77-5.36 6.23-5.38 5.75-5.4 5.3-5.4 4.92-5.46 4.54-5.5 4.2-5.52 3.9-5.6 3.58-5.64 3.3-5.74 3.06-5.83 2.8-5.95 2.55-6.07 2.3-6.2 2.08-6.4 1.83-6.57 1.6-6.8 1.35-7.02 1.08-7.3.8-7.62.5-7.97.15-7.38z" fill="#5e5e5e"/><path d="M1459.98 861.5l1.02-.03-.02 1.1-2-.05.02-1.08zM625.45 758.77l-9.26.43 3.95-14.47z" fill="#5e5e5e"/><path d="M626.87 759.7l-12 .56L620 741.5zm-9.35-1.56l6.5-.3-3.72-9.87z" fill="#5e5e5e"/><use xlink:href="#q" transform="matrix(1,0,0,1,1120.391584007207,1051.7055695787667) translate(0.004999999999999005 15.999999999999986)"/><path d="M625.36 616.8l-1.56 8.23-1.22 8.25-.72 6.85-2-.2.73-6.9 1.22-8.34 1.6-8.3.17-.77h2.04zm481.7-278.44l-5.5.24-32.15 2.7-33.04 4.18-33.38 5.65-33.08 7.03-32.17 8.26-30.75 9.28-28.95 10.08-26.9 10.64-24.74 11-22.56 11.2-20.45 11.23-18.46 11.17-16.6 11.03-14.92 10.83-13.4 10.6-12 10.37-10.77 10.1-9.66 9.87-8.68 9.63-7.78 9.4-6.98 9.2-6.26 9-5.6 8.83-5 8.68-4.5 8.55-3.96 8.45-3.5 8.34-2.72 7.3h-2.13l2.97-8.04 3.55-8.43 4-8.5 4.5-8.64 5.07-8.76 5.64-8.9 6.3-9.07 7.03-9.26 7.84-9.46 8.73-9.7 9.73-9.9 10.83-10.18 12.06-10.4 13.45-10.67 15-10.9 16.67-11.07 18.52-11.2 20.5-11.28 22.64-11.23 24.8-11.04 27-10.68 29.02-10.1 30.83-9.3 32.24-8.3 33.16-7.04 33.46-5.66 33.14-4.2 32.23-2.7 5.63-.24zm81.25-1.94l24.94 2.08 22.83 2.88 20.8 3.5 18.9 4.02 17.16 4.4 15.54 4.68 14.1 4.9 12.8 5.06 11.62 5.18 10.58 5.25 9.66 5.3 8.84 5.36 8.1 5.38 7.43 5.4 6.84 5.42 6.3 5.43 5.8 5.46 5.38 5.5 4.96 5.5 4.6 5.55 4.24 5.6 3.94 5.65 3.63 5.73 3.35 5.8 3.1 5.9 2.82 6.03 2.58 6.15 2.34 6.3 2.1 6.47 1.85 6.65 1.6 6.87 1.37 7.1 1.1 7.4.8 7.7.5 8.04.16 7.43-2 .04-.15-7.37-.5-7.97-.8-7.6-1.08-7.32-1.34-7.03-1.6-6.78-1.82-6.57-2.08-6.4-2.3-6.2-2.56-6.07-2.8-5.95-3.05-5.83-3.32-5.74-3.6-5.65-3.87-5.58-4.2-5.53-4.53-5.5-4.9-5.45-5.32-5.4-5.75-5.4-6.23-5.4-6.77-5.35-7.37-5.35-8.02-5.33-8.76-5.3-9.6-5.27-10.5-5.22-11.56-5.14-12.7-5.04-14.03-4.88-15.46-4.66-17.07-4.37-18.82-4-20.72-3.5-22.75-2.86-24.85-2.1-17.9-.73v-2z" fill="#5e5e5e"/><path d="M1461 538.56l-.98-.06-1.02.03-.02-1.05 2-.04zM625.45 641.23l-5.3 14.04-3.96-14.47z" fill="#5e5e5e"/><path d="M626.87 640.3L620 658.5l-5.14-18.76zm-6.57 11.73l3.73-9.86-6.5-.3z" fill="#5e5e5e"/><use xlink:href="#q" transform="matrix(1,0,0,1,1107.057505233658,324.29816305540186) translate(0.004999999999999005 15.999999999999986)"/><defs><path fill="#333" d="M138-1120c207-4 339-93 415-229h266v1140h323V0H149v-209h389v-891c-70 121-216 187-400 194v-214" id="s"/><use transform="matrix(0.014105902777777759,0,0,0.014105902777777759,0,0)" xlink:href="#s" id="a"/><path fill="#333" d="M135-968c34-256 187-402 480-402 217 0 371 75 441 220 45 93 40 219-8 308-114 212-348 323-508 488-38 39-66 80-85 123h654V0H123v-195c112-245 321-399 515-560 57-48 107-96 142-157 14-26 22-53 22-80-1-104-73-156-185-154-131 2-181 74-199 194" id="t"/><g id="b"><use transform="matrix(0.014105902777777759,0,0,0.014105902777777759,0,0)" xlink:href="#s"/><use transform="matrix(0.014105902777777759,0,0,0.014105902777777759,17.336154513888864,0)" xlink:href="#t"/></g><path fill="#333" d="M622-916c-112 2-200 14-200 111 0 90 89 101 168 121 234 58 514 77 514 368C1104-4 751 54 434 5 267-21 161-112 121-270l247-37c24 111 113 145 252 141 114-3 226-12 226-124 0-101-103-113-192-134-225-54-490-76-490-351 0-247 201-328 458-328 245 0 413 88 457 292l-249 26c-16-98-92-133-208-131" id="u"/><use transform="matrix(0.011935763888888881,0,0,0.011935763888888881,0,0)" xlink:href="#u" id="c"/><path fill="#333" d="M788-691c191 26 337 112 337 315 0 286-214 399-510 399-306 0-483-128-522-391l286-25c18 124 91 190 235 188 132-2 223-58 223-188 0-176-191-182-378-179v-227c176 5 345-9 345-176 0-115-82-171-200-171s-198 55-206 169l-281-20c34-252 213-373 492-373 224 0 381 74 451 224 20 43 29 89 29 136 0 195-130 279-301 315v4" id="v"/><g id="d"><use transform="matrix(0.014105902777777759,0,0,0.014105902777777759,0,0)" xlink:href="#s"/><use transform="matrix(0.014105902777777759,0,0,0.014105902777777759,17.336154513888864,0)" xlink:href="#v"/></g><path fill="#333" d="M616-1102c361 0 521 202 521 560 0 354-171 562-527 562C259 20 92-192 92-542c0-351 169-560 524-560zm-9 930c200-2 236-165 236-370 0-199-27-367-223-367-195 0-233 146-233 367 0 129 18 223 55 282s92 88 165 88" id="w"/><use transform="matrix(0.011935763888888881,0,0,0.011935763888888881,0,0)" xlink:href="#w" id="e"/><path fill="#333" d="M980-287V0H712v-287H71v-211l595-851h314v853h188v209H980zM712-496c2-204-7-417 9-609-118 224-277 405-414 609h405" id="x"/><g id="f"><use transform="matrix(0.014105902777777759,0,0,0.014105902777777759,0,0)" xlink:href="#s"/><use transform="matrix(0.014105902777777759,0,0,0.014105902777777759,17.336154513888864,0)" xlink:href="#x"/></g><path fill="#333" d="M768-1103c247 0 336 167 336 416V0H824v-619c-3-164-24-273-171-273-164 0-229 142-229 312V0H143c-4-359 9-736-8-1082h268c7 63 12 146 13 215h4c67-145 160-236 348-236" id="y"/><use transform="matrix(0.011935763888888881,0,0,0.011935763888888881,0,0)" xlink:href="#y" id="g"/><path fill="#333" d="M706-877c265 0 409 163 409 431 0 299-171 466-474 466-381 0-516-302-516-692 0-236 47-410 135-526 112-147 319-207 541-154 154 36 236 149 276 306l-265 37c-22-86-75-139-170-139-76 0-135 36-178 108s-64 179-64 318c54-94 164-155 306-155zm-74 678c138 0 201-98 201-239s-67-232-208-232c-125 0-205 73-205 202 0 149 67 269 212 269" id="z"/><g id="h"><use transform="matrix(0.014105902777777759,0,0,0.014105902777777759,0,0)" xlink:href="#s"/><use transform="matrix(0.014105902777777759,0,0,0.014105902777777759,17.336154513888864,0)" xlink:href="#z"/></g><path fill="#333" d="M426-814c58-49 145-93 255-90 282 8 442 169 442 450 0 312-203 474-522 474-288 0-453-130-497-372l281-23c24 104 89 172 219 172 153 0 230-91 230-245 0-144-78-226-224-229-94-2-148 42-191 91H145l49-763h847v209H449" id="A"/><g id="i"><use transform="matrix(0.014105902777777759,0,0,0.014105902777777759,0,0)" xlink:href="#s"/><use transform="matrix(0.014105902777777759,0,0,0.014105902777777759,17.336154513888864,0)" xlink:href="#A"/></g><path fill="#333" d="M802-909c-3-189-2-383-2-575h281v1248c-1 83 4 168 8 236H817c-9-50-14-117-15-176h-4C735-49 651 20 482 20 191 20 97-238 97-539c0-243 66-432 221-519 50-28 108-42 175-42 162 2 253 78 309 191zm-70 658c91-113 93-462 2-584-46-61-145-100-224-53-96 56-119 190-120 349 0 123 17 214 52 275 46 82 130 115 222 74 25-12 46-33 68-61" id="B"/><use transform="matrix(0.011935763888888881,0,0,0.011935763888888881,0,0)" xlink:href="#B" id="j"/><path fill="#333" d="M1092-1126C914-878 744-630 663-296c-23 96-34 194-34 296H336c7-366 145-620 298-854 59-90 126-177 197-264H131v-231h961v223" id="C"/><use transform="matrix(0.014105902777777759,0,0,0.014105902777777759,0,0)" xlink:href="#C" id="k"/><path fill="#333" d="M1113-274C1038-96 884 20 626 20c-352 0-526-209-526-566 0-358 185-556 530-556 358 0 496 251 499 615H395c5 180 68 319 245 319 102 0 186-45 208-129zM857-663c-6-177-128-307-315-247-94 30-141 121-145 247h460" id="D"/><use transform="matrix(0.011935763888888881,0,0,0.011935763888888881,0,0)" xlink:href="#D" id="l"/><path fill="#333" d="M258 363l169-662h315L431 363H258" id="E"/><g id="m"><use transform="matrix(0.011935763888888881,0,0,0.011935763888888881,0,0)" xlink:href="#B"/><use transform="matrix(0.011935763888888881,0,0,0.011935763888888881,14.669053819444436,0)" xlink:href="#E"/><use transform="matrix(0.011935763888888881,0,0,0.011935763888888881,29.33810763888887,0)" xlink:href="#D"/><use transform="matrix(0.011935763888888881,0,0,0.011935763888888881,44.00716145833331,0)" xlink:href="#E"/><use transform="matrix(0.011935763888888881,0,0,0.011935763888888881,58.67621527777774,0)" xlink:href="#y"/><use transform="matrix(0.011935763888888881,0,0,0.011935763888888881,73.34526909722217,0)" xlink:href="#E"/><use transform="matrix(0.011935763888888881,0,0,0.011935763888888881,88.0143229166666,0)" xlink:href="#w"/></g><g id="n"><use transform="matrix(0.011935763888888881,0,0,0.011935763888888881,0,0)" xlink:href="#B"/><use transform="matrix(0.011935763888888881,0,0,0.011935763888888881,14.669053819444436,0)" xlink:href="#E"/><use transform="matrix(0.011935763888888881,0,0,0.011935763888888881,29.33810763888887,0)" xlink:href="#D"/><use transform="matrix(0.011935763888888881,0,0,0.011935763888888881,44.00716145833331,0)" xlink:href="#E"/><use transform="matrix(0.011935763888888881,0,0,0.011935763888888881,58.67621527777774,0)" xlink:href="#y"/><use transform="matrix(0.011935763888888881,0,0,0.011935763888888881,73.34526909722217,0)" xlink:href="#E"/><use transform="matrix(0.011935763888888881,0,0,0.011935763888888881,88.0143229166666,0)" xlink:href="#w"/><use transform="matrix(0.011935763888888881,0,0,0.011935763888888881,102.68337673611103,0)" xlink:href="#E"/><use transform="matrix(0.011935763888888881,0,0,0.011935763888888881,117.35243055555546,0)" xlink:href="#u"/></g><g id="o"><use transform="matrix(0.014105902777777759,0,0,0.014105902777777759,0,0)" xlink:href="#s"/><use transform="matrix(0.014105902777777759,0,0,0.014105902777777759,17.336154513888864,0)" xlink:href="#C"/></g><path fill="#333" d="M88-194c31-1 46 15 58 34l-1-101h50l1 261h-48c-2-10 0-23-3-31C134-8 116 4 84 4 32 4 16-41 15-95c0-56 19-97 73-99zm17 164c33 0 40-30 41-66 1-37-9-64-41-64s-38 30-39 65c0 43 13 65 39 65" id="F"/><path fill="#333" d="M76-54c-1 42 2 86-19 110H24C36 42 46 24 48 0H25v-54h51" id="G"/><path fill="#333" d="M185-48c-13 30-37 53-82 52C43 2 14-33 14-96s30-98 90-98c62 0 83 45 84 108H66c0 31 8 55 39 56 18 0 30-7 34-22zm-45-69c5-46-57-63-70-21-2 6-4 13-4 21h74" id="H"/><path fill="#333" d="M135-194c87-1 58 113 63 194h-50c-7-57 23-157-34-157-59 0-34 97-39 157H25l-1-190h47c2 12-1 28 3 38 12-26 28-41 61-42" id="I"/><path fill="#333" d="M137-138c1-29-70-34-71-4 15 46 118 7 119 86 1 83-164 76-172 9l43-7c4 19 20 25 44 25 33 8 57-30 24-41C81-84 22-81 20-136c-2-80 154-74 161-7" id="J"/><g id="p"><use transform="matrix(0.055555555555555504,0,0,0.055555555555555504,0,0)" xlink:href="#F"/><use transform="matrix(0.055555555555555504,0,0,0.055555555555555504,12.166666666666655,0)" xlink:href="#G"/><use transform="matrix(0.055555555555555504,0,0,0.055555555555555504,17.722222222222207,0)" xlink:href="#H"/><use transform="matrix(0.055555555555555504,0,0,0.055555555555555504,28.833333333333307,0)" xlink:href="#G"/><use transform="matrix(0.055555555555555504,0,0,0.055555555555555504,34.38888888888886,0)" xlink:href="#I"/><use transform="matrix(0.055555555555555504,0,0,0.055555555555555504,46.555555555555515,0)" xlink:href="#G"/><use transform="matrix(0.055555555555555504,0,0,0.055555555555555504,52.111111111111065,0)" xlink:href="#J"/></g><path fill="#333" d="M110-194c64 0 96 36 96 99 0 64-35 99-97 99-61 0-95-36-95-99 0-62 34-99 96-99zm-1 164c35 0 45-28 45-65 0-40-10-65-43-65-34 0-45 26-45 65 0 36 10 65 43 65" id="K"/><g id="q"><use transform="matrix(0.055555555555555504,0,0,0.055555555555555504,0,0)" xlink:href="#F"/><use transform="matrix(0.055555555555555504,0,0,0.055555555555555504,12.166666666666655,0)" xlink:href="#G"/><use transform="matrix(0.055555555555555504,0,0,0.055555555555555504,17.722222222222207,0)" xlink:href="#H"/><use transform="matrix(0.055555555555555504,0,0,0.055555555555555504,28.833333333333307,0)" xlink:href="#G"/><use transform="matrix(0.055555555555555504,0,0,0.055555555555555504,34.38888888888886,0)" xlink:href="#K"/><use transform="matrix(0.055555555555555504,0,0,0.055555555555555504,46.555555555555515,0)" xlink:href="#G"/><use transform="matrix(0.055555555555555504,0,0,0.055555555555555504,52.111111111111065,0)" xlink:href="#J"/></g><g id="r"><use transform="matrix(0.055555555555555504,0,0,0.055555555555555504,0,0)" xlink:href="#H"/><use transform="matrix(0.055555555555555504,0,0,0.055555555555555504,11.1111111111111,0)" xlink:href="#G"/><use transform="matrix(0.055555555555555504,0,0,0.055555555555555504,16.66666666666665,0)" xlink:href="#K"/><use transform="matrix(0.055555555555555504,0,0,0.055555555555555504,28.833333333333307,0)" xlink:href="#G"/><use transform="matrix(0.055555555555555504,0,0,0.055555555555555504,34.38888888888886,0)" xlink:href="#J"/></g></defs></g></svg>