<svg xmlns="http://www.w3.org/2000/svg" xmlns:xlink="http://www.w3.org/1999/xlink" xmlns:lucid="lucid" width="551" height="326.65"><g transform="translate(-889.0000000000001 -477.3653983114307)" lucid:page-tab-id="0_0"><path d="M1080 641.38c0 22.1-17.9 40-40 40s-40-17.9-40-40 17.9-40 40-40 40 17.9 40 40z" stroke="#5e5e5e" stroke-width="3" fill="#fff"/><use xlink:href="#a" transform="matrix(1,0,0,1,1004.9985225288083,606.3787283882749) translate(13.663194444444443 40.46875)"/><path d="M901 641.38h79M901.03 641.38H900" stroke="#5e5e5e" stroke-width="2" fill="none"/><path d="M995.26 641.38L981 646v-9.26z" stroke="#5e5e5e" stroke-width="2" fill="#5e5e5e"/><path d="M1041.07 686.2l.2 3.22.33 3.13.45 3.05.57 3 .7 2.92.8 2.88.9 2.84 1.06 2.8 1.17 2.8 1.3 2.77 1.45 2.77 1.6 2.76 1.74 2.75 1.93 2.77 2.1 2.78 2.32 2.8 2.54 2.82 2.8 2.85 3.05 2.88 3.36 2.9 3.72 2.95 4.1 2.97 4.5 3 5 3.02 5.52 3.03 6.1 3.03 6.76 3 7.46 2.96 8.22 2.86 9.03 2.72 9.87 2.53 10.7 2.27 11.5 1.95 12.2 1.53 12.8 1.08 5.3.22v2l-5.44-.23-12.86-1.08-12.3-1.56-11.57-1.95-10.78-2.3-9.96-2.55-9.12-2.75-8.3-2.9-7.54-2.97-6.83-3.04-6.18-3.07-5.6-3.08-5.05-3.06-4.6-3.06-4.15-3.02-3.78-3-3.45-2.95-3.12-2.94-2.85-2.9-2.6-2.9-2.37-2.85-2.15-2.85-1.97-2.84-1.8-2.84-1.63-2.83-1.5-2.83-1.33-2.85-1.2-2.86-1.07-2.9-.95-2.92-.83-2.97-.7-3-.6-3.06-.46-3.14-.32-3.2-.2-3.3-.06-2.4 2-.04zm337.7 13.85l-.15.63-.83 2.98-.97 2.95-1.08 2.92-1.2 2.9-1.37 2.86-1.5 2.87-1.65 2.86-1.8 2.88-2 2.87-2.2 2.9-2.4 2.9-2.65 2.92-2.9 2.96-3.18 3-3.5 3-3.85 3.06-4.24 3.07-4.67 3.1-5.17 3.14-5.72 3.15-6.3 3.13-7 3.1-7.7 3.06-8.48 2.95-9.3 2.8-10.13 2.6-10.98 2.32-11.75 2-12.43 1.56-12.96 1.1-2.45.1v-2l2.33-.1 12.88-1.1 12.35-1.55 11.68-1.97 10.9-2.3 10.05-2.6 9.22-2.78 8.4-2.92 7.62-3.02 6.9-3.07 6.25-3.1 5.64-3.1 5.1-3.08 4.6-3.07 4.18-3.04 3.8-3 3.42-2.97 3.12-2.93 2.84-2.9 2.6-2.86 2.34-2.85 2.14-2.83 1.95-2.8 1.77-2.8 1.6-2.8 1.47-2.78 1.3-2.8 1.2-2.82 1.05-2.83.93-2.86.8-2.9.14-.6z" fill="#5e5e5e"/><path d="M1039.98 682.88l1.02-.04.02 1.05-2 .03-.02-1.1zM1382.5 699.43l-9.2-1.1 6.3-13.62z" fill="#5e5e5e"/><path d="M1383.76 700.6l-11.94-1.45 8.18-17.65zm-8.97-3.1l6.47.77-2.04-10.34z" fill="#5e5e5e"/><use xlink:href="#b" transform="matrix(1,0,0,1,1194.247122850898,775.2353982718363) translate(0.004999999999999005 14.21875)"/><path d="M1420 640c0 22.1-17.9 40-40 40s-40-17.9-40-40 17.9-40 40-40 40 17.9 40 40z" stroke="#5e5e5e" stroke-width="3" fill="#fff"/><use xlink:href="#c" transform="matrix(1,0,0,1,1345,605) translate(29.66579861111111 40.46875)"/><path d="M1410 640c0 16.57-13.43 30-30 30s-30-13.43-30-30 13.43-30 30-30 30 13.43 30 30z" stroke="#5e5e5e" stroke-width="3" fill="#fff"/><use xlink:href="#d" transform="matrix(1,0,0,1,1355,615) translate(-1.6710069444444464 30.32986111111111)"/><path d="M1057.55 552.98l-2.15 2.82-1.95 2.8-1.77 2.8-1.6 2.8-1.47 2.78-1.3 2.8-1.2 2.8-1.04 2.84-.93 2.87-.8 2.9-.7 2.93-.58 3-.45 3.06-.33 3.13-.2 3.22-.05 2.34-2-.05.05-2.38.2-3.3.35-3.23.46-3.14.6-3.1.7-3 .83-3 .97-2.93 1.08-2.92 1.2-2.9 1.37-2.86 1.5-2.88 1.65-2.86 1.82-2.86 2-2.88 2.18-2.9.08-.08h2.6zM1218 496.25l13.23.56 12.85 1.1 12.3 1.54 11.57 1.96 10.8 2.3 9.94 2.54 9.1 2.75 8.3 2.87 7.53 3 6.83 3.02 6.18 3.06 5.6 3.07 5.05 3.07 4.58 3.04 4.16 3.02 3.78 3 3.43 2.96 3.13 2.94 2.85 2.9 2.6 2.9 2.36 2.85 2.15 2.86 1.98 2.83 1.8 2.82 1.63 2.83 1.48 2.84 1.34 2.83 1.2 2.87 1.08 2.9.94 2.9.83 2.97.14.58-1.95.45-.13-.53-.8-2.88-.93-2.85-1.05-2.82-1.17-2.78-1.3-2.77-1.45-2.76-1.6-2.76-1.74-2.76-1.92-2.77-2.1-2.78-2.33-2.8-2.53-2.82-2.8-2.85-3.06-2.87-3.36-2.9-3.7-2.94-4.1-2.97-4.52-3-5-3.03-5.5-3.04-6.1-3.03-6.76-3-7.46-2.95-8.22-2.86-9.03-2.74-9.87-2.53-10.7-2.27-11.5-1.94-12.2-1.54-12.78-1.07-13.15-.55h-4v-2zm-12.44 0v2h-.9l-13.2.56-12.9 1.1-12.34 1.54-11.67 1.97-10.9 2.33-10.06 2.58-9.23 2.8-8.4 2.9-7.63 3.03-6.9 3.07-6.24 3.1-5.65 3.1-5.1 3.08-4.6 3.06-1.96 1.42h-3.4l4.2-3.06 4.68-3.1 5.17-3.14 5.72-3.14 6.32-3.13 6.97-3.12 7.7-3.04 8.5-2.96 9.3-2.8 10.13-2.6 10.97-2.33 11.76-2 12.43-1.55 12.96-1.1 13.3-.55zM1041.02 598.87l-.02 1.07-.98-.06-1.02.03.02-1.07zM1379.6 595.3l-6.3-13.62 9.2-1.1z" fill="#5e5e5e"/><path d="M1380 598.5l-8.18-17.65 11.94-1.44zm-5.2-16l4.43 9.57 2.03-10.34z" fill="#5e5e5e"/><use xlink:href="#e" transform="matrix(1,0,0,1,1205.5558225458697,488.3653983114307) translate(0.004999999999999893 14.21875)"/><path d="M1008.38 551.68l-2.5 2.55-1.77 2.42-1.24 2.33-.85 2.3-.32 1.28-.46 2.76-.22 3.42.2 4.4.86 5.88 2.08 8.03 4.02 10.75 4.64 9.46-1.8.88-4.68-9.55-4.1-10.95-2.12-8.23-.9-6.08-.2-4.62.23-3.63.5-2.95.37-1.45.93-2.54 1.38-2.58 1.96-2.65 1.27-1.3h2.8zm44.16 2l1.7 2.23 1.44 2.24 1.22 2.23 1.02 2.26.84 2.3.67 2.4.5 2.5.32 2.66.13 2.85-.1 3.1-.35 3.48-.73 3.97-1.23 4.73-.4 1.2-1.9-.66.38-1.12 1.2-4.58.7-3.82.35-3.32.08-2.97-.12-2.7-.3-2.5-.48-2.36-.63-2.24-.8-2.18-.94-2.12-1.14-2.1-1.36-2.1-1.6-2.12-1.94-2.18-1.16-1.12h2.84z" fill="#5e5e5e"/><path d="M1013.24 608.15l-1.8.9-.44-.94 1.8-.87zM1060.52 594.17l-9.7 11.43 1.13-14.95z" fill="#5e5e5e"/><path d="M1062.18 593.77l-12.6 14.82 1.48-19.4zm-10.14 8.84l6.83-8.03-6.03-2.48z" fill="#5e5e5e"/><use xlink:href="#f" transform="matrix(1,0,0,1,994.830621195201,533.8577764966699) translate(0.005000000000002558 14.21875)"/><use xlink:href="#g" transform="matrix(1,0,0,1,994.830621195201,533.8577764966699) translate(21.34180555555556 14.21875)"/><use xlink:href="#h" transform="matrix(1,0,0,1,994.830621195201,533.8577764966699) translate(42.67861111111112 14.21875)"/><path d="M1121.94 642.16l-39.43.2v-2l39.44-.2zM1320 641.1l-50.98.27v-2l50.97-.27z" fill="#5e5e5e"/><path d="M1082.53 642.37h-1.1l.07-.97-.04-1.02h1.06zM1335.26 640.02l-14.24 4.7-.05-9.26z" fill="#5e5e5e"/><path d="M1338.5 640l-18.47 6.1-.06-12zm-16.5 3.35l10.03-3.32-10.05-3.2z" fill="#5e5e5e"/><g><use xlink:href="#i" transform="matrix(1,0,0,1,1121.9398346053936,631.8783703877125) translate(0.0049999999999954525 14.21875)"/></g><defs><path fill="#333" d="M157-1349h916v228H762v893h311V0H157v-228h311v-893H157v-228" id="j"/><path fill="#333" d="M768-1103c247 0 336 167 336 416V0H824v-619c-3-164-24-273-171-273-164 0-229 142-229 312V0H143c-4-359 9-736-8-1082h268c7 63 12 146 13 215h4c67-145 160-236 348-236" id="k"/><path fill="#333" d="M794-190h353V0H118v-190h395v-702H223v-190h571v892zM513-1277v-207h281v207H513" id="l"/><path fill="#333" d="M711 13c-250 0-386-99-385-349l2-556H161v-190h181l88-282h176v282h385v190H606v530c-10 130 45 186 174 184 91-2 176-11 255-27v186C933-1 833 13 711 13" id="m"/><g id="a"><use transform="matrix(0.008680555555555556,0,0,0.008680555555555556,0,0)" xlink:href="#j"/><use transform="matrix(0.008680555555555556,0,0,0.008680555555555556,10.668402777777779,0)" xlink:href="#k"/><use transform="matrix(0.008680555555555556,0,0,0.008680555555555556,21.336805555555557,0)" xlink:href="#l"/><use transform="matrix(0.008680555555555556,0,0,0.008680555555555556,32.005208333333336,0)" xlink:href="#m"/></g><path fill="#333" d="M775-193C708-75 621 20 439 20 226 20 106-93 106-306c0-251 170-341 417-346l223-4c4-143-12-264-148-264-103 0-141 58-150 153l-293-14c37-219 194-321 455-321 263 0 418 130 417 390v392c1 84 5 161 89 160 21 0 42-2 62-6v152c-57 15-108 27-180 26-145 0-202-73-217-205h-6zm-256 17c168 0 234-139 227-325-166 4-347-25-347 173 0 94 33 152 120 152" id="n"/><path fill="#333" d="M726-569v408H500v-408H101v-224h399v-408h226v408h402v224H726" id="o"/><path fill="#333" d="M429-1484c1 190-1 388 0 572 54-116 155-191 317-191 300 0 386 257 386 563 0 241-73 429-226 518-49 28-106 42-169 42-162 0-251-81-306-196h-4c-1 59-5 127-15 176H140c4-67 9-153 8-236v-1248h281zm66 648c-93 114-92 466 1 585 35 45 77 79 142 79 64 0 112-31 148-92 69-115 68-440-2-561-39-68-131-111-221-70-25 11-46 32-68 59" id="p"/><g id="b"><use transform="matrix(0.008680555555555556,0,0,0.008680555555555556,0,0)" xlink:href="#n"/><use transform="matrix(0.008680555555555556,0,0,0.008680555555555556,10.668402777777779,0)" xlink:href="#o"/><use transform="matrix(0.008680555555555556,0,0,0.008680555555555556,21.336805555555557,0)" xlink:href="#p"/></g><path fill="#333" d="M1229 0H935l-92-330H387L295 0H0l443-1349h344zM615-1167c-46 213-110 412-166 615h332c-56-204-119-401-166-615" id="q"/><use transform="matrix(0.008680555555555556,0,0,0.008680555555555556,0,0)" xlink:href="#q" id="c"/><path fill="#333" d="M462-1121v384h621v228H462V0H167v-1349h939v228H462" id="r"/><path fill="#333" d="M794-190h353V0H118v-190h395v-1104H223v-190h571v1294" id="s"/><g id="d"><use transform="matrix(0.008680555555555556,0,0,0.008680555555555556,0,0)" xlink:href="#r"/><use transform="matrix(0.008680555555555556,0,0,0.008680555555555556,10.668402777777779,0)" xlink:href="#l"/><use transform="matrix(0.008680555555555556,0,0,0.008680555555555556,21.336805555555557,0)" xlink:href="#k"/><use transform="matrix(0.008680555555555556,0,0,0.008680555555555556,32.005208333333336,0)" xlink:href="#n"/><use transform="matrix(0.008680555555555556,0,0,0.008680555555555556,42.673611111111114,0)" xlink:href="#s"/></g><path fill="#333" d="M364-313c0 239 364 131 432 6l142 142C784 80 73 125 79-296c0-176 125-245 284-262-148-23-256-97-256-256 0-364 677-364 814-119L762-808c-51-131-387-176-387 6 0 148 171 154 330 148v182c-171-6-341-6-341 159" id="t"/><use transform="matrix(0.008680555555555556,0,0,0.008680555555555556,0,0)" xlink:href="#t" id="e"/><use transform="matrix(0.008680555555555556,0,0,0.008680555555555556,0,0)" xlink:href="#n" id="f"/><use transform="matrix(0.008680555555555556,0,0,0.008680555555555556,0,0)" xlink:href="#o" id="g"/><path fill="#333" d="M621-530c0 421 127 700 301 955H641C466 173 344-110 344-531s122-702 297-953h281c-174 254-301 534-301 954" id="u"/><path fill="#333" d="M885-531c0 421-122 704-297 956H307c174-255 301-534 301-955 0-420-127-700-301-954h281c175 251 297 532 297 953" id="v"/><g id="h"><use transform="matrix(0.008680555555555556,0,0,0.008680555555555556,0,0)" xlink:href="#u"/><use transform="matrix(0.008680555555555556,0,0,0.008680555555555556,10.668402777777779,0)" xlink:href="#p"/><use transform="matrix(0.008680555555555556,0,0,0.008680555555555556,21.336805555555557,0)" xlink:href="#n"/><use transform="matrix(0.008680555555555556,0,0,0.008680555555555556,32.005208333333336,0)" xlink:href="#v"/></g><g id="i"><use transform="matrix(0.008680555555555556,0,0,0.008680555555555556,0,0)" xlink:href="#u"/><use transform="matrix(0.008680555555555556,0,0,0.008680555555555556,10.668402777777779,0)" xlink:href="#p"/><use transform="matrix(0.008680555555555556,0,0,0.008680555555555556,21.336805555555557,0)" xlink:href="#o"/><use transform="matrix(0.008680555555555556,0,0,0.008680555555555556,32.005208333333336,0)" xlink:href="#t"/><use transform="matrix(0.008680555555555556,0,0,0.008680555555555556,40.39930555555556,0)" xlink:href="#v"/><use transform="matrix(0.008680555555555556,0,0,0.008680555555555556,51.067708333333336,0)" xlink:href="#o"/><use transform="matrix(0.008680555555555556,0,0,0.008680555555555556,61.736111111111114,0)" xlink:href="#u"/><use transform="matrix(0.008680555555555556,0,0,0.008680555555555556,72.40451388888889,0)" xlink:href="#p"/><use transform="matrix(0.008680555555555556,0,0,0.008680555555555556,83.07291666666666,0)" xlink:href="#u"/><use transform="matrix(0.008680555555555556,0,0,0.008680555555555556,93.74131944444443,0)" xlink:href="#n"/><use transform="matrix(0.008680555555555556,0,0,0.008680555555555556,104.4097222222222,0)" xlink:href="#o"/><use transform="matrix(0.008680555555555556,0,0,0.008680555555555556,115.07812499999997,0)" xlink:href="#p"/><use transform="matrix(0.008680555555555556,0,0,0.008680555555555556,125.74652777777774,0)" xlink:href="#v"/><use transform="matrix(0.008680555555555556,0,0,0.008680555555555556,136.41493055555551,0)" xlink:href="#v"/></g></defs></g></svg>