<svg xmlns="http://www.w3.org/2000/svg" xmlns:xlink="http://www.w3.org/1999/xlink" xmlns:lucid="lucid" width="811" height="404.59"><g transform="translate(-629 -398.7329692896896)" lucid:page-tab-id="0_0"><path d="M820 640c0 22.1-17.9 40-40 40s-40-17.9-40-40 17.9-40 40-40 40 17.9 40 40z" stroke="#5e5e5e" stroke-width="3" fill="#fff"/><use xlink:href="#a" transform="matrix(1,0,0,1,744.9985225288083,605) translate(13.663194444444443 40.46875)"/><path d="M1160 640c0 22.1-17.9 40-40 40s-40-17.9-40-40 17.9-40 40-40 40 17.9 40 40z" stroke="#5e5e5e" stroke-width="3" fill="#fff"/><use xlink:href="#b" transform="matrix(1,0,0,1,1085,605) translate(29.66579861111111 40.46875)"/><path d="M641 640h79M641.03 640H640" stroke="#5e5e5e" stroke-width="2" fill="none"/><path d="M735.26 640L721 644.64v-9.28z" stroke="#5e5e5e" stroke-width="2" fill="#5e5e5e"/><path d="M781.07 684.83l.2 3.22.33 3.13.45 3.06.57 3 .7 2.93.8 2.9.92 2.84 1.05 2.83 1.17 2.8 1.3 2.78 1.46 2.8 1.6 2.76 1.77 2.78 1.94 2.8 2.12 2.8 2.34 2.8 2.56 2.85 2.8 2.86 3.1 2.9 3.4 2.94 3.76 2.97 4.13 3 4.57 3.04 5.04 3.06 5.58 3.07 6.18 3.06 6.83 3.03 7.54 2.98 8.3 2.9 9.13 2.75 9.96 2.56 10.8 2.3 11.58 1.96 12.28 1.55 12.83 1.08 3.8.16v2l-3.94-.16-12.9-1.08-12.37-1.56-11.68-1.97-10.88-2.3-10.05-2.6-9.22-2.77-8.4-2.92-7.6-3-6.9-3.08-6.26-3.1-5.66-3.1-5.1-3.1-4.65-3.08-4.2-3.05-3.8-3.02-3.47-3-3.16-2.96-2.87-2.94-2.62-2.9-2.4-2.9-2.16-2.86-2-2.85-1.8-2.85-1.64-2.85-1.5-2.85-1.34-2.86-1.2-2.87-1.08-2.9-.96-2.94-.83-2.97-.7-3-.6-3.1-.45-3.13-.34-3.22-.2-3.3-.06-2.37 2-.05zm337.7 15.22l-.14.6-.83 2.98-.95 2.93-1.08 2.9-1.2 2.88-1.36 2.86-1.48 2.85-1.64 2.84-1.8 2.84-2 2.85-2.17 2.86-2.38 2.9-2.62 2.9-2.87 2.93-3.15 2.95-3.47 3-3.8 3-4.2 3.06-4.64 3.1-5.1 3.1-5.67 3.1-6.25 3.1-6.9 3.06-7.63 3.02-8.38 2.92-9.2 2.77-10.05 2.58-10.9 2.3-11.66 1.98-12.36 1.56-12.9 1.08-3.98.16v-2l3.84-.16 12.83-1.08 12.28-1.55 11.58-1.95 10.8-2.3 9.96-2.55 9.12-2.76 8.3-2.9 7.55-2.98 6.83-3.04 6.17-3.06 5.58-3.07 5.04-3.05 4.56-3.03 4.13-3 3.74-2.97 3.4-2.94 3.1-2.9 2.8-2.88 2.57-2.84 2.34-2.82 2.13-2.8 1.93-2.8 1.77-2.76 1.6-2.78 1.45-2.77 1.3-2.78 1.2-2.8 1.04-2.82.92-2.85.8-2.9.14-.55zM779.98 681.5l1.02-.03.02 1.04-2 .05-.02-1.1zM1122.5 699.43l-9.2-1.1 6.3-13.62z" fill="#5e5e5e"/><path d="M1123.76 700.6l-11.94-1.45 8.18-17.65zm-8.97-3.1l6.46.77-2.03-10.34z" fill="#5e5e5e"/><use xlink:href="#c" transform="matrix(1,0,0,1,933.9986949041249,774.5426555008013) translate(0.004999999999999005 14.21875)"/><path d="M1420 640c0 22.1-17.9 40-40 40s-40-17.9-40-40 17.9-40 40-40 40 17.9 40 40z" stroke="#5e5e5e" stroke-width="3" fill="#fff"/><use xlink:href="#d" transform="matrix(1,0,0,1,1345,605) translate(29.66579861111111 40.46875)"/><path d="M1410 640c0 16.57-13.43 30-30 30s-30-13.43-30-30 13.43-30 30-30 30 13.43 30 30z" stroke="#5e5e5e" stroke-width="3" fill="#fff"/><use xlink:href="#e" transform="matrix(1,0,0,1,1355,615) translate(-1.6710069444444464 30.32986111111111)"/><path d="M1229.14 641h-66.64v-2h66.64zm90.86 0h-82.47v-2H1320z" fill="#5e5e5e"/><path d="M1162.53 641h-1.1l.07-.98-.03-1.02h1.06zM1335.26 640l-14.26 4.64v-9.28z" fill="#5e5e5e"/><path d="M1338.5 640l-18.5 6v-12zm-16.5 3.26l10.03-3.26-10.03-3.26z" fill="#5e5e5e"/><use xlink:href="#f" transform="matrix(1,0,0,1,1229.1378621924139,631.1111111111112) translate(0.004999999999999893 14.21875)"/><path d="M788.18 555.18l-1.64 5.06-1.44 5.13-1.22 5.2-1 5.33-.8 5.42-.6 5.56-.36 5.72-.1 4.9-2-.03.1-4.95.37-5.8.58-5.65.8-5.5 1.04-5.4 1.25-5.3 1.45-5.2 1.67-5.15 1.58-4.26H790zm303.64-137.56l23.37.98 22.74 1.9 21.8 2.76 20.54 3.47 19.17 4.07 17.7 4.54 16.2 4.9 14.78 5.14 13.42 5.3 12.15 5.4 11 5.47 9.94 5.46 9 5.46 8.15 5.4 7.38 5.38 6.7 5.3 6.1 5.27 5.54 5.2 5.05 5.16 4.6 5.1 4.2 5.08 3.8 5.03 3.5 5 3.17 5 2.88 5 2.6 5 2.38 5.02 2.12 5.04 1.9 5.1 1.66 5.13 1.46 5.22 1.24 5.28 1.03 5.4.65 4.33-1.98.3-.64-4.3-1-5.3-1.23-5.22-1.43-5.13-1.65-5.06-1.86-5.02-2.1-4.97-2.32-4.93-2.57-4.93-2.84-4.92-3.13-4.93-3.44-4.95-3.77-4.97-4.15-5-4.54-5.05-4.98-5.1-5.48-5.13-6.03-5.2-6.63-5.27-7.32-5.3-8.08-5.38-8.93-5.4-9.87-5.43-10.92-5.42-12.08-5.37-13.34-5.28-14.7-5.1-16.12-4.88-17.6-4.52-19.1-4.05-20.47-3.46-21.7-2.74-22.66-1.9-23.3-.98h-7.57v-2zm-16 0v2h-7.54l-23.3.97-22.66 1.9-21.7 2.73-20.48 3.46-19.1 4.04-17.6 4.52-16.14 4.87-14.7 5.1-13.34 5.28-12.08 5.4-10.92 5.4-9.88 5.43-8.93 5.4-8.1 5.37-7.3 5.32-6.65 5.26-6.03 5.2-5.48 5.15-5 5.1-4.54 5.04-4.14 5-3.78 4.97-3.43 4.94-3.12 4.93-1.2 2.08h-2.3l1.8-3.1 3.16-5 3.5-5.02 3.8-5.04 4.2-5.06 4.6-5.1 5.05-5.16 5.53-5.2 6.1-5.26 6.7-5.3 7.4-5.38 8.15-5.4 9-5.46 9.95-5.47 11-5.45 12.15-5.4 13.42-5.32 14.78-5.14 16.22-4.9 17.7-4.53 19.16-4.07 20.56-3.48 21.8-2.74 22.74-1.9 23.37-.98z" fill="#5e5e5e"/><path d="M781.02 597.5l-.02 1.06-.98-.06-1.02.03.02-1.08zM1379.78 595.27l-5.58-13.92 9.25-.63z" fill="#5e5e5e"/><path d="M1380 598.5l-7.24-18.06 12-.8zm-4.36-16.25l3.92 9.8 2.58-10.23z" fill="#5e5e5e"/><use xlink:href="#f" transform="matrix(1,0,0,1,1075.8058087754428,409.7329692896896) translate(0.004999999999999893 14.21875)"/><path d="M748.38 550.3l-2.5 2.55-1.77 2.42-1.24 2.33-.85 2.3-.32 1.3-.46 2.74-.22 3.42.2 4.4.86 5.88 2.08 8.03 4.02 10.75 4.64 9.46-1.8.88-4.68-9.54-4.1-10.94-2.12-8.24-.9-6.08-.2-4.62.23-3.63.5-2.93.37-1.45.93-2.54 1.38-2.58 1.96-2.64 1.27-1.3h2.8zm44.16 2l1.7 2.23 1.44 2.23 1.22 2.23 1.02 2.25.84 2.32.67 2.4.5 2.5.32 2.64.13 2.87-.1 3.1-.35 3.48-.73 3.98-1.23 4.72-.4 1.2-1.9-.66.38-1.13 1.2-4.58.7-3.83.35-3.32.08-2.97-.12-2.7-.3-2.5-.48-2.36-.63-2.24-.8-2.17-.94-2.12-1.14-2.1-1.36-2.1-1.6-2.12-1.94-2.18-1.16-1.12h2.84z" fill="#5e5e5e"/><path d="M753.24 606.78l-1.8.88-.44-.92 1.8-.9zM800.52 592.8l-9.7 11.42 1.13-14.95z" fill="#5e5e5e"/><path d="M802.18 592.4l-12.6 14.82 1.48-19.4zm-10.14 8.83l6.83-8.04-6.03-2.5z" fill="#5e5e5e"/><use xlink:href="#g" transform="matrix(1,0,0,1,734.830621195201,532.4790481083951) translate(0.005000000000002558 14.21875)"/><use xlink:href="#h" transform="matrix(1,0,0,1,734.830621195201,532.4790481083951) translate(21.34180555555556 14.21875)"/><use xlink:href="#i" transform="matrix(1,0,0,1,734.830621195201,532.4790481083951) translate(42.67861111111112 14.21875)"/><path d="M861.94 641H822.5v-2h39.44zm198.06 0h-50.98v-2H1060z" fill="#5e5e5e"/><path d="M822.53 641h-1.1l.07-.98-.04-1.02h1.07zM1075.26 640l-14.26 4.64v-9.28z" fill="#5e5e5e"/><path d="M1078.5 640l-18.5 6v-12zm-16.5 3.26l10.03-3.26-10.03-3.26z" fill="#5e5e5e"/><g><use xlink:href="#j" transform="matrix(1,0,0,1,861.9398346053933,631.1111111111112) translate(0.0049999999999954525 14.21875)"/></g><defs><path fill="#333" d="M157-1349h916v228H762v893h311V0H157v-228h311v-893H157v-228" id="k"/><path fill="#333" d="M768-1103c247 0 336 167 336 416V0H824v-619c-3-164-24-273-171-273-164 0-229 142-229 312V0H143c-4-359 9-736-8-1082h268c7 63 12 146 13 215h4c67-145 160-236 348-236" id="l"/><path fill="#333" d="M794-190h353V0H118v-190h395v-702H223v-190h571v892zM513-1277v-207h281v207H513" id="m"/><path fill="#333" d="M711 13c-250 0-386-99-385-349l2-556H161v-190h181l88-282h176v282h385v190H606v530c-10 130 45 186 174 184 91-2 176-11 255-27v186C933-1 833 13 711 13" id="n"/><g id="a"><use transform="matrix(0.008680555555555556,0,0,0.008680555555555556,0,0)" xlink:href="#k"/><use transform="matrix(0.008680555555555556,0,0,0.008680555555555556,10.668402777777779,0)" xlink:href="#l"/><use transform="matrix(0.008680555555555556,0,0,0.008680555555555556,21.336805555555557,0)" xlink:href="#m"/><use transform="matrix(0.008680555555555556,0,0,0.008680555555555556,32.005208333333336,0)" xlink:href="#n"/></g><path fill="#333" d="M135-968c34-256 187-402 480-402 217 0 371 75 441 220 45 93 40 219-8 308-114 212-348 323-508 488-38 39-66 80-85 123h654V0H123v-195c112-245 321-399 515-560 57-48 107-96 142-157 14-26 22-53 22-80-1-104-73-156-185-154-131 2-181 74-199 194" id="o"/><use transform="matrix(0.008680555555555556,0,0,0.008680555555555556,0,0)" xlink:href="#o" id="b"/><path fill="#333" d="M775-193C708-75 621 20 439 20 226 20 106-93 106-306c0-251 170-341 417-346l223-4c4-143-12-264-148-264-103 0-141 58-150 153l-293-14c37-219 194-321 455-321 263 0 418 130 417 390v392c1 84 5 161 89 160 21 0 42-2 62-6v152c-57 15-108 27-180 26-145 0-202-73-217-205h-6zm-256 17c168 0 234-139 227-325-166 4-347-25-347 173 0 94 33 152 120 152" id="p"/><path fill="#333" d="M726-569v408H500v-408H101v-224h399v-408h226v408h402v224H726" id="q"/><path fill="#333" d="M429-1484c1 190-1 388 0 572 54-116 155-191 317-191 300 0 386 257 386 563 0 241-73 429-226 518-49 28-106 42-169 42-162 0-251-81-306-196h-4c-1 59-5 127-15 176H140c4-67 9-153 8-236v-1248h281zm66 648c-93 114-92 466 1 585 35 45 77 79 142 79 64 0 112-31 148-92 69-115 68-440-2-561-39-68-131-111-221-70-25 11-46 32-68 59" id="r"/><g id="c"><use transform="matrix(0.008680555555555556,0,0,0.008680555555555556,0,0)" xlink:href="#p"/><use transform="matrix(0.008680555555555556,0,0,0.008680555555555556,10.668402777777779,0)" xlink:href="#q"/><use transform="matrix(0.008680555555555556,0,0,0.008680555555555556,21.336805555555557,0)" xlink:href="#r"/></g><path fill="#333" d="M1229 0H935l-92-330H387L295 0H0l443-1349h344zM615-1167c-46 213-110 412-166 615h332c-56-204-119-401-166-615" id="s"/><use transform="matrix(0.008680555555555556,0,0,0.008680555555555556,0,0)" xlink:href="#s" id="d"/><path fill="#333" d="M462-1121v384h621v228H462V0H167v-1349h939v228H462" id="t"/><path fill="#333" d="M794-190h353V0H118v-190h395v-1104H223v-190h571v1294" id="u"/><g id="e"><use transform="matrix(0.008680555555555556,0,0,0.008680555555555556,0,0)" xlink:href="#t"/><use transform="matrix(0.008680555555555556,0,0,0.008680555555555556,10.668402777777779,0)" xlink:href="#m"/><use transform="matrix(0.008680555555555556,0,0,0.008680555555555556,21.336805555555557,0)" xlink:href="#l"/><use transform="matrix(0.008680555555555556,0,0,0.008680555555555556,32.005208333333336,0)" xlink:href="#p"/><use transform="matrix(0.008680555555555556,0,0,0.008680555555555556,42.673611111111114,0)" xlink:href="#u"/></g><path fill="#333" d="M364-313c0 239 364 131 432 6l142 142C784 80 73 125 79-296c0-176 125-245 284-262-148-23-256-97-256-256 0-364 677-364 814-119L762-808c-51-131-387-176-387 6 0 148 171 154 330 148v182c-171-6-341-6-341 159" id="v"/><use transform="matrix(0.008680555555555556,0,0,0.008680555555555556,0,0)" xlink:href="#v" id="f"/><use transform="matrix(0.008680555555555556,0,0,0.008680555555555556,0,0)" xlink:href="#p" id="g"/><use transform="matrix(0.008680555555555556,0,0,0.008680555555555556,0,0)" xlink:href="#q" id="h"/><path fill="#333" d="M621-530c0 421 127 700 301 955H641C466 173 344-110 344-531s122-702 297-953h281c-174 254-301 534-301 954" id="w"/><path fill="#333" d="M885-531c0 421-122 704-297 956H307c174-255 301-534 301-955 0-420-127-700-301-954h281c175 251 297 532 297 953" id="x"/><g id="i"><use transform="matrix(0.008680555555555556,0,0,0.008680555555555556,0,0)" xlink:href="#w"/><use transform="matrix(0.008680555555555556,0,0,0.008680555555555556,10.668402777777779,0)" xlink:href="#r"/><use transform="matrix(0.008680555555555556,0,0,0.008680555555555556,21.336805555555557,0)" xlink:href="#p"/><use transform="matrix(0.008680555555555556,0,0,0.008680555555555556,32.005208333333336,0)" xlink:href="#x"/></g><g id="j"><use transform="matrix(0.008680555555555556,0,0,0.008680555555555556,0,0)" xlink:href="#w"/><use transform="matrix(0.008680555555555556,0,0,0.008680555555555556,10.668402777777779,0)" xlink:href="#r"/><use transform="matrix(0.008680555555555556,0,0,0.008680555555555556,21.336805555555557,0)" xlink:href="#q"/><use transform="matrix(0.008680555555555556,0,0,0.008680555555555556,32.005208333333336,0)" xlink:href="#v"/><use transform="matrix(0.008680555555555556,0,0,0.008680555555555556,40.39930555555556,0)" xlink:href="#x"/><use transform="matrix(0.008680555555555556,0,0,0.008680555555555556,51.067708333333336,0)" xlink:href="#q"/><use transform="matrix(0.008680555555555556,0,0,0.008680555555555556,61.736111111111114,0)" xlink:href="#w"/><use transform="matrix(0.008680555555555556,0,0,0.008680555555555556,72.40451388888889,0)" xlink:href="#r"/><use transform="matrix(0.008680555555555556,0,0,0.008680555555555556,83.07291666666666,0)" xlink:href="#w"/><use transform="matrix(0.008680555555555556,0,0,0.008680555555555556,93.74131944444443,0)" xlink:href="#p"/><use transform="matrix(0.008680555555555556,0,0,0.008680555555555556,104.4097222222222,0)" xlink:href="#q"/><use transform="matrix(0.008680555555555556,0,0,0.008680555555555556,115.07812499999997,0)" xlink:href="#r"/><use transform="matrix(0.008680555555555556,0,0,0.008680555555555556,125.74652777777774,0)" xlink:href="#x"/><use transform="matrix(0.008680555555555556,0,0,0.008680555555555556,136.41493055555551,0)" xlink:href="#x"/></g></defs></g></svg>