<svg xmlns="http://www.w3.org/2000/svg" xmlns:xlink="http://www.w3.org/1999/xlink" xmlns:lucid="lucid" width="789.44" height="931"><g transform="translate(-250.56226376024426 30.998222531808437)" lucid:page-tab-id="0_0"><path d="M700 140c0 22.1-17.9 40-40 40s-40-17.9-40-40 17.9-40 40-40 40 17.9 40 40z" stroke="#5e5e5e" stroke-width="3" fill="#fff"/><use xlink:href="#a" transform="matrix(1,0,0,1,625,105) translate(14.996744791666668 41.8359375)"/><path d="M520 300c0 22.1-17.9 40-40 40s-40-17.9-40-40 17.9-40 40-40 40 17.9 40 40z" stroke="#5e5e5e" stroke-width="3" fill="#fff"/><use xlink:href="#b" transform="matrix(1,0,0,1,445,265) translate(14.996744791666668 41.8359375)"/><path d="M880 300c0 22.1-17.9 40-40 40s-40-17.9-40-40 17.9-40 40-40 40 17.9 40 40z" stroke="#5e5e5e" stroke-width="3" fill="#fff"/><use xlink:href="#c" transform="matrix(1,0,0,1,805,265) translate(14.996744791666668 41.8359375)"/><path d="M361.5 480c0 22.1-17.9 40-40 40s-40-17.9-40-40 17.9-40 40-40 40 17.9 40 40z" stroke="#5e5e5e" stroke-width="3" fill="#fff"/><use xlink:href="#d" transform="matrix(1,0,0,1,286.50093557953255,445) translate(14.996744791666668 41.8359375)"/><path d="M641.5 480c0 22.1-17.9 40-40 40s-40-17.9-40-40 17.9-40 40-40 40 17.9 40 40z" stroke="#5e5e5e" stroke-width="3" fill="#fff"/><use xlink:href="#e" transform="matrix(1,0,0,1,566.5009355795326,445) translate(14.996744791666668 41.8359375)"/><path d="M760 480c0 22.1-17.9 40-40 40s-40-17.9-40-40 17.9-40 40-40 40 17.9 40 40z" stroke="#5e5e5e" stroke-width="3" fill="#fff"/><use xlink:href="#f" transform="matrix(1,0,0,1,685,445) translate(14.996744791666668 41.8359375)"/><path d="M1020 480c0 22.1-17.9 40-40 40s-40-17.9-40-40 17.9-40 40-40 40 17.9 40 40z" stroke="#5e5e5e" stroke-width="3" fill="#fff"/><use xlink:href="#g" transform="matrix(1,0,0,1,945,445) translate(14.996744791666668 41.8359375)"/><path d="M641.5 660c0 22.1-17.9 40-40 40s-40-17.9-40-40 17.9-40 40-40 40 17.9 40 40z" stroke="#5e5e5e" stroke-width="3" fill="#fff"/><use xlink:href="#h" transform="matrix(1,0,0,1,566.5009355795326,625) translate(14.996744791666668 41.8359375)"/><path d="M1020 660c0 22.1-17.9 40-40 40s-40-17.9-40-40 17.9-40 40-40 40 17.9 40 40z" stroke="#5e5e5e" stroke-width="3" fill="#fff"/><use xlink:href="#i" transform="matrix(1,0,0,1,945,625) translate(14.996744791666668 41.8359375)"/><path d="M641.5 840c0 22.1-17.9 40-40 40s-40-17.9-40-40 17.9-40 40-40 40 17.9 40 40z" stroke="#5e5e5e" stroke-width="3" fill="#fff"/><use xlink:href="#j" transform="matrix(1,0,0,1,566.5009355795326,805) translate(14.996744791666668 41.8359375)"/><path d="M1020 840c0 22.1-17.9 40-40 40s-40-17.9-40-40 17.9-40 40-40 40 17.9 40 40z" stroke="#5e5e5e" stroke-width="3" fill="#fff"/><use xlink:href="#k" transform="matrix(1,0,0,1,945,805) translate(14.996744791666668 41.8359375)"/><path d="M603.9 113.83l-1.54 4.62-.74 3.74-.18 2.95.16 2.36.38 1.93.55 1.6.68 1.37.82 1.2.95 1.1 1.14.98 1.38.9 1.7.85 2.2.74 2.96.57 3.22.2-.12 2-3.36-.2-3.2-.64-2.45-.82-1.94-.95-1.6-1.06-1.34-1.16-1.13-1.27-.95-1.42-.8-1.6-.63-1.85-.44-2.18-.17-2.62.2-3.22.8-4 1.4-4.2h2.12zm27.6-25.55l.32.06-.37 1.96-.2-.03-1.52-.1-1.7.14-1.96.42-2.3.8-2.7 1.38-3.27 2.22-.94.85h-3l2.7-2.43 3.48-2.36 2.96-1.5 2.53-.9 2.2-.45 1.98-.15z" fill="#5e5e5e"/><path d="M618.56 139l-.06.98.03 1.02-1.12-.06.14-2zM641.9 99.42l-13.4-6.7 6.5-6.6z" fill="#5e5e5e"/><path d="M644.2 101.7L626.8 93l8.44-8.57zm-14.04-9.26l9.44 4.7-4.86-9.35z" fill="#5e5e5e"/><use xlink:href="#l" transform="matrix(1,0,0,1,597.0430331253331,95.9667369925624) translate(0.005000000000000782 14.21875)"/><path d="M428.16 269.67l-3.56 5.92-1.97 4.4-1 3.25-.45 2.47-.12 1.93.1 1.56.24 1.32.36 1.12.45 1 .56.9.66.84.8.8 1 .78 1.27.76 1.65.74 2.26.7 3.22.57 3.93.22-.1 2-4.06-.23-3.47-.62-2.48-.77-1.88-.84-1.48-.9-1.2-.92-.98-.97-.8-1.02-.68-1.1-.55-1.23-.44-1.35-.3-1.54-.1-1.8.13-2.17.48-2.72 1.07-3.5 2.07-4.62 3.7-6.13 1.77-2.3h2.52zm41.1-30.52l1.58.27 1.37.4 1.23.55.97.56-1.02 1.73-.86-.5-1-.45-1.14-.33-1.33-.23-1.6-.08-1.98.15-2.54.5-3.37 1.1-4.56 2.1-6.1 3.8-.88.7v-.94h-2.04l1.76-1.4 6.3-3.9 4.8-2.23 3.6-1.17 2.77-.54 2.23-.16z" fill="#5e5e5e"/><path d="M438.56 299l-.06.98.03 1.02-1.1-.06.1-2zM478.9 255.46l-9.27-11.8 8.7-3.2z" fill="#5e5e5e"/><path d="M480 258.5l-12-15.3 11.3-4.14zm-8.73-14.38l6.5 8.3-.38-10.54z" fill="#5e5e5e"/><use xlink:href="#l" transform="matrix(1,0,0,1,426.6861786955249,248.46314661424177) translate(0.005000000000000782 14.21875)"/><path d="M793.8 259.85h2.5l-2.4 2.43-5.74 7.4-3.56 5.9-1.97 4.4-1 3.27-.45 2.47-.12 1.93.1 1.56.24 1.32.36 1.12.45 1 .56.9.66.84.8.8 1 .78 1.27.76 1.65.74 2.26.7 3.22.57 3.93.22-.1 2-4.06-.23-3.47-.62-2.48-.77-1.88-.84-1.48-.9-1.2-.92-.98-.97-.8-1.02-.68-1.1-.55-1.23-.44-1.35-.3-1.54-.1-1.8.13-2.17.48-2.72 1.07-3.5 2.07-4.62 3.7-6.13 5.87-7.57 1.4-1.4zm35.47-20.7l1.57.27 1.37.4 1.23.55.97.56-1.02 1.73-.86-.5-1-.45-1.14-.33-1.33-.23-1.6-.08-1.98.15-2.54.5-3.37 1.1-4.44 2.05v-2.2l3.7-1.72 3.6-1.17 2.8-.54 2.2-.16z" fill="#5e5e5e"/><path d="M798.56 299l-.06.98.03 1.02-1.1-.06.1-2zM838.9 255.46l-9.27-11.8 8.7-3.2z" fill="#5e5e5e"/><path d="M840 258.5l-12-15.3 11.3-4.14zm-8.73-14.38l6.5 8.3-.38-10.54z" fill="#5e5e5e"/><use xlink:href="#l" transform="matrix(1,0,0,1,793.7856937090369,242.06887004348934) translate(0.005000000000000782 14.21875)"/><path d="M269.66 449.67l-3.56 5.92-1.97 4.4-1 3.25-.45 2.47-.12 1.93.1 1.56.24 1.32.36 1.12.45 1 .56.9.66.84.8.8 1 .78 1.28.76 1.65.74 2.26.7 3.22.57 3.94.22-.12 2-4.05-.23-3.47-.62-2.48-.77-1.88-.84-1.47-.9-1.2-.92-.97-.97-.82-1.02-.66-1.1-.55-1.23-.44-1.35-.3-1.54-.1-1.8.13-2.17.48-2.72 1.08-3.5 2.06-4.62 3.7-6.13 1.77-2.3h2.52zm41.1-30.52l1.58.27 1.37.4 1.24.55.96.56-1.02 1.73-.86-.5-1-.45-1.14-.33-1.33-.23-1.6-.08-1.98.15-2.54.5-3.37 1.1-4.56 2.1-6.1 3.8-.88.7v-.94h-2.04l1.76-1.4 6.3-3.9 4.8-2.23 3.6-1.17 2.77-.54 2.23-.16z" fill="#5e5e5e"/><path d="M280.06 479l-.06.98.04 1.02-1.12-.06.1-2zM320.4 435.46l-9.27-11.8 8.7-3.2z" fill="#5e5e5e"/><path d="M321.5 438.5l-12-15.3 11.3-4.14zm-8.73-14.38l6.5 8.3-.38-10.54z" fill="#5e5e5e"/><use xlink:href="#l" transform="matrix(1,0,0,1,268.1871142750574,428.46314661424174) translate(0.005000000000000782 14.21875)"/><path d="M660-19v99M660-18.97V-20" stroke="#5e5e5e" stroke-width="2" fill="none"/><path d="M660 95.26L655.36 81h9.28z" stroke="#5e5e5e" stroke-width="2" fill="#5e5e5e"/><path d="M563.78 233.55h.2l-29.57 21.58-8.07 6.75-1.28-1.53 8.13-6.8 30.6-22.34zm69.36-60.7l-6.7 7.88-7.26 7.8-7.36 7.3-7.84 7.12-8.98 7.5-9.9 7.57v-2.25h-.34l9-6.87 8.9-7.46 7.78-7.07 7.3-7.23 7.2-7.74 6.68-7.83z" fill="#5e5e5e"/><path d="M633.8 172.1l-.68.78-1.52-1.3.66-.76zM528.03 265.24l-13.74 6.02 7.56-12.94z" fill="#5e5e5e"/><path d="M529.7 265.6l-17.83 7.8 9.83-16.78zm-13 3.5l9.66-4.22-4.33-4.87z" fill="#5e5e5e"/><use xlink:href="#m" transform="matrix(1,0,0,1,563.7759700719822,215.77162371141088) translate(0.005000000000000782 14.21875)"/><path d="M747.02 238.58l6.08 6.74 5.42 5.5 5.17 4.78 5.1 4.34 5.24 4.05 5.45 3.83 5.8 3.72 1.55.9-1 1.73-1.6-.92-5.88-3.77-5.52-3.9-5.3-4.1-5.2-4.4-5.22-4.85-5.48-5.56-6.16-6.84-7.37-9.5h2.53zm-46.7-59.4l11.27 13.67 15.28 19.74h-2.53l-14.32-18.5-11.23-13.62-9.17-10.14 1.48-1.35z" fill="#5e5e5e"/><path d="M691.13 169l-1.48 1.35-.68-.74 1.4-1.32zM799.85 280.43l-14.8-2.55 4.33-8.2z" fill="#5e5e5e"/><path d="M802.7 281.93l-19.16-3.3 5.6-10.64zm-16.1-4.8l10.38 1.8-7.35-7.57z" fill="#5e5e5e"/><use xlink:href="#n" transform="matrix(1,0,0,1,721.8360529570132,212.58734199299303) translate(0.005000000000000782 14.21875)"/><path d="M390.86 406.93L386.2 414l-4.74 6.57-5.28 6.7-6.2 7.22-4.46 4.76-1.46-1.36 4.43-4.74 6.14-7.17 5.22-6.63 4.7-6.5 4.6-7 4.5-7.8h2.3zm57.43-78.74l-9.14 8.98-7.6 8.13-6.15 7.18-5.2 6.62-4.7 6.5-4.6 7-4.62 7.7h-2.33l5.24-8.76 4.65-7.07 4.74-6.57 5.27-6.7 6.2-7.22 7.66-8.2 9.16-9.02z" fill="#5e5e5e"/><path d="M448.13 326.6l.87.9-.72.7-1.4-1.42.8-.8zM367.37 442.56l-13.34 6.84 6.77-13.38z" fill="#5e5e5e"/><path d="M369.06 442.82l-17.32 8.88 8.8-17.36zm-12.75 4.3l9.4-4.82-4.63-4.6z" fill="#5e5e5e"/><use xlink:href="#o" transform="matrix(1,0,0,1,389.2810081943315,380.3026452028098) translate(0.005000000000000782 14.21875)"/><path d="M559.7 416.7l6 10.57 2.06 3.27-1.7 1.07-2.07-3.3-6.06-10.66-10.56-21.03h2.23zm-46.28-79.04l5.33 6.42 4.87 6.43 4.62 6.7 4.62 7.35 5.08 8.94 2.7 5.33h-2.24l-2.23-4.4-5.03-8.86-4.57-7.26-4.57-6.6-4.82-6.38-5.27-6.36-5.25-5.8 1.5-1.35z" fill="#5e5e5e"/><path d="M508.15 331.83l-1.48 1.35-.74-.83.66-.48.85-.82zM575.4 443.76l-11.78-9.28 7.7-5.15z" fill="#5e5e5e"/><path d="M577.2 446.45l-15.28-12.04 10-6.67zm-11.88-11.9l8.28 6.52-2.86-10.15z" fill="#5e5e5e"/><use xlink:href="#n" transform="matrix(1,0,0,1,533.3455911970111,378.8322064275031) translate(0.005000000000000782 14.21875)"/><path d="M424.63 640.78l11.48 3.46 13.03 3.34 14.83 3.15 16.92 2.85 19.3 2.43 21.93 1.84 19.44.8-.08 2-19.48-.8-22-1.84-19.4-2.44-17-2.87-14.9-3.17-13.1-3.36-11.57-3.5-4.64-1.6v-2.12zm-102-113.52l.33 5.44.54 5.16.73 4.92.9 4.7 1.06 4.53 1.2 4.37 1.38 4.22 1.52 4.08 1.67 3.98 1.83 3.9 2 3.8 2.15 3.73 2.33 3.67 2.53 3.63 2.73 3.6 2.96 3.56 3.18 3.55 3.46 3.54 3.76 3.53 4.1 3.53 4.45 3.53 4.88 3.55 5.36 3.55 5.9 3.58 6.5 3.6 7.25 3.58.67.3v2.2l-1.52-.7-7.3-3.62-6.6-3.62-5.98-3.62-5.43-3.6-4.96-3.6-4.53-3.58-4.14-3.58-3.82-3.6-3.52-3.58-3.25-3.6-3-3.64-2.78-3.66-2.6-3.7-2.37-3.75-2.2-3.8-2.02-3.9-1.86-3.96-1.7-4.05-1.55-4.17-1.4-4.3-1.25-4.44-1.08-4.6-.9-4.8-.75-5-.55-5.24-.35-5.52-.1-4.82 2-.04z" fill="#5e5e5e"/><path d="M321.48 521.5l1.02-.03.02 1.04-2 .05-.02-1.1zM556.76 659.94l-14.35 4.36.2-9.27z" fill="#5e5e5e"/><path d="M560 660l-18.6 5.66.22-12.03zm-16.56 2.94l10.1-3.06-9.98-3.45z" fill="#5e5e5e"/><use xlink:href="#n" transform="matrix(1,0,0,1,398.02495867900564,627.1498711853812) translate(0.005000000000000782 14.21875)"/><path d="M602.5 600h-2v-21.1h2zm0-38.9h-2v-38.6h2z" fill="#5e5e5e"/><path d="M601.48 521.5l1.02-.03v1.06h-2v-1.1zM601.5 615.26L596.87 601h9.27z" fill="#5e5e5e"/><path d="M601.5 618.5l-6-18.5h12zm-3.26-16.5l3.26 10.03 3.26-10.03z" fill="#5e5e5e"/><use xlink:href="#o" transform="matrix(1,0,0,1,590.8325328017547,561.1118385898026) translate(0.005000000000000782 14.21875)"/><path d="M602.5 780h-2v-21.1h2zm0-38.9h-2v-38.6h2z" fill="#5e5e5e"/><path d="M601.48 701.5l1.02-.03v1.06h-2v-1.1zM601.5 795.26L596.87 781h9.27z" fill="#5e5e5e"/><path d="M601.5 798.5l-6-18.5h12zm-3.26-16.5l3.26 10.03 3.26-10.03z" fill="#5e5e5e"/><use xlink:href="#o" transform="matrix(1,0,0,1,590.8325328017547,741.1118385898026) translate(0.005000000000000782 14.21875)"/><path d="M769.35 422.88l-9.06 12.6-1.64-1.18 9.02-12.52 15.1-25.2h2.32zm50.96-85.17l-24.57 41.1h-2.33l25.2-42.1z" fill="#5e5e5e"/><path d="M820.13 336.45l.73.34-.56.94-1.72-1.03.54-.9zM762.5 438.53l-12.42 8.4 5.13-14.1z" fill="#5e5e5e"/><path d="M764.2 438.58l-16.1 10.9 6.64-18.3zm-12.13 5.8l8.74-5.9-5.12-4.02z" fill="#5e5e5e"/><use xlink:href="#o" transform="matrix(1,0,0,1,778.5812705596442,378.7888992204278) translate(0.005000000000000782 14.21875)"/><path d="M902.78 405.85l3.36 7.13 2.82 5.4 2.6 4.5 2.54 4 2.5 3.6 2.55 3.32 2.6 3.14 2.7 3 2.84 2.88 3 2.8.5.46-1.3 1.5-.55-.46-3.06-2.87-2.9-2.94-2.76-3.05-2.66-3.2-2.6-3.4-2.54-3.68-2.58-4.04-2.65-4.6-2.86-5.46-3.4-7.2-7.3-17.86h2.17zM870.8 337.4l3.8 6 3.76 6.47 3.83 7.3 4.23 9.02 2.02 4.84h-2.17L884.6 367l-4.2-8.93-3.8-7.23-3.7-6.4-3.77-5.94-3.36-4.82 1.64-1.14z" fill="#5e5e5e"/><path d="M867.43 332.56l-1.64 1.14-.6-.82 1.4-1 .2-.22zM942.4 455.93l-14.23-4.8 5.53-7.43z" fill="#5e5e5e"/><path d="M945 457.86l-18.45-6.2 7.17-9.66zm-15.2-7.23l10 3.37-6.12-8.6z" fill="#5e5e5e"/><use xlink:href="#n" transform="matrix(1,0,0,1,880.4049874658639,371.0353545408724) translate(0.005000000000000782 14.21875)"/><path d="M981 600h-2v-27.74h2zm0-45.52h-2V522.5h2z" fill="#5e5e5e"/><path d="M979.98 521.5l1.02-.03v1.06h-2v-1.1zM980 615.26L975.36 601h9.28z" fill="#5e5e5e"/><path d="M980 618.5l-6-18.5h12zm-3.26-16.5l3.26 10.03 3.26-10.03z" fill="#5e5e5e"/><use xlink:href="#o" transform="matrix(1,0,0,1,969.3315972222223,554.4790309794366) translate(0.005000000000000782 14.21875)"/><path d="M981 780h-2v-21.1h2zm0-38.9h-2v-38.6h2z" fill="#5e5e5e"/><path d="M979.98 701.5l1.02-.03v1.06h-2v-1.1zM980 795.26L975.36 781h9.28z" fill="#5e5e5e"/><path d="M980 798.5l-6-18.5h12zm-3.26-16.5l3.26 10.03 3.26-10.03z" fill="#5e5e5e"/><use xlink:href="#o" transform="matrix(1,0,0,1,969.3315972222222,741.1118385898026) translate(0.005000000000000782 14.21875)"/><path d="M631.5 840c0 16.57-13.43 30-30 30s-30-13.43-30-30 13.43-30 30-30 30 13.43 30 30z" stroke="#5e5e5e" stroke-width="3" fill="#fff"/><use xlink:href="#j" transform="matrix(1,0,0,1,576.5009355795326,815) translate(4.996744791666668 30.2734375)"/><path d="M1010 840c0 16.57-13.43 30-30 30s-30-13.43-30-30 13.43-30 30-30 30 13.43 30 30z" stroke="#5e5e5e" stroke-width="3" fill="#fff"/><use xlink:href="#k" transform="matrix(1,0,0,1,955,815) translate(4.996744791666668 30.2734375)"/><defs><path fill="#333" d="M611-1370c266 0 451 106 451 368 0 147-77 243-154 327-132 144-316 255-451 395-42 44-75 87-96 134h723V0H144v-117c124-264 387-411 582-603 73-72 151-147 151-271 0-161-104-231-266-231-163 0-249 90-268 238l-184-17c35-233 185-369 452-369" id="p"/><path fill="#333" d="M148-1120c216-7 379-89 463-229h166v1204h353V0H157v-145h439v-1021c-79 124-254 184-448 194v-148" id="q"/><path fill="#333" d="M1065-1013c47 164 49 500-1 665C999-130 875 20 611 20c-377 0-484-300-487-695-2-245 41-425 141-551 77-98 191-144 352-144 261 0 386 140 448 357zM741-155c199-92 203-504 159-785-26-168-96-284-283-284-281 0-308 256-311 549-2 181 18 324 80 428 46 77 115 118 227 120 47 0 90-10 128-28zM496-555v-249h235v249H496" id="r"/><g id="a"><use transform="matrix(0.010850694444444444,0,0,0.010850694444444444,0,0)" xlink:href="#p"/><use transform="matrix(0.010850694444444444,0,0,0.010850694444444444,13.335503472222221,0)" xlink:href="#q"/><use transform="matrix(0.010850694444444444,0,0,0.010850694444444444,26.671006944444443,0)" xlink:href="#r"/></g><g id="b"><use transform="matrix(0.010850694444444444,0,0,0.010850694444444444,0,0)" xlink:href="#q"/><use transform="matrix(0.010850694444444444,0,0,0.010850694444444444,13.335503472222221,0)" xlink:href="#r"/><use transform="matrix(0.010850694444444444,0,0,0.010850694444444444,26.671006944444443,0)" xlink:href="#q"/></g><g id="c"><use transform="matrix(0.010850694444444444,0,0,0.010850694444444444,0,0)" xlink:href="#q"/><use transform="matrix(0.010850694444444444,0,0,0.010850694444444444,13.335503472222221,0)" xlink:href="#q"/><use transform="matrix(0.010850694444444444,0,0,0.010850694444444444,26.671006944444443,0)" xlink:href="#q"/></g><g id="d"><use transform="matrix(0.010850694444444444,0,0,0.010850694444444444,0,0)" xlink:href="#q"/><use transform="matrix(0.010850694444444444,0,0,0.010850694444444444,13.335503472222221,0)" xlink:href="#q"/><use transform="matrix(0.010850694444444444,0,0,0.010850694444444444,26.671006944444443,0)" xlink:href="#r"/></g><g id="e"><use transform="matrix(0.010850694444444444,0,0,0.010850694444444444,0,0)" xlink:href="#r"/><use transform="matrix(0.010850694444444444,0,0,0.010850694444444444,13.335503472222221,0)" xlink:href="#r"/><use transform="matrix(0.010850694444444444,0,0,0.010850694444444444,26.671006944444443,0)" xlink:href="#p"/></g><g id="f"><use transform="matrix(0.010850694444444444,0,0,0.010850694444444444,0,0)" xlink:href="#r"/><use transform="matrix(0.010850694444444444,0,0,0.010850694444444444,13.335503472222221,0)" xlink:href="#q"/><use transform="matrix(0.010850694444444444,0,0,0.010850694444444444,26.671006944444443,0)" xlink:href="#r"/></g><g id="g"><use transform="matrix(0.010850694444444444,0,0,0.010850694444444444,0,0)" xlink:href="#r"/><use transform="matrix(0.010850694444444444,0,0,0.010850694444444444,13.335503472222221,0)" xlink:href="#q"/><use transform="matrix(0.010850694444444444,0,0,0.010850694444444444,26.671006944444443,0)" xlink:href="#p"/></g><g id="h"><use transform="matrix(0.010850694444444444,0,0,0.010850694444444444,0,0)" xlink:href="#r"/><use transform="matrix(0.010850694444444444,0,0,0.010850694444444444,13.335503472222221,0)" xlink:href="#q"/><use transform="matrix(0.010850694444444444,0,0,0.010850694444444444,26.671006944444443,0)" xlink:href="#q"/></g><g id="i"><use transform="matrix(0.010850694444444444,0,0,0.010850694444444444,0,0)" xlink:href="#r"/><use transform="matrix(0.010850694444444444,0,0,0.010850694444444444,13.335503472222221,0)" xlink:href="#p"/><use transform="matrix(0.010850694444444444,0,0,0.010850694444444444,26.671006944444443,0)" xlink:href="#q"/></g><g id="j"><use transform="matrix(0.010850694444444444,0,0,0.010850694444444444,0,0)" xlink:href="#r"/><use transform="matrix(0.010850694444444444,0,0,0.010850694444444444,13.335503472222221,0)" xlink:href="#p"/><use transform="matrix(0.010850694444444444,0,0,0.010850694444444444,26.671006944444443,0)" xlink:href="#r"/></g><path fill="#333" d="M1060-1016c0 191-128 285-295 323v4c154 18 262 91 313 209 14 35 21 72 21 110 0 277-194 390-478 390-292 0-457-129-493-382l186-17c24 161 121 250 307 250 172 1 298-80 291-247-8-208-220-239-446-233v-156c217 9 409-34 409-232 0-152-102-225-264-225-159 0-264 88-278 233l-181-14c33-239 196-367 461-367 264 0 447 102 447 354" id="s"/><g id="k"><use transform="matrix(0.010850694444444444,0,0,0.010850694444444444,0,0)" xlink:href="#r"/><use transform="matrix(0.010850694444444444,0,0,0.010850694444444444,13.335503472222221,0)" xlink:href="#s"/><use transform="matrix(0.010850694444444444,0,0,0.010850694444444444,26.671006944444443,0)" xlink:href="#r"/></g><path fill="#333" d="M711 13c-250 0-386-99-385-349l2-556H161v-190h181l88-282h176v282h385v190H606v530c-10 130 45 186 174 184 91-2 176-11 255-27v186C933-1 833 13 711 13" id="t"/><path fill="#333" d="M138-1120c207-4 339-93 415-229h266v1140h323V0H149v-209h389v-891c-70 121-216 187-400 194v-214" id="u"/><g id="l"><use transform="matrix(0.008680555555555556,0,0,0.008680555555555556,0,0)" xlink:href="#t"/><use transform="matrix(0.008680555555555556,0,0,0.008680555555555556,10.668402777777779,0)" xlink:href="#u"/></g><path fill="#333" d="M788-691c191 26 337 112 337 315 0 286-214 399-510 399-306 0-483-128-522-391l286-25c18 124 91 190 235 188 132-2 223-58 223-188 0-176-191-182-378-179v-227c176 5 345-9 345-176 0-115-82-171-200-171s-198 55-206 169l-281-20c34-252 213-373 492-373 224 0 381 74 451 224 20 43 29 89 29 136 0 195-130 279-301 315v4" id="v"/><g id="m"><use transform="matrix(0.008680555555555556,0,0,0.008680555555555556,0,0)" xlink:href="#t"/><use transform="matrix(0.008680555555555556,0,0,0.008680555555555556,10.668402777777779,0)" xlink:href="#v"/></g><path fill="#333" d="M135-968c34-256 187-402 480-402 217 0 371 75 441 220 45 93 40 219-8 308-114 212-348 323-508 488-38 39-66 80-85 123h654V0H123v-195c112-245 321-399 515-560 57-48 107-96 142-157 14-26 22-53 22-80-1-104-73-156-185-154-131 2-181 74-199 194" id="w"/><g id="n"><use transform="matrix(0.008680555555555556,0,0,0.008680555555555556,0,0)" xlink:href="#t"/><use transform="matrix(0.008680555555555556,0,0,0.008680555555555556,10.668402777777779,0)" xlink:href="#w"/></g><path fill="#333" d="M980-287V0H712v-287H71v-211l595-851h314v853h188v209H980zM712-496c2-204-7-417 9-609-118 224-277 405-414 609h405" id="x"/><g id="o"><use transform="matrix(0.008680555555555556,0,0,0.008680555555555556,0,0)" xlink:href="#t"/><use transform="matrix(0.008680555555555556,0,0,0.008680555555555556,10.668402777777779,0)" xlink:href="#x"/></g></defs></g></svg>