<svg xmlns="http://www.w3.org/2000/svg" xmlns:xlink="http://www.w3.org/1999/xlink" xmlns:lucid="lucid" width="1251" height="512.51"><g transform="translate(-189.00147747119158 -344.7703832363839)" lucid:page-tab-id="0_0"><path d="M380 640c0 22.1-17.9 40-40 40s-40-17.9-40-40 17.9-40 40-40 40 17.9 40 40z" stroke="#5e5e5e" stroke-width="3" fill="#fff"/><use xlink:href="#a" transform="matrix(1,0,0,1,305,605) translate(13.663194444444443 40.46875)"/><path d="M900 640c0 22.1-17.9 40-40 40s-40-17.9-40-40 17.9-40 40-40 40 17.9 40 40z" stroke="#5e5e5e" stroke-width="3" fill="#fff"/><use xlink:href="#b" transform="matrix(1,0,0,1,825,605) translate(29.66579861111111 40.46875)"/><path d="M640 640c0 22.1-17.9 40-40 40s-40-17.9-40-40 17.9-40 40-40 40 17.9 40 40z" stroke="#5e5e5e" stroke-width="3" fill="#fff"/><use xlink:href="#c" transform="matrix(1,0,0,1,565,605) translate(29.66579861111111 40.46875)"/><path d="M449.14 641H382.5v-2h66.64zm90.86 0h-82.47v-2H540z" fill="#5e5e5e"/><path d="M382.53 641h-1.1l.07-.98-.03-1.02h1.06zM555.26 640L541 644.64v-9.28z" fill="#5e5e5e"/><path d="M558.5 640l-18.5 6v-12zm-16.5 3.26l10.03-3.26-10.03-3.26z" fill="#5e5e5e"/><use xlink:href="#d" transform="matrix(1,0,0,1,449.13628472222223,631.1111111111112) translate(0.004999999999999893 14.21875)"/><path d="M1160 640c0 22.1-17.9 40-40 40s-40-17.9-40-40 17.9-40 40-40 40 17.9 40 40z" stroke="#5e5e5e" stroke-width="3" fill="#fff"/><use xlink:href="#e" transform="matrix(1,0,0,1,1085,605) translate(29.66579861111111 40.46875)"/><path d="M201 640h79M201.03 640H200" stroke="#5e5e5e" stroke-width="2" fill="none"/><path d="M295.26 640L281 644.64v-9.28z" stroke="#5e5e5e" stroke-width="2" fill="#5e5e5e"/><path d="M710.76 587.53l-1.9.2-5.72.86-5.7 1.08-5.73 1.36-5.76 1.6-5.83 1.92-5.9 2.2-6.02 2.54-6.15 2.9-6.3 3.32-6.5 3.76-6.72 4.27-6.16 4.3-1.14-1.64 6.2-4.3 6.8-4.33 6.55-3.8 6.38-3.35 6.23-2.94 6.1-2.57 6-2.23 5.9-1.93 5.85-1.64 5.82-1.37 5.8-1.1 5.78-.88 2.16-.23zm21.43-2.78l6.1.38 6.25.65 6.4.93 6.6 1.27 6.82 1.6 7.08 1.96 7.38 2.4 7.73 2.85 8.13 3.4 8.6 4.05 6.27 3.27-.92 1.78-6.25-3.26-8.52-4-8.06-3.38-7.64-2.83-7.3-2.36-7-1.94-6.74-1.58-6.5-1.23-6.34-.94-6.16-.64-6.03-.37-5.9-.12-4.77.1v-2l4.76-.1zM636.36 617.84l-.92.64-.5-.87-.58-.8.86-.6zM822.34 616l-14.68-3.1 4.62-8.03z" fill="#5e5e5e"/><path d="M825.15 617.6l-19.04-4 6-10.43zm-15.94-5.4l10.33 2.18-7.07-7.82z" fill="#5e5e5e"/><use xlink:href="#f" transform="matrix(1,0,0,1,710.7637543043518,577.1406672713346) translate(0.004999999999999893 14.21875)"/><path d="M824.2 662.94l-10.4 5.57-10.2 4.95-9.36 4.05-8.7 3.34-8.13 2.74-7.68 2.23-7.33 1.8-7.05 1.43-6.8 1.08-6.6.77-6.46.48-6.36.2-4.57-.05v-2l4.55.04 6.27-.2 6.36-.46 6.53-.75 6.7-1.07 6.95-1.4 7.25-1.78 7.62-2.2 8.06-2.72 8.6-3.3 9.3-4.03 10.12-4.9 10.35-5.55zm-167.1 9.56l7.5 3.43 7.17 2.93 6.9 2.48 6.65 2.1 6.5 1.73 6.34 1.43 6.25 1.12 6.2.85 3.3.3v2.02l-3.53-.34-6.27-.86-6.34-1.14-6.43-1.44-6.57-1.77-6.74-2.1-6.96-2.52-7.24-2.96-7.58-3.47-5.25-2.68.9-1.78z" fill="#5e5e5e"/><path d="M825.05 662.4l-.88.56-.95-1.77.9-.5zM652.87 666.2l-4.58 8.07-10.12-11.08z" fill="#5e5e5e"/><path d="M654.42 665.5l-5.94 10.46-13.12-14.37zm-6.32 7.08l3.22-5.67-10.33-2.1z" fill="#5e5e5e"/><use xlink:href="#g" transform="matrix(1,0,0,1,713.8969710975457,681.397443013561) translate(0.004999999999999893 14.21875)"/><path d="M861.2 534.77v2l-.6-.03-3.88.4-5.46 1.33-5.68 2.24-4.7 2.67-3.48 2.67-2.5 2.56-1.78 2.42-1.25 2.32-.84 2.3-.33 1.3-.47 2.74-.2 3.42.17 4.4.88 5.88 2.08 8.04 4.02 10.75 4.64 9.45-1.8.88-4.68-9.54-4.1-10.94-2.12-8.24-.9-6.08-.2-4.62.22-3.63.5-2.94.37-1.44.95-2.54 1.38-2.57 1.94-2.65 2.7-2.76 3.7-2.84 4.94-2.8 5.96-2.35 5.72-1.4 4.16-.4zm12.98 6.2l2.92 2.42 2.42 2.34 2.03 2.3 1.7 2.23 1.45 2.23 1.22 2.23 1 2.27.85 2.3.67 2.4.5 2.5.33 2.66.13 2.85-.1 3.12-.36 3.48-.72 3.97-1.24 4.72-.4 1.18-1.9-.65.4-1.12 1.2-4.57.68-3.82.35-3.3.1-2.97-.13-2.7-.3-2.5-.47-2.36-.63-2.25-.8-2.17-.95-2.12-1.14-2.1-1.36-2.1-1.62-2.13-1.92-2.17-2.32-2.25-2.8-2.34-1.1-.78v-2.46z" fill="#5e5e5e"/><path d="M842.24 602.5l-.1.03-1.65.92-.5-.97 1.8-.88zM889.54 588.53l-9.7 11.44 1.12-14.96z" fill="#5e5e5e"/><path d="M891.2 588.13l-12.6 14.83 1.47-19.4zm-10.14 8.84l6.83-8.03-6.04-2.48z" fill="#5e5e5e"/><use xlink:href="#f" transform="matrix(1,0,0,1,861.1857292893269,528.2211384395035) translate(0.004999999999999893 14.21875)"/><path d="M965.14 641H902.5v-2h62.64zm94.86 0h-65.13v-2H1060z" fill="#5e5e5e"/><path d="M902.53 641h-1.1l.07-.98-.03-1.02h1.06zM1075.26 640l-14.26 4.64v-9.28z" fill="#5e5e5e"/><path d="M1078.5 640l-18.5 6v-12zm-16.5 3.26l10.03-3.26-10.03-3.26z" fill="#5e5e5e"/><use xlink:href="#h" transform="matrix(1,0,0,1,965.1360260823027,631.1111111111112) translate(0.005000000000000782 14.21875)"/><path d="M1420 640c0 22.1-17.9 40-40 40s-40-17.9-40-40 17.9-40 40-40 40 17.9 40 40z" stroke="#5e5e5e" stroke-width="3" fill="#fff"/><use xlink:href="#i" transform="matrix(1,0,0,1,1345,605) translate(29.66579861111111 40.46875)"/><path d="M1410 640c0 16.57-13.43 30-30 30s-30-13.43-30-30 13.43-30 30-30 30 13.43 30 30z" stroke="#5e5e5e" stroke-width="3" fill="#fff"/><use xlink:href="#j" transform="matrix(1,0,0,1,1355,615) translate(-1.6710069444444464 30.32986111111111)"/><path d="M1229.14 641h-66.64v-2h66.64zm90.86 0h-82.47v-2H1320z" fill="#5e5e5e"/><path d="M1162.53 641h-1.1l.07-.98-.03-1.02h1.06zM1335.26 640l-14.26 4.64v-9.28z" fill="#5e5e5e"/><path d="M1338.5 640l-18.5 6v-12zm-16.5 3.26l10.03-3.26-10.03-3.26z" fill="#5e5e5e"/><use xlink:href="#d" transform="matrix(1,0,0,1,1229.1378621924139,631.1111111111112) translate(0.004999999999999893 14.21875)"/><path d="M1119.55 700.07l-.2 1.32-.9 4.67-1.06 4.6-1.27 4.52-1.45 4.45-1.65 4.42-1.84 4.38-2.06 4.35-2.27 4.34-2.5 4.33-2.75 4.34-3.02 4.36-3.32 4.36-3.63 4.4-4 4.43-4.37 4.47-4.8 4.5-5.3 4.57-5.8 4.6-6.42 4.65-7.06 4.7-7.8 4.72-8.64 4.74-9.53 4.74-10.54 4.7-11.64 4.6-12.8 4.45-14.07 4.23-15.35 3.94-16.6 3.52-17.83 3-18.9 2.4-19.7 1.64-14.5.6v-2l14.36-.6 19.64-1.64 18.8-2.37 17.74-3 16.54-3.5 15.26-3.93 13.97-4.2 12.73-4.44 11.56-4.57 10.46-4.67 9.46-4.7 8.55-4.7 7.72-4.67 7-4.65 6.34-4.6 5.75-4.55 5.23-4.5 4.75-4.46 4.32-4.42 3.93-4.37 3.58-4.32 3.28-4.3 2.97-4.28 2.7-4.26 2.47-4.26 2.23-4.27 2-4.27 1.82-4.3 1.62-4.34 1.4-4.4 1.25-4.43 1.06-4.52.88-4.6.2-1.27zM601.1 686.6l.32 4.96.5 4.8.7 4.7.87 4.6 1.05 4.52 1.24 4.44 1.42 4.38 1.6 4.34 1.82 4.3 2 4.28 2.24 4.27 2.46 4.25 2.7 4.26 3 4.3 3.25 4.3 3.58 4.32 3.93 4.37 4.33 4.4 4.75 4.45 5.22 4.5 5.75 4.57 6.34 4.6 7 4.65 7.73 4.68 8.55 4.7 9.47 4.7 10.46 4.65 11.57 4.57 12.73 4.43 13.98 4.2 15.26 3.93 16.54 3.5 17.74 3 18.8 2.38 19.65 1.65 14.33.6v2l-14.46-.6-19.72-1.66-18.9-2.4-17.82-3-16.62-3.53-15.34-3.93-14.06-4.24-12.8-4.46-11.64-4.6-10.54-4.7-9.54-4.72-8.63-4.74-7.8-4.72-7.08-4.7-6.4-4.65-5.82-4.6-5.3-4.56-4.8-4.5-4.38-4.48-4-4.43-3.62-4.4-3.32-4.36-3-4.35-2.77-4.34-2.5-4.33-2.27-4.34-2.05-4.34-1.83-4.38-1.64-4.42-1.45-4.46-1.26-4.52-1.08-4.6-.9-4.68-.7-4.78-.52-4.9-.3-5.03-.1-4.17 2-.04z" fill="#5e5e5e"/><path d="M599.98 681.5l1.02-.03.02 1.04-2 .05-.02-1.1zM1123.26 699.3l-9.24-.7 5.73-13.87z" fill="#5e5e5e"/><path d="M1124.55 700.4l-11.98-.92 7.43-17.98zm-9.08-2.7l6.5.5-2.47-10.25z" fill="#5e5e5e"/><use xlink:href="#k" transform="matrix(1,0,0,1,844.0005124648499,828.5052415541068) translate(0.004999999999999005 14.21875)"/><path d="M985.8 363.66v2h-11.05l-30.28 1.26-29.5 2.48-28.2 3.56-26.65 4.5-24.82 5.26-22.92 5.88-20.98 6.33-19.12 6.65-17.36 6.86-15.7 7-14.23 7.04-12.86 7.06-11.62 7.04-10.52 6.98-9.53 6.92-8.64 6.85-7.85 6.77-7.13 6.7-6.5 6.62-5.9 6.57-5.4 6.5-4.9 6.47-4.5 6.44-4.06 6.42-3.7 6.4-3.37 6.43-3.03 6.43-2.72 6.48-2.43 6.52-2.14 6.6-1.85 6.68-1.6 6.8-1.32 6.9-1.04 7.07-.77 7.24-.47 7.45-.14 6.7-2-.05.14-6.74.48-7.52.76-7.32 1.06-7.15 1.34-7 1.6-6.87 1.9-6.76 2.17-6.68 2.45-6.6 2.76-6.55 3.06-6.5 3.4-6.5 3.74-6.48 4.12-6.5 4.52-6.5 4.96-6.54 5.44-6.58 5.98-6.63 6.55-6.68 7.2-6.76 7.9-6.82 8.72-6.9 9.6-6.96 10.58-7.03 11.7-7.1 12.92-7.1 14.3-7.08 15.78-7.02 17.43-6.9 19.2-6.67 21.07-6.36 23-5.9 24.9-5.28 26.72-4.52 28.3-3.57 29.57-2.47 30.37-1.27zm19.56 0l30.37 1.27 29.56 2.48 28.3 3.6 26.7 4.5 24.92 5.3 23 5.9 21.05 6.34 19.2 6.68 17.42 6.9 15.78 7.02 14.28 7.1 12.92 7.1 11.7 7.06 10.58 7.03 9.6 6.97 8.7 6.9 7.9 6.83 7.2 6.75 6.56 6.7 5.97 6.62 5.43 6.57 4.96 6.54 4.5 6.5 4.13 6.5 3.74 6.48 3.4 6.5 3.06 6.5 2.75 6.56 2.46 6.6 2.17 6.67 1.9 6.78 1.6 6.87 1.34 7 1.06 7.15.42 4.03-2 .2-.4-3.98-1.05-7.07-1.32-6.92-1.6-6.8-1.86-6.67-2.15-6.6-2.43-6.53-2.72-6.47-3.03-6.44-3.35-6.4-3.7-6.42-4.07-6.42-4.48-6.43-4.9-6.48-5.4-6.52-5.9-6.56-6.5-6.63-7.13-6.7-7.85-6.76-8.65-6.84-9.53-6.92-10.52-7-11.62-7.02-12.84-7.06-14.2-7.05-15.72-7-17.35-6.85-19.12-6.66-20.98-6.33-22.9-5.86-24.83-5.27-26.63-4.5-28.22-3.57-29.47-2.47-30.28-1.27H994.2v-2z" fill="#5e5e5e"/><path d="M601.02 597.5l-.02 1.06-.98-.06-1.02.03.02-1.1zM1379.83 595.27l-5.38-14 9.26-.5z" fill="#5e5e5e"/><path d="M1380 598.5l-6.98-18.16 12-.63zm-4.12-16.3l3.78 9.84 2.73-10.2z" fill="#5e5e5e"/><use xlink:href="#d" transform="matrix(1,0,0,1,985.8076263361705,355.7703832363839) translate(0.004999999999999893 14.21875)"/><defs><path fill="#333" d="M157-1349h916v228H762v893h311V0H157v-228h311v-893H157v-228" id="l"/><path fill="#333" d="M768-1103c247 0 336 167 336 416V0H824v-619c-3-164-24-273-171-273-164 0-229 142-229 312V0H143c-4-359 9-736-8-1082h268c7 63 12 146 13 215h4c67-145 160-236 348-236" id="m"/><path fill="#333" d="M794-190h353V0H118v-190h395v-702H223v-190h571v892zM513-1277v-207h281v207H513" id="n"/><path fill="#333" d="M711 13c-250 0-386-99-385-349l2-556H161v-190h181l88-282h176v282h385v190H606v530c-10 130 45 186 174 184 91-2 176-11 255-27v186C933-1 833 13 711 13" id="o"/><g id="a"><use transform="matrix(0.008680555555555556,0,0,0.008680555555555556,0,0)" xlink:href="#l"/><use transform="matrix(0.008680555555555556,0,0,0.008680555555555556,10.668402777777779,0)" xlink:href="#m"/><use transform="matrix(0.008680555555555556,0,0,0.008680555555555556,21.336805555555557,0)" xlink:href="#n"/><use transform="matrix(0.008680555555555556,0,0,0.008680555555555556,32.005208333333336,0)" xlink:href="#o"/></g><path fill="#333" d="M138-1120c207-4 339-93 415-229h266v1140h323V0H149v-209h389v-891c-70 121-216 187-400 194v-214" id="p"/><use transform="matrix(0.008680555555555556,0,0,0.008680555555555556,0,0)" xlink:href="#p" id="b"/><path fill="#333" d="M117-675c0-408 109-695 502-695 384 0 492 295 492 695 0 326-84 561-303 658-117 51-277 52-394 1-217-95-297-335-297-659zm591 451c148-93 132-449 108-680-15-138-53-246-199-246-150 0-193 107-207 248-22 230-40 585 106 678 50 32 141 32 192 0zM506-555v-249h215v249H506" id="q"/><use transform="matrix(0.008680555555555556,0,0,0.008680555555555556,0,0)" xlink:href="#q" id="c"/><path fill="#333" d="M364-313c0 239 364 131 432 6l142 142C784 80 73 125 79-296c0-176 125-245 284-262-148-23-256-97-256-256 0-364 677-364 814-119L762-808c-51-131-387-176-387 6 0 148 171 154 330 148v182c-171-6-341-6-341 159" id="r"/><use transform="matrix(0.008680555555555556,0,0,0.008680555555555556,0,0)" xlink:href="#r" id="d"/><path fill="#333" d="M135-968c34-256 187-402 480-402 217 0 371 75 441 220 45 93 40 219-8 308-114 212-348 323-508 488-38 39-66 80-85 123h654V0H123v-195c112-245 321-399 515-560 57-48 107-96 142-157 14-26 22-53 22-80-1-104-73-156-185-154-131 2-181 74-199 194" id="s"/><use transform="matrix(0.008680555555555556,0,0,0.008680555555555556,0,0)" xlink:href="#s" id="e"/><path fill="#333" d="M775-193C708-75 621 20 439 20 226 20 106-93 106-306c0-251 170-341 417-346l223-4c4-143-12-264-148-264-103 0-141 58-150 153l-293-14c37-219 194-321 455-321 263 0 418 130 417 390v392c1 84 5 161 89 160 21 0 42-2 62-6v152c-57 15-108 27-180 26-145 0-202-73-217-205h-6zm-256 17c168 0 234-139 227-325-166 4-347-25-347 173 0 94 33 152 120 152" id="t"/><use transform="matrix(0.008680555555555556,0,0,0.008680555555555556,0,0)" xlink:href="#t" id="f"/><path fill="#333" d="M429-1484c1 190-1 388 0 572 54-116 155-191 317-191 300 0 386 257 386 563 0 241-73 429-226 518-49 28-106 42-169 42-162 0-251-81-306-196h-4c-1 59-5 127-15 176H140c4-67 9-153 8-236v-1248h281zm66 648c-93 114-92 466 1 585 35 45 77 79 142 79 64 0 112-31 148-92 69-115 68-440-2-561-39-68-131-111-221-70-25 11-46 32-68 59" id="u"/><use transform="matrix(0.008680555555555556,0,0,0.008680555555555556,0,0)" xlink:href="#u" id="g"/><path fill="#333" d="M726-569v408H500v-408H101v-224h399v-408h226v408h402v224H726" id="v"/><g id="h"><use transform="matrix(0.008680555555555556,0,0,0.008680555555555556,0,0)" xlink:href="#u"/><use transform="matrix(0.008680555555555556,0,0,0.008680555555555556,10.668402777777779,0)" xlink:href="#v"/><use transform="matrix(0.008680555555555556,0,0,0.008680555555555556,21.336805555555557,0)" xlink:href="#r"/></g><path fill="#333" d="M1229 0H935l-92-330H387L295 0H0l443-1349h344zM615-1167c-46 213-110 412-166 615h332c-56-204-119-401-166-615" id="w"/><use transform="matrix(0.008680555555555556,0,0,0.008680555555555556,0,0)" xlink:href="#w" id="i"/><path fill="#333" d="M462-1121v384h621v228H462V0H167v-1349h939v228H462" id="x"/><path fill="#333" d="M794-190h353V0H118v-190h395v-1104H223v-190h571v1294" id="y"/><g id="j"><use transform="matrix(0.008680555555555556,0,0,0.008680555555555556,0,0)" xlink:href="#x"/><use transform="matrix(0.008680555555555556,0,0,0.008680555555555556,10.668402777777779,0)" xlink:href="#n"/><use transform="matrix(0.008680555555555556,0,0,0.008680555555555556,21.336805555555557,0)" xlink:href="#m"/><use transform="matrix(0.008680555555555556,0,0,0.008680555555555556,32.005208333333336,0)" xlink:href="#t"/><use transform="matrix(0.008680555555555556,0,0,0.008680555555555556,42.673611111111114,0)" xlink:href="#y"/></g><g id="k"><use transform="matrix(0.008680555555555556,0,0,0.008680555555555556,0,0)" xlink:href="#t"/><use transform="matrix(0.008680555555555556,0,0,0.008680555555555556,10.668402777777779,0)" xlink:href="#v"/><use transform="matrix(0.008680555555555556,0,0,0.008680555555555556,21.336805555555557,0)" xlink:href="#u"/></g></defs></g></svg>