<svg xmlns="http://www.w3.org/2000/svg" xmlns:xlink="http://www.w3.org/1999/xlink" xmlns:lucid="lucid" width="591" height="537.09"><g transform="translate(-328.9999775086909 -322.91044766127027)" lucid:page-tab-id="0_0"><path d="M520 500c0 22.1-17.9 40-40 40s-40-17.9-40-40 17.9-40 40-40 40 17.9 40 40zM900 500c0 22.1-17.9 40-40 40s-40-17.9-40-40 17.9-40 40-40 40 17.9 40 40zM720 800c0 22.1-17.9 40-40 40s-40-17.9-40-40 17.9-40 40-40 40 17.9 40 40z" stroke="#5e5e5e" stroke-width="3" fill="#fff"/><path d="M627.2 348.2l-7.42.93-12.96 2.18-12.07 2.58-11.14 2.85-10.2 3.08-9.3 3.24-8.43 3.34-7.63 3.4-6.9 3.42-6.25 3.43-5.65 3.42-5.1 3.4-4.63 3.35-4.2 3.32-3.8 3.28-3.47 3.25-3.15 3.2-2.86 3.2-2.6 3.15-2.4 3.14-2.16 3.12-1.97 3.1-1.8 3.1-1.6 3.1-1.48 3.13-1.32 3.12-1.17 3.16-1.04 3.2-.9 3.23-.78 3.3-.64 3.34-.5 3.43-.38 3.5-.22 3.6-.06 2.75-2-.05.06-2.78.23-3.7.4-3.58.5-3.5.66-3.44.8-3.37.92-3.3 1.06-3.28 1.2-3.23 1.35-3.22 1.5-3.2 1.66-3.18 1.83-3.17 2-3.18 2.23-3.2 2.43-3.2 2.66-3.2 2.93-3.26 3.2-3.28 3.53-3.3 3.87-3.34 4.26-3.38 4.7-3.4 5.18-3.44 5.7-3.46 6.33-3.47 7-3.46 7.7-3.43 8.5-3.37 9.38-3.26 10.3-3.1 11.2-2.87 12.17-2.58 13.04-2.2 7.7-.98zm93.35-1.05l13.03 2.2 12.16 2.6 11.22 2.86 10.28 3.12 9.37 3.26 8.52 3.36 7.7 3.44 7 3.46 6.3 3.47 5.72 3.47 5.17 3.43 4.7 3.4 4.26 3.38 3.87 3.34 3.52 3.3 3.2 3.28 2.93 3.25 2.67 3.22 2.43 3.2 2.2 3.2 2.03 3.16 1.84 3.18 1.67 3.2 1.5 3.18 1.36 3.2 1.2 3.25 1.07 3.27.92 3.32.66 2.8-1.94.45-.65-2.75-.9-3.24-1.03-3.2-1.17-3.15-1.32-3.13-1.46-3.12-1.63-3.1-1.8-3.1-1.97-3.12-2.17-3.1-2.38-3.15-2.6-3.15-2.88-3.18-3.15-3.2-3.46-3.26-3.8-3.27-4.2-3.33-4.63-3.36-5.1-3.4-5.65-3.4-6.24-3.43-6.9-3.4-7.63-3.4-8.44-3.35-9.28-3.23-10.2-3.08-11.14-2.86-12.07-2.56-12.95-2.2-7.46-.93v-2.03z" fill="#5e5e5e"/><path d="M481.02 457.5l-.02 1.06-.98-.06-1.02.03.02-1.08zM859.66 455.28l-6.13-13.7 9.2-.98z" fill="#5e5e5e"/><path d="M860 458.5l-7.95-17.76 11.96-1.28zm-5-16.06l4.3 9.62 2.18-10.32z" fill="#5e5e5e"/><use xlink:href="#a" transform="matrix(1,0,0,1,627.2121540816277,333.91044766127027) translate(0.005000000000002558 14.222222222222223)"/><use xlink:href="#b" transform="matrix(1,0,0,1,627.2121540816277,333.91044766127027) translate(15.75808641975309 14.222222222222223)"/><use xlink:href="#c" transform="matrix(1,0,0,1,627.2121540816277,333.91044766127027) translate(53.14080246913581 14.222222222222223)"/><path d="M860.98 542.53l-.06 2.78-.23 3.7-.4 3.58-.5 3.5-.66 3.44-.8 3.37-.92 3.3-1.06 3.28-1.2 3.23-1.35 3.22-1.5 3.2-1.66 3.18-1.83 3.17-2 3.18-2.23 3.2-2.43 3.2-2.66 3.2-2.93 3.26-3.2 3.28-3.53 3.3-3.87 3.34-4.26 3.38-4.7 3.4-5.18 3.44-5.7 3.46-6.33 3.47-7 3.46-7.7 3.43-8.5 3.37-9.38 3.26-10.3 3.1-11.2 2.87-12.17 2.58-13.04 2.2-13.8 1.74-14.42 1.2-14.82.62h-.8v-2h.76l14.73-.6 14.34-1.2 13.72-1.75 12.96-2.18 12.07-2.58 11.14-2.85 10.2-3.08 9.3-3.24 8.43-3.34 7.63-3.4 6.9-3.42 6.25-3.43 5.65-3.42 5.1-3.4 4.63-3.35 4.2-3.32 3.8-3.28 3.47-3.25 3.15-3.2 2.86-3.2 2.6-3.15 2.4-3.14 2.16-3.12 1.97-3.1 1.8-3.1 1.6-3.1 1.48-3.13 1.32-3.12 1.17-3.16 1.04-3.2.9-3.23.78-3.3.64-3.34.5-3.43.38-3.5.22-3.6.06-2.75zm-377.4 19.85l.9 3.24 1.05 3.2 1.17 3.15 1.32 3.13 1.46 3.12 1.63 3.1 1.8 3.1 1.97 3.12 2.17 3.1 2.38 3.15 2.6 3.15 2.88 3.18 3.15 3.2 3.46 3.26 3.8 3.27 4.2 3.33 4.63 3.36 5.1 3.4 5.65 3.4 6.24 3.43 6.9 3.4 7.63 3.4 8.44 3.35 9.28 3.23 10.2 3.08 11.14 2.86 12.07 2.56 12.95 2.2 13.72 1.72 14.34 1.2 14.75.62h.77v2h-.8l-14.83-.62-14.43-1.2-13.82-1.75-13.03-2.2-12.16-2.6-11.22-2.86-10.28-3.12-9.37-3.26-8.52-3.36-7.7-3.44-7-3.46-6.3-3.47-5.72-3.47-5.17-3.43-4.7-3.4-4.26-3.38-3.87-3.34-3.52-3.3-3.2-3.28-2.93-3.25-2.67-3.22-2.43-3.2-2.2-3.2-2.03-3.16-1.84-3.18-1.67-3.2-1.5-3.18-1.36-3.2-1.2-3.25-1.07-3.27-.92-3.32-.66-2.8 1.94-.45z" fill="#5e5e5e"/><path d="M859.98 541.5l1.02-.03-.02 1.08-2-.04.02-1.06zM486.47 558.4l-9.2 1 3.07-14.68z" fill="#5e5e5e"/><path d="M487.95 559.26L476 560.54l4-19.04zm-9.43-1l6.48-.7-4.3-9.62z" fill="#5e5e5e"/><use xlink:href="#d" transform="matrix(1,0,0,1,663.3238943365822,641.360385672063) translate(0.004999999999999893 22.265625)"/><path d="M341 500h79M341.03 500H340" stroke="#5e5e5e" stroke-width="2" fill="none"/><path d="M435.26 500L421 504.64v-9.28z" stroke="#5e5e5e" stroke-width="2" fill="#5e5e5e"/><path d="M401.05 457.22l3.8 5.7 6.5 5.68 11.28 5.48 20.74 3.9-.37 1.97-21-3.95-11.76-5.72-6.9-6.02-4.1-6.15-.7-2.04h2.12zm25.97-32.53l7.53 3.8 9.57 8.66 6.7 10.48-1.7 1.07-6.54-10.24-9.17-8.3-7.05-3.57-5.86-1.23-5.18.3-4.75 1.6-4.34 2.9-3.7 4.2-.2.36h-2.22l.76-1.5 4.04-4.6 4.8-3.17 5.24-1.76 5.7-.34z" fill="#5e5e5e"/><path d="M444.74 478.24l-1.14 1.82-.63-.12.38-1.96zM457.5 461.4l-11.08-10.1 8.05-4.6z" fill="#5e5e5e"/><path d="M459.1 464.2l-14.37-13.1 10.44-5.94zm-11-12.7l7.8 7.1-2.13-10.34z" fill="#5e5e5e"/><path d="M401.05 457.22l3.8 5.7 6.5 5.68 11.28 5.48 20.74 3.9-.37 1.97-21-3.95-11.76-5.72-6.9-6.02-4.1-6.15-.7-2.04h2.12zm25.97-32.53l7.53 3.8 9.57 8.66 6.7 10.48-1.7 1.07-6.54-10.24-9.17-8.3-7.05-3.57-5.86-1.23-5.18.3-4.75 1.6-4.34 2.9-3.7 4.2-.2.36h-2.22l.76-1.5 4.04-4.6 4.8-3.17 5.24-1.76 5.7-.34z" fill="#5e5e5e"/><path d="M444.35 478.17l-.37 1.96-1-.2.36-1.95zM457.5 461.4l-11.08-10.1 8.05-4.6z" fill="#5e5e5e"/><path d="M459.1 464.2l-14.37-13.1 10.44-5.94zm-11-12.7l7.8 7.1-2.13-10.34z" fill="#5e5e5e"/><use xlink:href="#e" transform="matrix(1,0,0,1,363.74147607402017,434.7307637842785) translate(0.005000000000002558 14.222222222222223)"/><use xlink:href="#f" transform="matrix(1,0,0,1,363.74147607402017,434.7307637842785) translate(35.51117283950618 14.222222222222223)"/><path d="M778.64 457.27l1.07 4.88 2 4.53 3 4.26 4.34 4.1 6.3 3.94 9.67 3.63 15.1 2.44-.33 1.98-15.28-2.47-10.04-3.77-6.65-4.15-4.6-4.37-3.24-4.6-2.16-4.88-1.16-5.28-.02-.87h2zm35.42-33.9l5.72 2.32 6.37 4.22 7.4 7.4 4.55 6.87-1.67 1.1-4.44-6.7-7.13-7.12-6.03-4-5.35-2.2-4.97-.94-4.8.05-4.73 1-4.75 2.04-4.66 3.22-4.28 4.42-.15.22h-2.38l.94-1.47 4.55-4.7 4.98-3.45 5.1-2.2 5.14-1.1 5.2-.04z" fill="#5e5e5e"/><path d="M821.23 485.23l-.62 1.92-.85-.14.3-1.96zM844.66 458.05l-10.98-10.22 8.1-4.5z" fill="#5e5e5e"/><path d="M846.23 460.88L832 447.63l10.5-5.85zm-10.86-12.84l7.72 7.18-2.04-10.35z" fill="#5e5e5e"/><use xlink:href="#g" transform="matrix(1,0,0,1,757.9104956982537,435.29811811870053) translate(0.004999999999999005 14.222222222222223)"/><path d="M825.3 737.22l-3.52 6.1-3.5 5.52-3.5 5.02-3.47 4.6-3.46 4.2-3.48 3.85-3.48 3.56-3.5 3.3-3.52 3.03-3.55 2.8-3.58 2.6-3.64 2.43-3.7 2.25-3.78 2.07-3.86 1.92-3.96 1.76-4.07 1.6-4.2 1.48-4.35 1.32-4.52 1.16-4.72 1-4.92.83-.9.13-.26-1.98.87-.1 4.84-.83 4.63-1 4.44-1.13 4.28-1.3 4.13-1.43 4-1.58 3.9-1.74 3.77-1.88 3.7-2.04 3.64-2.2 3.58-2.37 3.52-2.56 3.5-2.75 3.44-3 3.44-3.22 3.42-3.5 3.42-3.8 3.42-4.13 3.43-4.5 3.44-4.97 3.47-5.45 3.47-6.02 1.32-2.53h2.26zm35.68-194.7l-.7 35.15-1.8 28.96-2.5 23.8-2.92 19.87-3.2 16.83-3.37 14.42L843 694l-3.5 10.88-2.8 7.52h-2.14l3.04-8.17 3.5-10.8 3.45-12.38 3.35-14.33 3.2-16.75 2.9-19.8 2.48-23.7 1.8-28.88.7-35.12z" fill="#5e5e5e"/><path d="M859.98 541.5l1.02-.03-.02 1.08-2-.04.02-1.06zM739.28 803.43l-14.55-3.65 13.92-5.6z" fill="#5e5e5e"/><path d="M740.37 804.73L721.5 800l18.05-7.26zm-12.4-5.17l10.22 2.56-.46-6.5z" fill="#5e5e5e"/><use xlink:href="#h" transform="matrix(1,0,0,1,820.3854806164927,712.4003834517222) translate(0.005000000000000782 14.222222222222223)"/><path d="M531.45 743.8l4.14 5.46 4.13 5 4.13 4.6 4.14 4.23 4.15 3.88 4.16 3.6 4.2 3.32 4.22 3.07 4.27 2.83 4.32 2.62 4.4 2.42 4.46 2.22 4.56 2.03 4.68 1.84 4.8 1.67 4.94 1.5 5.1 1.3 5.3 1.14 5.52.93 3.1.4-.26 1.97-3.13-.4-5.6-.94-5.4-1.14-5.18-1.33-5.02-1.52-4.88-1.7-4.75-1.87-4.64-2.06-4.55-2.26-4.46-2.45-4.4-2.66-4.34-2.9-4.3-3.1-4.25-3.38-4.22-3.65-4.2-3.96-4.2-4.27-4.2-4.66-4.18-5.06-4.2-5.52-4.1-5.92h2.43zM481.5 565.77l1.43 22.78 2.2 20.94 2.8 18.95 3.23 17.04 3.57 15.24 3.8 13.62 3.96 12.2 4.04 10.9 4.12 9.8 4.15 8.83.87 1.63h-2.26l-.38-.76-4.2-8.9-4.14-9.87-4.08-11-3.98-12.26-3.82-13.7-3.6-15.34-3.25-17.12-2.8-19.04-2.2-21.02-1.44-22.87-.48-23.32 2-.05z" fill="#5e5e5e"/><path d="M479.98 541.5l1.02-.03.02 1.04-2 .05-.02-1.1zM635.27 799.8l-14.53 3.74.58-9.25z" fill="#5e5e5e"/><path d="M638.5 800l-18.84 4.85.75-12zm-16.67 2.23l10.2-2.63-9.8-3.88z" fill="#5e5e5e"/><g><use xlink:href="#i" transform="matrix(1,0,0,1,504.10000187707436,717.7278818091643) translate(0.004999999999999005 14.222222222222223)"/></g><path d="M710 800c0 16.57-13.43 30-30 30s-30-13.43-30-30 13.43-30 30-30 30 13.43 30 30z" stroke="#5e5e5e" stroke-width="3" fill="#fff"/><defs><path fill="#333" d="M114-157C55-157 80-60 75 0H25v-261h50l-1 109c12-26 28-41 61-42 86-1 58 113 63 194h-50c-7-57 23-157-34-157" id="j"/><use transform="matrix(0.04938271604938272,0,0,0.04938271604938272,0,0)" xlink:href="#j" id="a"/><path fill="#333" d="M85 4C-2 5 27-109 22-190h50c7 57-23 150 33 157 60-5 35-97 40-157h50l1 190h-47c-2-12 1-28-3-38-12 25-28 42-61 42" id="k"/><g id="b"><use transform="matrix(0.04938271604938272,0,0,0.04938271604938272,0,0)" xlink:href="#k"/><use transform="matrix(0.04938271604938272,0,0,0.04938271604938272,10.814814814814815,0)" xlink:href="#j"/><use transform="matrix(0.04938271604938272,0,0,0.04938271604938272,21.62962962962963,0)" xlink:href="#k"/></g><g id="c"><use transform="matrix(0.04938271604938272,0,0,0.04938271604938272,0,0)" xlink:href="#k"/><use transform="matrix(0.04938271604938272,0,0,0.04938271604938272,10.814814814814815,0)" xlink:href="#j"/><use transform="matrix(0.04938271604938272,0,0,0.04938271604938272,21.62962962962963,0)" xlink:href="#k"/></g><path fill="#333" d="M1071-320C1069-95 841 20 597 20c-149 0-270-30-363-90S95-208 95-306c0-123 68-206 204-251-96-39-185-112-185-229 0-98 44-175 130-231s204-84 353-84c235 0 454 118 457 331H765c-3-79-92-113-183-113-93 0-179 38-179 120 0 145 215 110 367 114v193H579c-131 1-196 44-196 129 1 172 391 176 399 7h289" id="l"/><use transform="matrix(0.01171875,0,0,0.01171875,0,0)" xlink:href="#l" id="d"/><path fill="#333" d="M137-138c1-29-70-34-71-4 15 46 118 7 119 86 1 83-164 76-172 9l43-7c4 19 20 25 44 25 33 8 57-30 24-41C81-84 22-81 20-136c-2-80 154-74 161-7" id="m"/><path fill="#333" d="M190-63c-7 42-38 67-86 67-59 0-84-38-90-98-12-110 154-137 174-36l-49 2c-2-19-15-32-35-32-30 0-35 28-38 64-6 74 65 87 74 30" id="n"/><g id="e"><use transform="matrix(0.04938271604938272,0,0,0.04938271604938272,0,0)" xlink:href="#m"/><use transform="matrix(0.04938271604938272,0,0,0.04938271604938272,9.876543209876544,0)" xlink:href="#n"/><use transform="matrix(0.04938271604938272,0,0,0.04938271604938272,19.75308641975309,0)" xlink:href="#j"/></g><g id="f"><use transform="matrix(0.04938271604938272,0,0,0.04938271604938272,0,0)" xlink:href="#k"/><use transform="matrix(0.04938271604938272,0,0,0.04938271604938272,10.814814814814815,0)" xlink:href="#j"/><use transform="matrix(0.04938271604938272,0,0,0.04938271604938272,21.62962962962963,0)" xlink:href="#k"/></g><g id="g"><use transform="matrix(0.04938271604938272,0,0,0.04938271604938272,0,0)" xlink:href="#m"/><use transform="matrix(0.04938271604938272,0,0,0.04938271604938272,9.876543209876544,0)" xlink:href="#n"/><use transform="matrix(0.04938271604938272,0,0,0.04938271604938272,19.75308641975309,0)" xlink:href="#j"/><use transform="matrix(0.04938271604938272,0,0,0.04938271604938272,30.567901234567906,0)" xlink:href="#k"/></g><g id="h"><use transform="matrix(0.04938271604938272,0,0,0.04938271604938272,0,0)" xlink:href="#k"/><use transform="matrix(0.04938271604938272,0,0,0.04938271604938272,10.814814814814815,0)" xlink:href="#k"/></g><g id="i"><use transform="matrix(0.04938271604938272,0,0,0.04938271604938272,0,0)" xlink:href="#k"/><use transform="matrix(0.04938271604938272,0,0,0.04938271604938272,10.814814814814815,0)" xlink:href="#j"/><use transform="matrix(0.04938271604938272,0,0,0.04938271604938272,21.62962962962963,0)" xlink:href="#k"/></g></defs></g></svg>