<svg xmlns="http://www.w3.org/2000/svg" xmlns:xlink="http://www.w3.org/1999/xlink" xmlns:lucid="lucid" width="1720" height="2260"><g transform="translate(200 -20)" lucid:page-tab-id="0_0"><path d="M500 386c0-3.3 2.7-6 6-6h8c3.3 0 6 2.7 6 6v148c0 3.3-2.7 6-6 6h-8c-3.3 0-6-2.7-6-6z" stroke="#5e5e5e" stroke-width="3"/><path d="M300 460c0 44.18-35.82 80-80 80s-80-35.82-80-80 35.82-80 80-80 80 35.82 80 80z" stroke="#5e5e5e" stroke-width="3" fill="#fff"/><path d="M302.5 460H480" stroke="#5e5e5e" stroke-width="2" fill="none"/><path d="M302.53 461h-1.06l.03-.98V459h1.03z" fill="#5e5e5e"/><path d="M495.26 460L481 464.64v-9.28z" stroke="#5e5e5e" stroke-width="2" fill="#5e5e5e"/><path d="M100 346c0-3.3 2.7-6 6-6h228c3.3 0 6 2.7 6 6v48c0 3.3-2.7 6-6 6H106c-3.3 0-6-2.7-6-6z" stroke="#000" stroke-opacity="0" stroke-width="3" fill="#fff" fill-opacity="0"/><use xlink:href="#a" transform="matrix(1,0,0,1,105,345.00000000000006) translate(72.43827160493828 30.27777777777778)"/><path d="M522.5 460H700" stroke="#5e5e5e" stroke-width="2" fill="none"/><path d="M522.53 461h-1.03v-2h1.03z" fill="#5e5e5e"/><path d="M715.26 460L701 464.64v-9.28z" stroke="#5e5e5e" stroke-width="2" fill="#5e5e5e"/><path d="M1080 386c0-3.3 2.7-6 6-6h8c3.3 0 6 2.7 6 6v148c0 3.3-2.7 6-6 6h-8c-3.3 0-6-2.7-6-6z" stroke="#5e5e5e" stroke-width="3"/><path d="M880 460c0 44.18-35.82 80-80 80s-80-35.82-80-80 35.82-80 80-80 80 35.82 80 80z" stroke="#5e5e5e" stroke-width="3" fill="#fff"/><path d="M882.5 460H1060" stroke="#5e5e5e" stroke-width="2" fill="none"/><path d="M882.53 461h-1.06l.03-.98V459h1.03z" fill="#5e5e5e"/><path d="M1075.26 460l-14.26 4.64v-9.28z" stroke="#5e5e5e" stroke-width="2" fill="#5e5e5e"/><path d="M1102.5 460H1280" stroke="#5e5e5e" stroke-width="2" fill="none"/><path d="M1102.53 461h-1.03v-2h1.03z" fill="#5e5e5e"/><path d="M1295.26 460l-14.26 4.64v-9.28z" stroke="#5e5e5e" stroke-width="2" fill="#5e5e5e"/><path d="M1460 460c0 44.18-35.82 80-80 80s-80-35.82-80-80 35.82-80 80-80 80 35.82 80 80z" stroke="#5e5e5e" stroke-width="3" fill="#fff"/><path d="M680 346c0-3.3 2.7-6 6-6h228c3.3 0 6 2.7 6 6v48c0 3.3-2.7 6-6 6H686c-3.3 0-6-2.7-6-6z" stroke="#000" stroke-opacity="0" stroke-width="3" fill="#fff" fill-opacity="0"/><use xlink:href="#b" transform="matrix(1,0,0,1,685,345.00000000000006) translate(72.4074074074074 30.27777777777778)"/><path d="M1260 346c0-3.3 2.7-6 6-6h228c3.3 0 6 2.7 6 6v48c0 3.3-2.7 6-6 6h-228c-3.3 0-6-2.7-6-6z" stroke="#000" stroke-opacity="0" stroke-width="3" fill="#fff" fill-opacity="0"/><use xlink:href="#c" transform="matrix(1,0,0,1,1265,345.00000000000006) translate(63.76543209876542 30.27777777777778)"/><path d="M500 910.33c0-3.32 2.7-6 6-6h8c3.3 0 6 2.68 6 6v148c0 3.3-2.7 6-6 6h-8c-3.3 0-6-2.7-6-6z" stroke="#5e5e5e" stroke-width="3"/><path d="M300 984.33c0 44.18-35.82 80-80 80s-80-35.82-80-80c0-44.2 35.82-80 80-80s80 35.8 80 80z" stroke="#5e5e5e" stroke-width="3" fill="#fff"/><path d="M1260 870.33c0-3.32 2.7-6 6-6h228c3.3 0 6 2.68 6 6v48c0 3.3-2.7 6-6 6h-228c-3.3 0-6-2.7-6-6z" stroke="#000" stroke-opacity="0" stroke-width="3" fill="#fff" fill-opacity="0"/><use xlink:href="#d" transform="matrix(1,0,0,1,1265,869.325929222255) translate(70 30.27777777777778)"/><path d="M1080 910.33c0-3.32 2.7-6 6-6h8c3.3 0 6 2.68 6 6v148c0 3.3-2.7 6-6 6h-8c-3.3 0-6-2.7-6-6z" stroke="#5e5e5e" stroke-width="3"/><path d="M880 984.33c0 44.18-35.82 80-80 80s-80-35.82-80-80c0-44.2 35.82-80 80-80s80 35.8 80 80zM1460 984.33c0 44.18-35.82 80-80 80s-80-35.82-80-80c0-44.2 35.82-80 80-80s80 35.8 80 80z" stroke="#5e5e5e" stroke-width="3" fill="#fff"/><path d="M680 870.33c0-3.32 2.7-6 6-6h228c3.3 0 6 2.68 6 6v48c0 3.3-2.7 6-6 6H686c-3.3 0-6-2.7-6-6z" stroke="#000" stroke-opacity="0" stroke-width="3" fill="#fff" fill-opacity="0"/><use xlink:href="#e" transform="matrix(1,0,0,1,685,869.325929222255) translate(69.96913580246914 30.27777777777778)"/><path d="M100 870.33c0-3.32 2.7-6 6-6h228c3.3 0 6 2.68 6 6v48c0 3.3-2.7 6-6 6H106c-3.3 0-6-2.7-6-6z" stroke="#000" stroke-opacity="0" stroke-width="3" fill="#fff" fill-opacity="0"/><use xlink:href="#f" transform="matrix(1,0,0,1,105,869.325929222255) translate(61.32716049382716 30.27777777777778)"/><path d="M220 440c0 11.05-8.95 20-20 20s-20-8.95-20-20 8.95-20 20-20 20 8.95 20 20zM260 440c0 11.05-8.95 20-20 20s-20-8.95-20-20 8.95-20 20-20 20 8.95 20 20zM220 480c0 11.05-8.95 20-20 20s-20-8.95-20-20 8.95-20 20-20 20 8.95 20 20zM260 480c0 11.05-8.95 20-20 20s-20-8.95-20-20 8.95-20 20-20 20 8.95 20 20zM240 964.33c0 11.04-8.95 20-20 20s-20-8.96-20-20c0-11.05 8.95-20 20-20s20 8.95 20 20z" stroke="#5e5e5e" stroke-width="3"/><path d="M240 1004.33c0 11.04-8.95 20-20 20s-20-8.96-20-20c0-11.05 8.95-20 20-20s20 8.95 20 20z" stroke="#5e5e5e" stroke-width="3"/><path d="M880 720c0 44.18-35.82 80-80 80s-80-35.82-80-80 35.82-80 80-80 80 35.82 80 80z" stroke="#5e5e5e" stroke-width="3" fill="#fff"/><path d="M820 680c0 11.05-8.95 20-20 20s-20-8.95-20-20 8.95-20 20-20 20 8.95 20 20zM780 740c0 11.05-8.95 20-20 20s-20-8.95-20-20 8.95-20 20-20 20 8.95 20 20zM860 740c0 11.05-8.95 20-20 20s-20-8.95-20-20 8.95-20 20-20 20 8.95 20 20z" stroke="#5e5e5e" stroke-width="3"/><path d="M302.5 984.33H480" stroke="#5e5e5e" stroke-width="2" fill="none"/><path d="M302.53 985.33h-1.06l.03-.98v-1.03h1.03z" fill="#5e5e5e"/><path d="M495.26 984.33L481 988.96v-9.27z" stroke="#5e5e5e" stroke-width="2" fill="#5e5e5e"/><path d="M522.5 984.33H700" stroke="#5e5e5e" stroke-width="2" fill="none"/><path d="M522.53 985.33h-1.03v-2h1.03z" fill="#5e5e5e"/><path d="M715.26 984.33L701 988.96v-9.27z" stroke="#5e5e5e" stroke-width="2" fill="#5e5e5e"/><path d="M882.5 984.33H1060" stroke="#5e5e5e" stroke-width="2" fill="none"/><path d="M882.53 985.33h-1.06l.03-.98v-1.03h1.03z" fill="#5e5e5e"/><path d="M1075.26 984.33l-14.26 4.63v-9.27z" stroke="#5e5e5e" stroke-width="2" fill="#5e5e5e"/><path d="M1102.5 984.33H1280" stroke="#5e5e5e" stroke-width="2" fill="none"/><path d="M1102.53 985.33h-1.03v-2h1.03z" fill="#5e5e5e"/><path d="M1295.26 984.33l-14.26 4.63v-9.27z" stroke="#5e5e5e" stroke-width="2" fill="#5e5e5e"/><path d="M1101 500h33c3.3 0 6 2.7 6 6v173.96c0 3.3-2.7 6-6 6H892.54" stroke="#5e5e5e" stroke-width="2" fill="none"/><path fill="#5e5e5e"/><path d="M877.28 685.96l14.26-4.64v9.27z" stroke="#5e5e5e" stroke-width="2" fill="#5e5e5e"/><path d="M1101 944.33h33c3.3 0 6-2.7 6-6V746.97c0-3.3-2.7-6-6-6H897.26" stroke="#5e5e5e" stroke-width="2" fill="none"/><path fill="#5e5e5e"/><path d="M882 740.97l14.26-4.63v9.27z" stroke="#5e5e5e" stroke-width="2" fill="#5e5e5e"/><path d="M721.64 745.72H466c-3.3 0-6 2.68-6 6v186.6c0 3.32 2.7 6 6 6h15.5" stroke="#5e5e5e" stroke-width="2" fill="none"/><path d="M722.64 745.72l.37 1h-1.4v-2h.74z" fill="#5e5e5e"/><path d="M496.76 944.33l-14.26 4.63v-9.27z" stroke="#5e5e5e" stroke-width="2" fill="#5e5e5e"/><path d="M725.3 685.2H464.5c-3.3 0-6-2.68-6-6V503.43c0-3.3 2.7-6 6-6H480" stroke="#5e5e5e" stroke-width="2" fill="none"/><path d="M726.14 685.5l-.3.7h-.58v-2h1.53z" fill="#5e5e5e"/><path d="M495.26 497.42L481 502.06v-9.27z" stroke="#5e5e5e" stroke-width="2" fill="#5e5e5e"/><path d="M600 180c0 44.18-35.82 80-80 80s-80-35.82-80-80 35.82-80 80-80 80 35.82 80 80z" stroke="#5e5e5e" stroke-width="3" fill="#fff"/><path d="M-180 46c0-3.3 2.7-6 6-6H54c3.3 0 6 2.7 6 6v48c0 3.3-2.7 6-6 6h-228c-3.3 0-6-2.7-6-6z" stroke="#000" stroke-opacity="0" stroke-width="3" fill="#fff" fill-opacity="0"/><use xlink:href="#g" transform="matrix(1,0,0,1,-175,45) translate(65.70987654320987 30.27777777777778)"/><path d="M210 86c0-3.3 2.7-6 6-6h8c3.3 0 6 2.7 6 6v148c0 3.3-2.7 6-6 6h-8c-3.3 0-6-2.7-6-6z" stroke="#5e5e5e" stroke-width="3"/><path d="M521 420h114.5c3.3 0 6-2.7 6-6V186c0-3.3-2.7-6-6-6H620" stroke="#999" stroke-width="2" fill="none"/><path fill="#999"/><path d="M604.74 180l14.26-4.64v9.28z" stroke="#999" stroke-width="2" fill="#999"/><path d="M437.5 180h-33c-3.3 0-6 2.7-6 6v228c0 3.3 2.7 6 6 6h77" stroke="#999" stroke-width="2" fill="none"/><path d="M438.5 179.98V181h-1.03v-2h1.06z" fill="#999"/><path d="M496.76 420l-14.26 4.64v-9.28z" stroke="#999" stroke-width="2" fill="#999"/><path d="M454.44 229.7h-33c-3.3 0-6 2.68-6 6v782.63c0 3.3 2.7 6 6 6h60.06" stroke="#999" stroke-width="2" fill="none"/><path d="M456.23 230.7h-1.8v-2h.23z" fill="#999"/><path d="M496.76 1024.33l-14.26 4.63v-9.27z" stroke="#999" stroke-width="2" fill="#999"/><path d="M521 1024.33h96.48c3.3 0 6-2.7 6-6V237.1c0-3.33-2.7-6-6-6h-15.5" stroke="#999" stroke-width="2" fill="none"/><path fill="#999"/><path d="M586.72 231.1l14.26-4.65v9.27z" stroke="#999" stroke-width="2" fill="#999"/><path d="M540 180c0 11.05-8.95 20-20 20s-20-8.95-20-20 8.95-20 20-20 20 8.95 20 20z" stroke="#5e5e5e" stroke-width="3"/><path d="M440.86 156.9H250" stroke="#5e5e5e" stroke-width="2" fill="none"/><path d="M441.57 157.9h-.73v-2h1.3z" fill="#5e5e5e"/><path d="M234.74 156.9l14.26-4.65v9.27z" stroke="#5e5e5e" stroke-width="2" fill="#5e5e5e"/><path d="M400 66c0-3.3 2.7-6 6-6h228c3.3 0 6 2.7 6 6v48c0 3.3-2.7 6-6 6H406c-3.3 0-6-2.7-6-6z" stroke="#000" stroke-opacity="0" stroke-width="3" fill="#fff" fill-opacity="0"/><use xlink:href="#h" transform="matrix(1,0,0,1,405,65) translate(36.111111111111114 30.27777777777778)"/><use xlink:href="#i" transform="matrix(1,0,0,1,405,65) translate(95.30864197530865 30.27777777777778)"/><path d="M20 160c0 44.18-35.82 80-80 80s-80-35.82-80-80 35.82-80 80-80 80 35.82 80 80z" stroke="#5e5e5e" stroke-width="3" fill="#fff"/><path d="M207.5 160H40" stroke="#5e5e5e" stroke-width="2" fill="none"/><path d="M208.5 161h-1.03v-2h1.03z" fill="#5e5e5e"/><path d="M24.74 160L39 155.36v9.28z" stroke="#5e5e5e" stroke-width="2" fill="#5e5e5e"/><path d="M500 1366c0-3.3 2.7-6 6-6h8c3.3 0 6 2.7 6 6v148c0 3.3-2.7 6-6 6h-8c-3.3 0-6-2.7-6-6z" stroke="#5e5e5e" stroke-width="3"/><path d="M522.5 1440H700" stroke="#5e5e5e" stroke-width="2" fill="none"/><path d="M522.53 1441h-1.03v-2h1.03z" fill="#5e5e5e"/><path d="M715.26 1440l-14.26 4.64v-9.28z" stroke="#5e5e5e" stroke-width="2" fill="#5e5e5e"/><path d="M1080 1366c0-3.3 2.7-6 6-6h8c3.3 0 6 2.7 6 6v148c0 3.3-2.7 6-6 6h-8c-3.3 0-6-2.7-6-6z" stroke="#5e5e5e" stroke-width="3"/><path d="M880 1440c0 44.18-35.82 80-80 80s-80-35.82-80-80 35.82-80 80-80 80 35.82 80 80z" stroke="#5e5e5e" stroke-width="3" fill="#fff"/><path d="M882.5 1440H1060" stroke="#5e5e5e" stroke-width="2" fill="none"/><path d="M882.53 1441h-1.06l.03-.98V1439h1.03z" fill="#5e5e5e"/><path d="M1075.26 1440l-14.26 4.64v-9.28z" stroke="#5e5e5e" stroke-width="2" fill="#5e5e5e"/><path d="M1102.5 1440H1280" stroke="#5e5e5e" stroke-width="2" fill="none"/><path d="M1102.53 1441h-1.03v-2h1.03z" fill="#5e5e5e"/><path d="M1295.26 1440l-14.26 4.64v-9.28z" stroke="#5e5e5e" stroke-width="2" fill="#5e5e5e"/><path d="M1460 1440c0 44.18-35.82 80-80 80s-80-35.82-80-80 35.82-80 80-80 80 35.82 80 80z" stroke="#5e5e5e" stroke-width="3" fill="#fff"/><path d="M680 1326c0-3.3 2.7-6 6-6h228c3.3 0 6 2.7 6 6v48c0 3.3-2.7 6-6 6H686c-3.3 0-6-2.7-6-6z" stroke="#000" stroke-opacity="0" stroke-width="3" fill="#fff" fill-opacity="0"/><use xlink:href="#b" transform="matrix(1,0,0,1,685,1325) translate(72.4074074074074 30.27777777777778)"/><path d="M1260 1326c0-3.3 2.7-6 6-6h228c3.3 0 6 2.7 6 6v48c0 3.3-2.7 6-6 6h-228c-3.3 0-6-2.7-6-6z" stroke="#000" stroke-opacity="0" stroke-width="3" fill="#fff" fill-opacity="0"/><use xlink:href="#c" transform="matrix(1,0,0,1,1265,1325) translate(63.76543209876542 30.27777777777778)"/><path d="M500 2106c0-3.3 2.7-6 6-6h8c3.3 0 6 2.7 6 6v148c0 3.3-2.7 6-6 6h-8c-3.3 0-6-2.7-6-6z" stroke="#5e5e5e" stroke-width="3"/><path d="M1260 2066c0-3.3 2.7-6 6-6h228c3.3 0 6 2.7 6 6v48c0 3.3-2.7 6-6 6h-228c-3.3 0-6-2.7-6-6z" stroke="#000" stroke-opacity="0" stroke-width="3" fill="#fff" fill-opacity="0"/><use xlink:href="#d" transform="matrix(1,0,0,1,1265,2065) translate(70 30.27777777777778)"/><path d="M1080 2106c0-3.3 2.7-6 6-6h8c3.3 0 6 2.7 6 6v148c0 3.3-2.7 6-6 6h-8c-3.3 0-6-2.7-6-6z" stroke="#5e5e5e" stroke-width="3"/><path d="M880 2180c0 44.18-35.82 80-80 80s-80-35.82-80-80 35.82-80 80-80 80 35.82 80 80zM1460 2180c0 44.18-35.82 80-80 80s-80-35.82-80-80 35.82-80 80-80 80 35.82 80 80z" stroke="#5e5e5e" stroke-width="3" fill="#fff"/><path d="M680 2066c0-3.3 2.7-6 6-6h228c3.3 0 6 2.7 6 6v48c0 3.3-2.7 6-6 6H686c-3.3 0-6-2.7-6-6z" stroke="#000" stroke-opacity="0" stroke-width="3" fill="#fff" fill-opacity="0"/><use xlink:href="#e" transform="matrix(1,0,0,1,684.9999999999999,2065) translate(69.96913580246914 30.27777777777778)"/><path d="M880 1957.52c0 44.2-35.82 80-80 80s-80-35.8-80-80c0-44.18 35.82-80 80-80s80 35.82 80 80z" stroke="#5e5e5e" stroke-width="3" fill="#fff"/><path d="M820 1917.52c0 11.05-8.95 20-20 20s-20-8.95-20-20c0-11.04 8.95-20 20-20s20 8.96 20 20zM780 1977.52c0 11.05-8.95 20-20 20s-20-8.95-20-20c0-11.04 8.95-20 20-20s20 8.96 20 20zM860 1977.52c0 11.05-8.95 20-20 20s-20-8.95-20-20c0-11.04 8.95-20 20-20s20 8.96 20 20z" stroke="#5e5e5e" stroke-width="3"/><path d="M522.5 2180H700" stroke="#5e5e5e" stroke-width="2" fill="none"/><path d="M522.53 2181h-1.03v-2h1.03z" fill="#5e5e5e"/><path d="M715.26 2180l-14.26 4.64v-9.28z" stroke="#5e5e5e" stroke-width="2" fill="#5e5e5e"/><path d="M882.5 2180H1060" stroke="#5e5e5e" stroke-width="2" fill="none"/><path d="M882.53 2181h-1.06l.03-.98V2179h1.03z" fill="#5e5e5e"/><path d="M1075.26 2180l-14.26 4.64v-9.28z" stroke="#5e5e5e" stroke-width="2" fill="#5e5e5e"/><path d="M1102.5 2180H1280" stroke="#5e5e5e" stroke-width="2" fill="none"/><path d="M1102.53 2181h-1.03v-2h1.03z" fill="#5e5e5e"/><path d="M1295.26 2180l-14.26 4.64v-9.28z" stroke="#5e5e5e" stroke-width="2" fill="#5e5e5e"/><path d="M1101 2140h33c3.3 0 6-2.7 6-6v-170.48c0-3.3-2.7-6-6-6H900" stroke="#5e5e5e" stroke-width="2" fill="none"/><path fill="#5e5e5e"/><path d="M884.74 1957.52l14.26-4.63v9.26z" stroke="#5e5e5e" stroke-width="2" fill="#5e5e5e"/><path d="M137.5 460H56c-3.3 0-6 2.7-6 6v968c0 3.3 2.7 6 6 6h424" stroke="#5e5e5e" stroke-width="2" fill="none"/><path d="M138.5 459.98V461h-1.03v-2h1.06z" fill="#5e5e5e"/><path d="M495.26 1440l-14.26 4.64v-9.28z" stroke="#5e5e5e" stroke-width="2" fill="#5e5e5e"/><path d="M137.5 984.33H96c-3.3 0-6 2.68-6 6V2174c0 3.3 2.7 6 6 6h384" stroke="#5e5e5e" stroke-width="2" fill="none"/><path d="M138.5 984.3v1.03h-1.03v-2h1.06z" fill="#5e5e5e"/><path d="M495.26 2180l-14.26 4.64v-9.28z" stroke="#5e5e5e" stroke-width="2" fill="#5e5e5e"/><path d="M717.5 1957.52H466c-3.3 0-6 2.7-6 6V2134c0 3.3 2.7 6 6 6h15.5" stroke="#5e5e5e" stroke-width="2" fill="none"/><path d="M718.5 1957.5v1.03h-1.03v-2h1.06z" fill="#5e5e5e"/><path d="M496.76 2140l-14.26 4.64v-9.28z" stroke="#5e5e5e" stroke-width="2" fill="#5e5e5e"/><path d="M880 1660c0 44.18-35.82 80-80 80s-80-35.82-80-80 35.82-80 80-80 80 35.82 80 80z" stroke="#5e5e5e" stroke-width="3" fill="#fff"/><path d="M717.5 1660H466c-3.3 0-6-2.7-6-6v-168c0-3.3 2.7-6 6-6h15.5" stroke="#5e5e5e" stroke-width="2" fill="none"/><path d="M718.5 1659.98v1.03h-1.03v-2h1.06z" fill="#5e5e5e"/><path d="M496.76 1480l-14.26 4.64v-9.28z" stroke="#5e5e5e" stroke-width="2" fill="#5e5e5e"/><path d="M1101 1480h33c3.3 0 6 2.7 6 6v168c0 3.3-2.7 6-6 6H900" stroke="#5e5e5e" stroke-width="2" fill="none"/><path fill="#5e5e5e"/><path d="M884.74 1660l14.26-4.64v9.28z" stroke="#5e5e5e" stroke-width="2" fill="#5e5e5e"/><path d="M667.08 1764.15l-.4 1.02-1.4 4-1.2 4.17-1.04 4.37-.84 4.64-.64 4.96-.4 5.35-.14 4.87-2-.05.13-4.92.42-5.46.65-5.06.86-4.74 1.05-4.47 1.24-4.26 1.43-4.1 1.6-4 .68-1.42zm47.52-52.22l-1.63 1.03-9.27 6.6-6.9 5.47-5.48 4.83-4.53 4.42-3.67 3.95v-2.94l2.23-2.42 4.6-4.5 5.56-4.9 6.98-5.52 9.35-6.66 1.68-1.06z" fill="#5e5e5e"/><path d="M661.03 1797.5l-.03 1h-2l.03-1.05zM717.38 1714.48l-4.93-7.85 14.54-3.67z" fill="#5e5e5e"/><path d="M717.26 1716.17l-6.4-10.18 18.87-4.76zm-3.24-8.9l3.47 5.5 6.75-8.1z" fill="#5e5e5e"/><use xlink:href="#j" transform="matrix(1,0,0,1,667.0834293312206,1729.5957910203035) translate(0.005000000000000782 23.1111111111111)"/><path d="M690.23 1887.13l5.54 4.84 7.1 5.6 9.92 6.96 16.6 10.38-1.05 1.7-16.66-10.4-10.02-7.04-7.2-5.65-5.6-4.9-.22-.22v-2.8zM662.7 1840l.95 4.32 1.14 4.1 1.3 3.94 1.52 3.82 1.7 3.73 1.93 3.7 1.36 2.3v3.75l-.87-1.32-2.23-3.76-1.97-3.78-1.75-3.84-1.55-3.9-1.35-4.05-1.17-4.2-.97-4.42-.05-.32 1.97-.32z" fill="#5e5e5e"/><path d="M730.24 1915.43l-1.02 1.72-.9-.56 1.07-1.7zM666.2 1838.5l-9.24.85 3.33-14.63z" fill="#5e5e5e"/><path d="M667.66 1839.38l-11.98 1.1 4.32-18.98zm-9.42-1.15l6.5-.6-4.16-9.68z" fill="#5e5e5e"/><use xlink:href="#j" transform="matrix(1,0,0,1,672.6069739424444,1861.2987965211455) translate(0.005000000000000782 23.1111111111111)"/><path d="M860 1804.76c0-3.3 2.7-6 6-6h148c3.3 0 6 2.7 6 6v8c0 3.32-2.7 6-6 6H866c-3.3 0-6-2.68-6-6zM580 1806c0-3.3 2.7-6 6-6h148c3.3 0 6 2.7 6 6v8c0 3.3-2.7 6-6 6H586c-3.3 0-6-2.7-6-6z" stroke="#5e5e5e" stroke-width="3"/><path d="M929.52 1751.17l2.07 3.85 1.84 3.9 1.63 3.98 1.45 4.1 1.26 4.26 1.07 4.47.54 2.94-1.97.37-.54-2.9-1.06-4.36-1.23-4.16-1.4-4-1.6-3.9-1.8-3.8-1.87-3.48v-3.9zm-42.74-41.93l9.77 6.84 7.22 5.64 5.7 4.97 2.4 2.3v2.78l-3.74-3.62-5.64-4.9-7.14-5.57-9.68-6.8-14.6-9.12 1.06-1.7z" fill="#5e5e5e"/><path d="M872.16 1700.1l-1.06 1.7-.85-.54 1.02-1.72zM939.72 1794.04l-5.85-13.82 9.24-.8z" fill="#5e5e5e"/><path d="M940 1797.26l-7.58-17.9 11.98-1.05zm-4.67-16.16l4.1 9.7 2.4-10.26z" fill="#5e5e5e"/><use xlink:href="#j" transform="matrix(1,0,0,1,911.8812970480815,1721.7633145045347) translate(0.005000000000000782 23.1111111111111)"/><path d="M922.6 1873.66l-.65.82-3.52 4-4.15 4.24-5.05 4.63-6.4 5.26-8.7 6.4-9.05 5.94-1.1-1.67 9.02-5.9 8.6-6.34 6.3-5.2 5-4.55 4.07-4.17 3.44-3.9 2.2-2.77zm18.37-52.37l-.12 4.52-.4 5.1-.64 4.72-.82 4.43-.62 2.5h-2.06l.72-2.92.82-4.33.62-4.62.4-5 .1-4.46z" fill="#5e5e5e"/><path d="M940.97 1821.3l-2-.04.03-1h2zM886.13 1908.57l-14.56 3.6 9.67-11.48z" fill="#5e5e5e"/><path d="M887.7 1909.2l-18.88 4.67 12.54-14.87zm-13.38 1.25l10.24-2.52-3.44-5.54z" fill="#5e5e5e"/><use xlink:href="#j" transform="matrix(1,0,0,1,922.592492048385,1842.5821083057106) translate(0.005000000000000782 23.1111111111111)"/><path d="M440 1764.76c0-3.3 2.7-6 6-6h228c3.3 0 6 2.7 6 6v48c0 3.32-2.7 6-6 6H446c-3.3 0-6-2.68-6-6z" stroke="#000" stroke-opacity="0" stroke-width="3" fill="#fff" fill-opacity="0"/><use xlink:href="#k" transform="matrix(1,0,0,1,445,1763.7618782370046) translate(39.16666666666666 30.27777777777778)"/><use xlink:href="#l" transform="matrix(1,0,0,1,445,1763.7618782370046) translate(108.179012345679 30.27777777777778)"/><path d="M920 1761.67c0-3.3 2.7-6 6-6h228c3.3 0 6 2.7 6 6v48c0 3.32-2.7 6-6 6H926c-3.3 0-6-2.68-6-6z" stroke="#000" stroke-opacity="0" stroke-width="3" fill="#fff" fill-opacity="0"/><g><use xlink:href="#k" transform="matrix(1,0,0,1,924.9999999999999,1760.6740707777449) translate(39.16666666666666 30.27777777777778)"/><use xlink:href="#l" transform="matrix(1,0,0,1,924.9999999999999,1760.6740707777449) translate(108.179012345679 30.27777777777778)"/></g><defs><path fill="#333" d="M108 0H70L1-190h34L89-25l56-165h34" id="m"/><path fill="#333" d="M100-194c62-1 85 37 85 99 1 63-27 99-86 99S16-35 15-95c0-66 28-99 85-99zM99-20c44 1 53-31 53-75 0-43-8-75-51-75s-53 32-53 75 10 74 51 75" id="n"/><path fill="#333" d="M114-163C36-179 61-72 57 0H25l-1-190h30c1 12-1 29 2 39 6-27 23-49 58-41v29" id="o"/><path fill="#333" d="M140-251c81 0 123 46 123 126C263-46 219 4 140 4 59 4 17-45 17-125s42-126 123-126zm0 227c63 0 89-41 89-101s-29-99-89-99c-61 0-89 39-89 99S79-25 140-24" id="p"/><path fill="#333" d="M115-194c53 0 69 39 70 98 0 66-23 100-70 100C84 3 66-7 56-30L54 0H23l1-261h32v101c10-23 28-34 59-34zm-8 174c40 0 45-34 45-75 0-40-5-75-45-74-42 0-51 32-51 76 0 43 10 73 51 73" id="q"/><path fill="#333" d="M100-194c63 0 86 42 84 106H49c0 40 14 67 53 68 26 1 43-12 49-29l28 8c-11 28-37 45-77 45C44 4 14-33 15-96c1-61 26-98 85-98zm52 81c6-60-76-77-97-28-3 7-6 17-6 28h103" id="r"/><path fill="#333" d="M117-194c89-4 53 116 60 194h-32v-121c0-31-8-49-39-48C34-167 62-67 57 0H25l-1-190h30c1 10-1 24 2 32 11-22 29-35 61-36" id="s"/><g id="a"><use transform="matrix(0.06172839506172839,0,0,0.06172839506172839,0,0)" xlink:href="#m"/><use transform="matrix(0.06172839506172839,0,0,0.06172839506172839,11.11111111111111,0)" xlink:href="#n"/><use transform="matrix(0.06172839506172839,0,0,0.06172839506172839,23.45679012345679,0)" xlink:href="#o"/><use transform="matrix(0.06172839506172839,0,0,0.06172839506172839,30.80246913580247,0)" xlink:href="#p"/><use transform="matrix(0.06172839506172839,0,0,0.06172839506172839,48.08641975308642,0)" xlink:href="#q"/><use transform="matrix(0.06172839506172839,0,0,0.06172839506172839,60.432098765432094,0)" xlink:href="#r"/><use transform="matrix(0.06172839506172839,0,0,0.06172839506172839,72.77777777777777,0)" xlink:href="#s"/></g><path fill="#333" d="M141-36C126-15 110 5 73 4 37 3 15-17 15-53c-1-64 63-63 125-63 3-35-9-54-41-54-24 1-41 7-42 31l-33-3c5-37 33-52 76-52 45 0 72 20 72 64v82c-1 20 7 32 28 27v20c-31 9-61-2-59-35zM48-53c0 20 12 33 32 33 41-3 63-29 60-74-43 2-92-5-92 41" id="t"/><path fill="#333" d="M84 4C-5 8 30-112 23-190h32v120c0 31 7 50 39 49 72-2 45-101 50-169h31l1 190h-30c-1-10 1-25-2-33-11 22-28 36-60 37" id="u"/><path fill="#333" d="M101-234c-31-9-42 10-38 44h38v23H63V0H32v-167H5v-23h27c-7-52 17-82 69-68v24" id="v"/><g id="b"><use transform="matrix(0.06172839506172839,0,0,0.06172839506172839,0,0)" xlink:href="#t"/><use transform="matrix(0.06172839506172839,0,0,0.06172839506172839,12.345679012345679,0)" xlink:href="#u"/><use transform="matrix(0.06172839506172839,0,0,0.06172839506172839,24.691358024691358,0)" xlink:href="#v"/><use transform="matrix(0.06172839506172839,0,0,0.06172839506172839,30.864197530864196,0)" xlink:href="#p"/><use transform="matrix(0.06172839506172839,0,0,0.06172839506172839,48.148148148148145,0)" xlink:href="#q"/><use transform="matrix(0.06172839506172839,0,0,0.06172839506172839,60.49382716049382,0)" xlink:href="#r"/><use transform="matrix(0.06172839506172839,0,0,0.06172839506172839,72.8395061728395,0)" xlink:href="#s"/></g><path fill="#333" d="M96-169c-40 0-48 33-48 73s9 75 48 75c24 0 41-14 43-38l32 2c-6 37-31 61-74 61-59 0-76-41-82-99-10-93 101-131 147-64 4 7 5 14 7 22l-32 3c-4-21-16-35-41-35" id="w"/><path fill="#333" d="M106-169C34-169 62-67 57 0H25v-261h32l-1 103c12-21 28-36 61-36 89 0 53 116 60 194h-32v-121c2-32-8-49-39-48" id="x"/><g id="c"><use transform="matrix(0.06172839506172839,0,0,0.06172839506172839,0,0)" xlink:href="#s"/><use transform="matrix(0.06172839506172839,0,0,0.06172839506172839,12.345679012345679,0)" xlink:href="#t"/><use transform="matrix(0.06172839506172839,0,0,0.06172839506172839,24.691358024691358,0)" xlink:href="#w"/><use transform="matrix(0.06172839506172839,0,0,0.06172839506172839,35.80246913580247,0)" xlink:href="#x"/><use transform="matrix(0.06172839506172839,0,0,0.06172839506172839,48.148148148148145,0)" xlink:href="#p"/><use transform="matrix(0.06172839506172839,0,0,0.06172839506172839,65.4320987654321,0)" xlink:href="#q"/><use transform="matrix(0.06172839506172839,0,0,0.06172839506172839,77.77777777777779,0)" xlink:href="#r"/><use transform="matrix(0.06172839506172839,0,0,0.06172839506172839,90.12345679012347,0)" xlink:href="#s"/></g><path fill="#333" d="M232-93c-1 65-40 97-104 97C67 4 28-28 28-90v-158h33c8 89-33 224 67 224 102 0 64-133 71-224h33v155" id="y"/><path fill="#333" d="M59-47c-2 24 18 29 38 22v24C64 9 27 4 27-40v-127H5v-23h24l9-43h21v43h35v23H59v120" id="z"/><g id="d"><use transform="matrix(0.06172839506172839,0,0,0.06172839506172839,0,0)" xlink:href="#m"/><use transform="matrix(0.06172839506172839,0,0,0.06172839506172839,11.11111111111111,0)" xlink:href="#n"/><use transform="matrix(0.06172839506172839,0,0,0.06172839506172839,23.45679012345679,0)" xlink:href="#o"/><use transform="matrix(0.06172839506172839,0,0,0.06172839506172839,30.80246913580247,0)" xlink:href="#y"/><use transform="matrix(0.06172839506172839,0,0,0.06172839506172839,46.79012345679012,0)" xlink:href="#s"/><use transform="matrix(0.06172839506172839,0,0,0.06172839506172839,59.1358024691358,0)" xlink:href="#z"/><use transform="matrix(0.06172839506172839,0,0,0.06172839506172839,65.30864197530863,0)" xlink:href="#r"/><use transform="matrix(0.06172839506172839,0,0,0.06172839506172839,77.65432098765432,0)" xlink:href="#s"/></g><g id="e"><use transform="matrix(0.06172839506172839,0,0,0.06172839506172839,0,0)" xlink:href="#t"/><use transform="matrix(0.06172839506172839,0,0,0.06172839506172839,12.345679012345679,0)" xlink:href="#u"/><use transform="matrix(0.06172839506172839,0,0,0.06172839506172839,24.691358024691358,0)" xlink:href="#v"/><use transform="matrix(0.06172839506172839,0,0,0.06172839506172839,30.864197530864196,0)" xlink:href="#y"/><use transform="matrix(0.06172839506172839,0,0,0.06172839506172839,46.85185185185185,0)" xlink:href="#s"/><use transform="matrix(0.06172839506172839,0,0,0.06172839506172839,59.197530864197525,0)" xlink:href="#z"/><use transform="matrix(0.06172839506172839,0,0,0.06172839506172839,65.37037037037037,0)" xlink:href="#r"/><use transform="matrix(0.06172839506172839,0,0,0.06172839506172839,77.71604938271605,0)" xlink:href="#s"/></g><g id="f"><use transform="matrix(0.06172839506172839,0,0,0.06172839506172839,0,0)" xlink:href="#s"/><use transform="matrix(0.06172839506172839,0,0,0.06172839506172839,12.345679012345679,0)" xlink:href="#t"/><use transform="matrix(0.06172839506172839,0,0,0.06172839506172839,24.691358024691358,0)" xlink:href="#w"/><use transform="matrix(0.06172839506172839,0,0,0.06172839506172839,35.80246913580247,0)" xlink:href="#x"/><use transform="matrix(0.06172839506172839,0,0,0.06172839506172839,48.148148148148145,0)" xlink:href="#y"/><use transform="matrix(0.06172839506172839,0,0,0.06172839506172839,64.1358024691358,0)" xlink:href="#s"/><use transform="matrix(0.06172839506172839,0,0,0.06172839506172839,76.48148148148148,0)" xlink:href="#z"/><use transform="matrix(0.06172839506172839,0,0,0.06172839506172839,82.65432098765432,0)" xlink:href="#r"/><use transform="matrix(0.06172839506172839,0,0,0.06172839506172839,95,0)" xlink:href="#s"/></g><path fill="#333" d="M233-177c-1 41-23 64-60 70L243 0h-38l-65-103H63V0H30v-248c88 3 205-21 203 71zM63-129c60-2 137 13 137-47 0-61-80-42-137-45v92" id="A"/><path fill="#333" d="M115-194c55 1 70 41 70 98S169 2 115 4C84 4 66-9 55-30l1 105H24l-1-265h31l2 30c10-21 28-34 59-34zm-8 174c40 0 45-34 45-75s-6-73-45-74c-42 0-51 32-51 76 0 43 10 73 51 73" id="B"/><g id="g"><use transform="matrix(0.06172839506172839,0,0,0.06172839506172839,0,0)" xlink:href="#A"/><use transform="matrix(0.06172839506172839,0,0,0.06172839506172839,15.987654320987653,0)" xlink:href="#r"/><use transform="matrix(0.06172839506172839,0,0,0.06172839506172839,28.333333333333332,0)" xlink:href="#B"/><use transform="matrix(0.06172839506172839,0,0,0.06172839506172839,40.67901234567901,0)" xlink:href="#r"/><use transform="matrix(0.06172839506172839,0,0,0.06172839506172839,53.02469135802469,0)" xlink:href="#o"/><use transform="matrix(0.06172839506172839,0,0,0.06172839506172839,60.37037037037037,0)" xlink:href="#t"/><use transform="matrix(0.06172839506172839,0,0,0.06172839506172839,72.71604938271605,0)" xlink:href="#z"/><use transform="matrix(0.06172839506172839,0,0,0.06172839506172839,78.88888888888889,0)" xlink:href="#u"/><use transform="matrix(0.06172839506172839,0,0,0.06172839506172839,91.23456790123457,0)" xlink:href="#o"/></g><path fill="#333" d="M143 0L79-87 56-68V0H24v-261h32v163l83-92h37l-77 82L181 0h-38" id="C"/><path fill="#333" d="M24-231v-30h32v30H24zM24 0v-190h32V0H24" id="D"/><g id="h"><use transform="matrix(0.06172839506172839,0,0,0.06172839506172839,0,0)" xlink:href="#C"/><use transform="matrix(0.06172839506172839,0,0,0.06172839506172839,11.11111111111111,0)" xlink:href="#r"/><use transform="matrix(0.06172839506172839,0,0,0.06172839506172839,23.45679012345679,0)" xlink:href="#D"/><use transform="matrix(0.06172839506172839,0,0,0.06172839506172839,28.333333333333336,0)" xlink:href="#s"/><use transform="matrix(0.06172839506172839,0,0,0.06172839506172839,40.67901234567901,0)" xlink:href="#r"/></g><g id="i"><use transform="matrix(0.06172839506172839,0,0,0.06172839506172839,0,0)" xlink:href="#A"/><use transform="matrix(0.06172839506172839,0,0,0.06172839506172839,15.987654320987653,0)" xlink:href="#r"/><use transform="matrix(0.06172839506172839,0,0,0.06172839506172839,28.333333333333332,0)" xlink:href="#B"/><use transform="matrix(0.06172839506172839,0,0,0.06172839506172839,40.67901234567901,0)" xlink:href="#r"/><use transform="matrix(0.06172839506172839,0,0,0.06172839506172839,53.02469135802469,0)" xlink:href="#o"/><use transform="matrix(0.06172839506172839,0,0,0.06172839506172839,60.37037037037037,0)" xlink:href="#t"/><use transform="matrix(0.06172839506172839,0,0,0.06172839506172839,72.71604938271605,0)" xlink:href="#z"/><use transform="matrix(0.06172839506172839,0,0,0.06172839506172839,78.88888888888889,0)" xlink:href="#u"/><use transform="matrix(0.06172839506172839,0,0,0.06172839506172839,91.23456790123457,0)" xlink:href="#o"/></g><path fill="#333" d="M128-127c34 4 56 21 59 58 7 91-148 94-172 28-4-9-6-17-7-26l51-5c1 24 16 35 40 36 23 0 39-12 38-36-1-31-31-36-65-34v-40c32 2 59-3 59-33 0-20-13-33-34-33s-33 13-35 32l-50-3c6-44 37-68 86-68 50 0 83 20 83 66 0 35-22 52-53 58" id="E"/><use transform="matrix(0.08024691358024688,0,0,0.08024691358024688,0,0)" xlink:href="#E" id="j"/><path fill="#333" d="M205 0l-28-72H64L36 0H1l101-248h38L239 0h-34zm-38-99l-47-123c-12 45-31 82-46 123h93" id="F"/><path fill="#333" d="M210-169c-67 3-38 105-44 169h-31v-121c0-29-5-50-35-48C34-165 62-65 56 0H25l-1-190h30c1 10-1 24 2 32 10-44 99-50 107 0 11-21 27-35 58-36 85-2 47 119 55 194h-31v-121c0-29-5-49-35-48" id="G"/><path fill="#333" d="M24 0v-261h32V0H24" id="H"/><g id="k"><use transform="matrix(0.06172839506172839,0,0,0.06172839506172839,0,0)" xlink:href="#F"/><use transform="matrix(0.06172839506172839,0,0,0.06172839506172839,14.814814814814813,0)" xlink:href="#G"/><use transform="matrix(0.06172839506172839,0,0,0.06172839506172839,33.2716049382716,0)" xlink:href="#B"/><use transform="matrix(0.06172839506172839,0,0,0.06172839506172839,45.61728395061728,0)" xlink:href="#r"/><use transform="matrix(0.06172839506172839,0,0,0.06172839506172839,57.962962962962955,0)" xlink:href="#H"/></g><path fill="#333" d="M135-143c-3-34-86-38-87 0 15 53 115 12 119 90S17 21 10-45l28-5c4 36 97 45 98 0-10-56-113-15-118-90-4-57 82-63 122-42 12 7 21 19 24 35" id="I"/><g id="l"><use transform="matrix(0.06172839506172839,0,0,0.06172839506172839,0,0)" xlink:href="#I"/><use transform="matrix(0.06172839506172839,0,0,0.06172839506172839,11.11111111111111,0)" xlink:href="#w"/><use transform="matrix(0.06172839506172839,0,0,0.06172839506172839,22.22222222222222,0)" xlink:href="#x"/><use transform="matrix(0.06172839506172839,0,0,0.06172839506172839,34.5679012345679,0)" xlink:href="#t"/><use transform="matrix(0.06172839506172839,0,0,0.06172839506172839,46.913580246913575,0)" xlink:href="#H"/><use transform="matrix(0.06172839506172839,0,0,0.06172839506172839,51.79012345679012,0)" xlink:href="#z"/><use transform="matrix(0.06172839506172839,0,0,0.06172839506172839,57.96296296296296,0)" xlink:href="#r"/><use transform="matrix(0.06172839506172839,0,0,0.06172839506172839,70.30864197530865,0)" xlink:href="#s"/></g></defs></g></svg>