<svg xmlns="http://www.w3.org/2000/svg" xmlns:xlink="http://www.w3.org/1999/xlink" xmlns:lucid="lucid" width="1732.58" height="830"><g transform="translate(-147.41975308642 -100)" lucid:page-tab-id="0_0"><path d="M820 870c0 22.1-17.9 40-40 40s-40-17.9-40-40 17.9-40 40-40 40 17.9 40 40zM360 230c0 16.57-13.43 30-30 30s-30-13.43-30-30 13.43-30 30-30 30 13.43 30 30z" stroke="#5e5e5e" stroke-width="3" fill="#fff"/><use xlink:href="#a" transform="matrix(1,0,0,1,305,205) translate(12.654320987654321 30.27777777777778)"/><path d="M560 230c0 16.57-13.43 30-30 30s-30-13.43-30-30 13.43-30 30-30 30 13.43 30 30z" stroke="#5e5e5e" stroke-width="3" fill="#fff"/><use xlink:href="#b" transform="matrix(1,0,0,1,505,205) translate(12.654320987654321 30.27777777777778)"/><path d="M760 230c0 16.57-13.43 30-30 30s-30-13.43-30-30 13.43-30 30-30 30 13.43 30 30z" stroke="#5e5e5e" stroke-width="3" fill="#fff"/><use xlink:href="#c" transform="matrix(1,0,0,1,705,205) translate(12.654320987654321 30.27777777777778)"/><path d="M360 430c0 16.57-13.43 30-30 30s-30-13.43-30-30 13.43-30 30-30 30 13.43 30 30z" stroke="#5e5e5e" stroke-width="3" fill="#fff"/><use xlink:href="#d" transform="matrix(1,0,0,1,305,405) translate(12.654320987654321 30.27777777777778)"/><path d="M560 430c0 16.57-13.43 30-30 30s-30-13.43-30-30 13.43-30 30-30 30 13.43 30 30z" stroke="#5e5e5e" stroke-width="3" fill="#fff"/><use xlink:href="#e" transform="matrix(1,0,0,1,505,405) translate(12.654320987654321 30.27777777777778)"/><path d="M760 430c0 16.57-13.43 30-30 30s-30-13.43-30-30 13.43-30 30-30 30 13.43 30 30z" stroke="#5e5e5e" stroke-width="3" fill="#fff"/><use xlink:href="#f" transform="matrix(1,0,0,1,705,405) translate(12.654320987654321 30.27777777777778)"/><path d="M360 630c0 16.57-13.43 30-30 30s-30-13.43-30-30 13.43-30 30-30 30 13.43 30 30z" stroke="#5e5e5e" stroke-width="3" fill="#fff"/><use xlink:href="#g" transform="matrix(1,0,0,1,305,605) translate(12.654320987654321 30.27777777777778)"/><path d="M560 630c0 16.57-13.43 30-30 30s-30-13.43-30-30 13.43-30 30-30 30 13.43 30 30z" stroke="#5e5e5e" stroke-width="3" fill="#fff"/><use xlink:href="#h" transform="matrix(1,0,0,1,505,605) translate(12.654320987654321 30.27777777777778)"/><path d="M760 630c0 16.57-13.43 30-30 30s-30-13.43-30-30 13.43-30 30-30 30 13.43 30 30z" stroke="#5e5e5e" stroke-width="3" fill="#fff"/><use xlink:href="#i" transform="matrix(1,0,0,1,705,605) translate(12.654320987654321 30.27777777777778)"/><path d="M1460 230c0 16.57-13.43 30-30 30s-30-13.43-30-30 13.43-30 30-30 30 13.43 30 30z" stroke="#5e5e5e" stroke-width="3" fill="#fff"/><use xlink:href="#j" transform="matrix(1,0,0,1,1405,205) translate(12.654320987654321 30.27777777777778)"/><path d="M1660 230c0 16.57-13.43 30-30 30s-30-13.43-30-30 13.43-30 30-30 30 13.43 30 30z" stroke="#5e5e5e" stroke-width="3" fill="#fff"/><use xlink:href="#k" transform="matrix(1,0,0,1,1605,205) translate(12.654320987654321 30.27777777777778)"/><path d="M1860 230c0 16.57-13.43 30-30 30s-30-13.43-30-30 13.43-30 30-30 30 13.43 30 30z" stroke="#5e5e5e" stroke-width="3" fill="#fff"/><use xlink:href="#l" transform="matrix(1,0,0,1,1805,205) translate(12.654320987654321 30.27777777777778)"/><path d="M1460 430c0 16.57-13.43 30-30 30s-30-13.43-30-30 13.43-30 30-30 30 13.43 30 30z" stroke="#5e5e5e" stroke-width="3" fill="#fff"/><use xlink:href="#m" transform="matrix(1,0,0,1,1405,405) translate(12.654320987654321 30.27777777777778)"/><path d="M1660 430c0 16.57-13.43 30-30 30s-30-13.43-30-30 13.43-30 30-30 30 13.43 30 30z" stroke="#5e5e5e" stroke-width="3" fill="#fff"/><use xlink:href="#n" transform="matrix(1,0,0,1,1605,405) translate(12.654320987654321 30.27777777777778)"/><path d="M1860 430c0 16.57-13.43 30-30 30s-30-13.43-30-30 13.43-30 30-30 30 13.43 30 30z" stroke="#5e5e5e" stroke-width="3" fill="#fff"/><use xlink:href="#o" transform="matrix(1,0,0,1,1805,405) translate(12.654320987654321 30.27777777777778)"/><path d="M1460 630c0 16.57-13.43 30-30 30s-30-13.43-30-30 13.43-30 30-30 30 13.43 30 30z" stroke="#5e5e5e" stroke-width="3" fill="#fff"/><use xlink:href="#p" transform="matrix(1,0,0,1,1405,605) translate(12.654320987654321 30.27777777777778)"/><path d="M1660 630c0 16.57-13.43 30-30 30s-30-13.43-30-30 13.43-30 30-30 30 13.43 30 30z" stroke="#5e5e5e" stroke-width="3" fill="#fff"/><use xlink:href="#q" transform="matrix(1,0,0,1,1605,605) translate(12.654320987654321 30.27777777777778)"/><path d="M1860 630c0 16.57-13.43 30-30 30s-30-13.43-30-30 13.43-30 30-30 30 13.43 30 30z" stroke="#5e5e5e" stroke-width="3" fill="#fff"/><use xlink:href="#r" transform="matrix(1,0,0,1,1805,605) translate(12.654320987654321 30.27777777777778)"/><path d="M362.5 230h15c3.3 0 6 2.7 6 6v38c0 3.3 2.7 6 6 6h981c3.3 0 6-2.7 6-6v-40.5c0-1.93 1.57-3.5 3.5-3.5" stroke="#5e5e5e" stroke-width="2" fill="none"/><path d="M362.53 231h-1.1l.07-.96-.03-1.04h1.06z" fill="#5e5e5e"/><path d="M1395.26 230l-14.26 4.64v-9.28z" stroke="#5e5e5e" stroke-width="2" fill="#5e5e5e"/><path d="M562.5 230h15c3.3 0 6 2.7 6 6v48c0 3.3 2.7 6 6 6h981c3.3 0 6-2.7 6-6v-50.5c0-1.93 1.57-3.5 3.5-3.5" stroke="#5e5e5e" stroke-width="2" fill="none"/><path d="M562.53 231h-1.1l.07-.96-.03-1.04h1.06z" fill="#5e5e5e"/><path d="M1595.26 230l-14.26 4.64v-9.28z" stroke="#5e5e5e" stroke-width="2" fill="#5e5e5e"/><path d="M762.5 230h15c3.3 0 6 2.7 6 6v58c0 3.3 2.7 6 6 6h981c3.3 0 6-2.7 6-6v-60.5c0-1.93 1.57-3.5 3.5-3.5" stroke="#5e5e5e" stroke-width="2" fill="none"/><path d="M762.53 231h-1.1l.07-.96-.03-1.04h1.06z" fill="#5e5e5e"/><path d="M1795.26 230l-14.26 4.64v-9.28z" stroke="#5e5e5e" stroke-width="2" fill="#5e5e5e"/><path d="M362.5 626.42h15c3.3 0 6 2.68 6 6v38c0 3.3 2.7 6 6 6h981c3.3 0 6-2.7 6-6v-40.5c0-1.94 1.57-3.5 3.5-3.5M362.53 626.42h-1.03" stroke="#5e5e5e" stroke-width="2" fill="none"/><path d="M1395.26 626.42l-14.26 4.63v-9.27z" stroke="#5e5e5e" stroke-width="2" fill="#5e5e5e"/><path d="M562.5 626.42h15c3.3 0 6 2.68 6 6v48c0 3.3 2.7 6 6 6h981c3.3 0 6-2.7 6-6v-50.5c0-1.94 1.57-3.5 3.5-3.5M562.53 626.42h-1.03" stroke="#5e5e5e" stroke-width="2" fill="none"/><path d="M1595.26 626.42l-14.26 4.63v-9.27z" stroke="#5e5e5e" stroke-width="2" fill="#5e5e5e"/><path d="M762.5 626.42h15c3.3 0 6 2.68 6 6v58c0 3.3 2.7 6 6 6h981c3.3 0 6-2.7 6-6v-60.5c0-1.94 1.57-3.5 3.5-3.5M762.53 626.42h-1.03" stroke="#5e5e5e" stroke-width="2" fill="none"/><path d="M1795.26 626.42l-14.26 4.63v-9.27z" stroke="#5e5e5e" stroke-width="2" fill="#5e5e5e"/><path d="M361 440h15c3.3 0 6 2.7 6 6v38c0 3.3 2.7 6 6 6h981c3.3 0 6-2.7 6-6v-40.5c0-1.93 1.56-3.5 3.5-3.5M361.03 440H360" stroke="#5e5e5e" stroke-width="2" fill="none"/><path d="M1393.76 440l-14.26 4.64v-9.28z" stroke="#5e5e5e" stroke-width="2" fill="#5e5e5e"/><path d="M561 440h15c3.3 0 6 2.7 6 6v48c0 3.3 2.7 6 6 6h981c3.3 0 6-2.7 6-6v-50.5c0-1.93 1.56-3.5 3.5-3.5M561.03 440H560" stroke="#5e5e5e" stroke-width="2" fill="none"/><path d="M1593.76 440l-14.26 4.64v-9.28z" stroke="#5e5e5e" stroke-width="2" fill="#5e5e5e"/><path d="M761 440h15c3.3 0 6 2.7 6 6v58c0 3.3 2.7 6 6 6h981c3.3 0 6-2.7 6-6v-60.5c0-1.93 1.56-3.5 3.5-3.5M761.03 440H760" stroke="#5e5e5e" stroke-width="2" fill="none"/><path d="M1793.76 440l-14.26 4.64v-9.28z" stroke="#5e5e5e" stroke-width="2" fill="#5e5e5e"/><path d="M1397.5 230h-15c-3.3 0-6-2.7-6-6v-48c0-3.3-2.7-6-6-6h-981c-3.3 0-6 2.7-6 6v50.5c0 1.93-1.57 3.5-3.5 3.5" stroke="#5e5e5e" stroke-width="2" fill="none"/><path d="M1398.5 229.96l.03 1.04h-1.06v-2h1.1z" fill="#5e5e5e"/><path d="M364.74 230l14.26-4.64v9.28z" stroke="#5e5e5e" stroke-width="2" fill="#5e5e5e"/><path d="M1574.05 179.92l2.53 2.53.92 3.42v38l.7 2.64 1.8 1.8 2.63.7h14.87v2h-15.13l-3.42-.92-2.53-2.53-.92-3.42v-38l-.72-2.64-1.77-1.8-2.63-.7H589.63l-2.64.7-1.78 1.8-.72 2.63v40.57l-1.26 3.04-2.85 1.18-.78-1.84 2.1-.87.78-1.9v-40.43l.92-3.42 2.53-2.53 3.42-.92h981.26z" fill="#5e5e5e"/><path d="M1598.5 229.96l.03 1.04h-1.06v-2h1.1zM579 234.64L564.74 230l14.26-4.64z" fill="#5e5e5e"/><path d="M580 236l-18.5-6 18.5-6zm-12.03-6l10.03 3.26v-6.52z" fill="#5e5e5e"/><path d="M1797.5 230h-15c-3.3 0-6-2.7-6-6v-28c0-3.3-2.7-6-6-6h-981c-3.3 0-6 2.7-6 6v30.5c0 1.93-1.57 3.5-3.5 3.5" stroke="#5e5e5e" stroke-width="2" fill="none"/><path d="M1798.5 229.96l.03 1.04h-1.06v-2h1.1z" fill="#5e5e5e"/><path d="M764.74 230l14.26-4.64v9.28z" stroke="#5e5e5e" stroke-width="2" fill="#5e5e5e"/><path d="M1396 440h-15c-3.32 0-6-2.7-6-6v-48c0-3.3-2.7-6-6-6H388c-3.3 0-6 2.7-6 6v50.5c0 1.93-1.57 3.5-3.5 3.5M1395.97 440h1.03" stroke="#5e5e5e" stroke-width="2" fill="none"/><path d="M363.24 440l14.26-4.64v9.28z" stroke="#5e5e5e" stroke-width="2" fill="#5e5e5e"/><path d="M1596 440h-15c-3.32 0-6-2.7-6-6v-38c0-3.3-2.7-6-6-6H588c-3.3 0-6 2.7-6 6v40.5c0 1.93-1.57 3.5-3.5 3.5M1595.97 440h1.03" stroke="#5e5e5e" stroke-width="2" fill="none"/><path d="M563.24 440l14.26-4.64v9.28z" stroke="#5e5e5e" stroke-width="2" fill="#5e5e5e"/><path d="M1799.23 440H1781c-3.32 0-6-2.7-6-6v-33.33c0-3.32-2.7-6-6-6H788c-3.3 0-6 2.68-6 6v35.7c0 2-1.63 3.63-3.64 3.63" stroke="#5e5e5e" stroke-width="2" fill="none"/><path d="M1800.56 441h-1.36v-2h.7z" fill="#5e5e5e"/><path d="M763.1 440l14.26-4.64v9.28z" stroke="#5e5e5e" stroke-width="2" fill="#5e5e5e"/><path d="M1396 620h-15c-3.32 0-6-2.7-6-6v-48c0-3.3-2.7-6-6-6H388c-3.3 0-6 2.7-6 6v50.5c0 1.93-1.57 3.5-3.5 3.5M1395.97 620h1.03" stroke="#5e5e5e" stroke-width="2" fill="none"/><path d="M363.24 620l14.26-4.64v9.28z" stroke="#5e5e5e" stroke-width="2" fill="#5e5e5e"/><path d="M1572.54 569.92l2.53 2.53.93 3.42v38l.7 2.64 1.8 1.8 2.63.7H1596v2h-15.13l-3.42-.92-2.53-2.53-.92-3.42v-38l-.72-2.64-1.77-1.8-2.63-.7H588.13l-2.64.7-1.8 1.8-.7 2.63v40.57l-1.26 3.04-2.86 1.18-.76-1.84 2.1-.87.78-1.9v-40.43l.92-3.42 2.53-2.53 3.42-.92h981.26z" fill="#5e5e5e"/><path d="M1597 621h-1.03v-2h1.03zM577.5 624.64L563.24 620l14.26-4.64z" fill="#5e5e5e"/><path d="M578.5 626l-18.5-6 18.5-6zm-12.03-6l10.03 3.26v-6.52zM1772.54 579.92l2.53 2.53.93 3.42v28l.7 2.64 1.8 1.8 2.63.7H1796v2h-15.13l-3.42-.92-2.53-2.53-.92-3.42v-28l-.72-2.64-1.77-1.8-2.63-.7H788.13l-2.64.7-1.8 1.8-.7 2.63v30.57l-1.26 3.04-2.86 1.18-.76-1.84 2.1-.87.78-1.9v-30.43l.92-3.42 2.53-2.53 3.42-.92h981.26z" fill="#5e5e5e"/><path d="M1797 621h-1.03v-2h1.03zM777.5 624.64L763.24 620l14.26-4.64z" fill="#5e5e5e"/><path d="M778.5 626l-18.5-6 18.5-6zm-12.03-6l10.03 3.26v-6.52z" fill="#5e5e5e"/><path d="M940 126c0-3.3 2.7-6 6-6h228c3.3 0 6 2.7 6 6v48c0 3.3-2.7 6-6 6H946c-3.3 0-6-2.7-6-6z" stroke="#000" stroke-opacity="0" stroke-width="3" fill="#fff" fill-opacity="0"/><use xlink:href="#s" transform="matrix(1,0,0,1,945,125) translate(108.82716049382717 30.27777777777778)"/><path d="M940 226c0-3.3 2.7-6 6-6h228c3.3 0 6 2.7 6 6v48c0 3.3-2.7 6-6 6H946c-3.3 0-6-2.7-6-6z" stroke="#000" stroke-opacity="0" stroke-width="3" fill="#fff" fill-opacity="0"/><use xlink:href="#t" transform="matrix(1,0,0,1,945,225) translate(107.00617283950618 30.27777777777778)"/><path d="M940 346c0-3.3 2.7-6 6-6h228c3.3 0 6 2.7 6 6v48c0 3.3-2.7 6-6 6H946c-3.3 0-6-2.7-6-6z" stroke="#000" stroke-opacity="0" stroke-width="3" fill="#fff" fill-opacity="0"/><use xlink:href="#s" transform="matrix(1,0,0,1,945,345) translate(108.82716049382717 30.27777777777778)"/><path d="M940 446c0-3.3 2.7-6 6-6h228c3.3 0 6 2.7 6 6v48c0 3.3-2.7 6-6 6H946c-3.3 0-6-2.7-6-6z" stroke="#000" stroke-opacity="0" stroke-width="3" fill="#fff" fill-opacity="0"/><use xlink:href="#t" transform="matrix(1,0,0,1,945,445) translate(107.00617283950618 30.27777777777778)"/><path d="M940 526c0-3.3 2.7-6 6-6h228c3.3 0 6 2.7 6 6v48c0 3.3-2.7 6-6 6H946c-3.3 0-6-2.7-6-6z" stroke="#000" stroke-opacity="0" stroke-width="3" fill="#fff" fill-opacity="0"/><use xlink:href="#s" transform="matrix(1,0,0,1,945,525) translate(108.82716049382717 30.27777777777778)"/><path d="M940 637.42c0-3.32 2.7-6 6-6h228c3.3 0 6 2.68 6 6v48c0 3.3-2.7 6-6 6H946c-3.3 0-6-2.7-6-6z" stroke="#000" stroke-opacity="0" stroke-width="3" fill="#fff" fill-opacity="0"/><use xlink:href="#t" transform="matrix(1,0,0,1,945,636.4173228346456) translate(107.00617283950618 30.27777777777778)"/><path d="M181 230h99M181.03 230H180" stroke="#5e5e5e" stroke-width="2" fill="none"/><path d="M295.26 230L281 234.64v-9.28z" stroke="#5e5e5e" stroke-width="2" fill="#5e5e5e"/><path d="M810 870c0 16.57-13.43 30-30 30s-30-13.43-30-30 13.43-30 30-30 30 13.43 30 30z" stroke="#5e5e5e" stroke-width="3" fill="#fff"/><use xlink:href="#u" transform="matrix(1,0,0,1,755,845) translate(-0.16049382716048655 28.555555555555557)"/><path d="M1120 870c0 16.57-13.43 30-30 30s-30-13.43-30-30 13.43-30 30-30 30 13.43 30 30z" stroke="#5e5e5e" stroke-width="3" fill="#fff"/><use xlink:href="#v" transform="matrix(1,0,0,1,1065,845) translate(0.9814814814814916 26.291666666666664)"/><path d="M287.15 250.84h-38.2l-2.63.72-1.78 1.77-.7 2.65v38.15l-.94 3.42-2.53 2.53-3.4.92h-19.4v-2h19.12l2.64-.7 1.77-1.8.73-2.63V255.7l.92-3.4 2.53-2.53 3.4-.93h38.47z" fill="#5e5e5e"/><path fill="#5e5e5e"/><path d="M302.4 249.84l-14.25 4.64v-9.27z" fill="#5e5e5e"/><path d="M305.65 249.84l-18.5 6v-12zm-16.5 3.26l10.03-3.26-10.03-3.26z" fill="#5e5e5e"/><use xlink:href="#w" transform="matrix(1,0,0,1,158.41975308642,289.3333333333333) translate(0.004999999999999005 14.222222222222223)"/><path d="M774.13 744l3.42.92 2.53 2.53.92 3.42V810h-2v-58.87l-.7-2.64-1.8-1.8-2.63-.7H668.3v-2zm-242.42-2.5l1.8 1.8 2.63.7H641.7v2H535.86l-3.42-.92-2.53-2.53-.92-3.42V662.5h2v76.37z" fill="#5e5e5e"/><path d="M529.96 661.5l1.04-.03v1.06h-2v-1.1zM780 825.26L775.36 811h9.28z" fill="#5e5e5e"/><path d="M780 828.5l-6-18.5h12zm-3.26-16.5l3.26 10.03 3.26-10.03z" fill="#5e5e5e"/><use xlink:href="#x" transform="matrix(1,0,0,1,641.6913580246913,734.3333333365171) translate(0.005000000000000782 14.222222222222223)"/><path d="M1044.02 746h-257.9l-2.63.7-1.8 1.8-.7 2.63V810h-2v-59.13l.92-3.42 2.53-2.53 3.42-.92h258.15zm586.98-6.87l-.92 3.42-2.53 2.53-3.42.92h-553.5v-2h553.24l2.64-.7 1.8-1.8.7-2.63V662.5h2z" fill="#5e5e5e"/><path d="M1629.96 661.5l1.04-.03v1.06h-2v-1.1zM780 825.26L775.36 811h9.28z" fill="#5e5e5e"/><path d="M780 828.5l-6-18.5h12zm-3.26-16.5l3.26 10.03 3.26-10.03z" fill="#5e5e5e"/><use xlink:href="#x" transform="matrix(1,0,0,1,1044.0246913580263,734.3333333365171) translate(0.005000000000000782 14.222222222222223)"/><path d="M331 380h-2v-54.67h2zm0-76h-2v-41.5h2z" fill="#5e5e5e"/><path d="M329.96 261.5l1.04-.03v1.06h-2v-1.1zM330 395.26L325.36 381h9.28z" fill="#5e5e5e"/><path d="M330 398.5l-6-18.5h12zm-3.26-16.5l3.26 10.03 3.26-10.03z" fill="#5e5e5e"/><use xlink:href="#y" transform="matrix(1,0,0,1,324.81481481481484,304.0000000000004) translate(0.004999999999999893 14.222222222222223)"/><path d="M331 580h-2v-50.67h2zm0-72h-2v-45.5h2z" fill="#5e5e5e"/><path d="M329.96 461.5l1.04-.03v1.06h-2v-1.1zM330 595.26L325.36 581h9.28z" fill="#5e5e5e"/><path d="M330 598.5l-6-18.5h12zm-3.26-16.5l3.26 10.03 3.26-10.03z" fill="#5e5e5e"/><use xlink:href="#y" transform="matrix(1,0,0,1,324.81481481481484,508.0000000000006) translate(0.004999999999999893 14.222222222222223)"/><path d="M531 580h-2v-48h2zm0-69.33h-2V462.5h2z" fill="#5e5e5e"/><path d="M529.96 461.5l1.04-.03v1.06h-2v-1.1zM530 595.26L525.36 581h9.28z" fill="#5e5e5e"/><path d="M530 598.5l-6-18.5h12zm-3.26-16.5l3.26 10.03 3.26-10.03z" fill="#5e5e5e"/><use xlink:href="#y" transform="matrix(1,0,0,1,524.8148148148148,510.66666666666737) translate(0.004999999999999893 14.222222222222223)"/><path d="M531 380h-2v-39.33h2zm0-60.67h-2V262.5h2z" fill="#5e5e5e"/><path d="M529.96 261.5l1.04-.03v1.06h-2v-1.1zM530 395.26L525.36 381h9.28z" fill="#5e5e5e"/><path d="M530 398.5l-6-18.5h12zm-3.26-16.5l3.26 10.03 3.26-10.03z" fill="#5e5e5e"/><use xlink:href="#y" transform="matrix(1,0,0,1,524.8148148148148,319.3333333333333) translate(0.004999999999999893 14.222222222222223)"/><path d="M731 380h-2v-50.67h2zm0-72h-2v-45.5h2z" fill="#5e5e5e"/><path d="M729.96 261.5l1.04-.03v1.06h-2v-1.1zM730 395.26L725.36 381h9.28z" fill="#5e5e5e"/><path d="M730 398.5l-6-18.5h12zm-3.26-16.5l3.26 10.03 3.26-10.03z" fill="#5e5e5e"/><use xlink:href="#y" transform="matrix(1,0,0,1,724.8148148148148,308.0000000000004) translate(0.004999999999999893 14.222222222222223)"/><path d="M731 580h-2v-39.33h2zm0-60.67h-2V462.5h2z" fill="#5e5e5e"/><path d="M729.96 461.5l1.04-.03v1.06h-2v-1.1zM730 595.26L725.36 581h9.28z" fill="#5e5e5e"/><path d="M730 598.5l-6-18.5h12zm-3.26-16.5l3.26 10.03 3.26-10.03z" fill="#5e5e5e"/><use xlink:href="#y" transform="matrix(1,0,0,1,724.8148148148148,519.3333333333334) translate(0.004999999999999893 14.222222222222223)"/><path d="M1524.8 159.5h-17.17l-2.64.7-1.78 1.8-.72 2.63v59.5l-.92 3.42-2.53 2.53-3.42.92h-33.13v-2h32.87l2.64-.7 1.8-1.8.7-2.63v-59.5l.92-3.42 2.53-2.53 3.42-.92h17.44zm102.75-1.08l2.53 2.53.92 3.42V180h-2v-15.37l-.7-2.64-1.8-1.8-2.63-.7h-88.68v-2h88.93z" fill="#5e5e5e"/><path d="M1462.53 231h-1.1l.07-.96-.03-1.04h1.06zM1630 195.26l-4.64-14.26h9.28z" fill="#5e5e5e"/><path d="M1630 198.5l-6-18.5h12zm-3.26-16.5l3.26 10.03 3.26-10.03z" fill="#5e5e5e"/><use xlink:href="#y" transform="matrix(1,0,0,1,1524.8148148148148,147.83239774743342) translate(0.004999999999999893 14.222222222222223)"/><path d="M1724.8 159.5h-17.17l-2.64.7-1.78 1.8-.72 2.63v59.5l-.92 3.42-2.53 2.53-3.42.92h-33.13v-2h32.87l2.64-.7 1.8-1.8.7-2.63v-59.5l.92-3.42 2.53-2.53 3.42-.92h17.44zm102.75-1.08l2.53 2.53.92 3.42V180h-2v-15.37l-.7-2.64-1.8-1.8-2.63-.7h-88.68v-2h88.93z" fill="#5e5e5e"/><path d="M1662.53 231h-1.1l.07-.96-.03-1.04h1.06zM1830 195.26l-4.64-14.26h9.28z" fill="#5e5e5e"/><path d="M1830 198.5l-6-18.5h12zm-3.26-16.5l3.26 10.03 3.26-10.03z" fill="#5e5e5e"/><use xlink:href="#y" transform="matrix(1,0,0,1,1724.8148148148148,147.83239774743342) translate(0.004999999999999893 14.222222222222223)"/><path d="M1560.15 359.5h-52.52l-2.64.7-1.78 1.8-.72 2.63v59.5l-.92 3.42-2.53 2.53-3.42.92h-33.13v-2h32.87l2.64-.7 1.8-1.8.7-2.63v-59.5l.92-3.42 2.53-2.53 3.42-.92h52.78zm67.4-1.08l2.53 2.53.92 3.42V380h-2v-15.37l-.7-2.64-1.8-1.8-2.63-.7h-53.35v-2h53.6z" fill="#5e5e5e"/><path d="M1462.53 431h-1.1l.07-.96-.03-1.04h1.06zM1630 395.26l-4.64-14.26h9.28z" fill="#5e5e5e"/><path d="M1630 398.5l-6-18.5h12zm-3.26-16.5l3.26 10.03 3.26-10.03z" fill="#5e5e5e"/><use xlink:href="#y" transform="matrix(1,0,0,1,1560.1481481481503,347.8323977474334) translate(0.004999999999999893 14.222222222222223)"/><path d="M1762.8 359.5h-55.17l-2.64.7-1.78 1.8-.72 2.63v59.5l-.92 3.42-2.53 2.53-3.42.92h-33.13v-2h32.87l2.64-.7 1.8-1.8.7-2.63v-59.5l.92-3.42 2.53-2.53 3.42-.92h55.44zm64.75-1.08l2.53 2.53.92 3.42V380h-2v-15.37l-.7-2.64-1.8-1.8-2.63-.7h-50.68v-2h50.93z" fill="#5e5e5e"/><path d="M1662.53 431h-1.1l.07-.96-.03-1.04h1.06zM1830 395.26l-4.64-14.26h9.28z" fill="#5e5e5e"/><path d="M1830 398.5l-6-18.5h12zm-3.26-16.5l3.26 10.03 3.26-10.03z" fill="#5e5e5e"/><use xlink:href="#y" transform="matrix(1,0,0,1,1762.814814814817,347.8323977474334) translate(0.004999999999999893 14.222222222222223)"/><path d="M1585.48 559.5h-77.85l-2.64.7-1.78 1.8-.72 2.63v59.5l-.92 3.42-2.53 2.53-3.42.92h-33.13v-2h32.87l2.64-.7 1.8-1.8.7-2.63v-59.5l.92-3.42 2.53-2.53 3.42-.92h78.1zm42.07-1.08l2.53 2.53.92 3.42V580h-2v-15.37l-.7-2.64-1.8-1.8-2.63-.7h-28.02v-2h28.28z" fill="#5e5e5e"/><path d="M1462.53 631h-1.1l.07-.96-.03-1.04h1.06zM1630 595.26l-4.64-14.26h9.28z" fill="#5e5e5e"/><path d="M1630 598.5l-6-18.5h12zm-3.26-16.5l3.26 10.03 3.26-10.03z" fill="#5e5e5e"/><use xlink:href="#y" transform="matrix(1,0,0,1,1585.4814814814836,547.8323977474334) translate(0.004999999999999893 14.222222222222223)"/><path d="M1776.15 559.5h-68.52l-2.64.7-1.78 1.8-.72 2.63v59.5l-.92 3.42-2.53 2.53-3.42.92h-33.13v-2h32.87l2.64-.7 1.8-1.8.7-2.63v-59.5l.92-3.42 2.53-2.53 3.42-.92h68.78zm51.4-1.08l2.53 2.53.92 3.42V580h-2v-15.37l-.7-2.64-1.8-1.8-2.63-.7h-37.35v-2h37.6z" fill="#5e5e5e"/><path d="M1662.53 631h-1.1l.07-.96-.03-1.04h1.06zM1830 595.26l-4.64-14.26h9.28z" fill="#5e5e5e"/><path d="M1830 598.5l-6-18.5h12zm-3.26-16.5l3.26 10.03 3.26-10.03z" fill="#5e5e5e"/><use xlink:href="#y" transform="matrix(1,0,0,1,1776.1481481481505,547.8323977474334) translate(0.004999999999999893 14.222222222222223)"/><defs><path fill="#333" d="M101-251c68 0 85 55 85 127S166 4 100 4C33 4 14-52 14-124c0-73 17-127 87-127zm-1 229c47 0 54-49 54-102s-4-102-53-102c-51 0-55 48-55 102 0 53 5 102 54 102" id="z"/><g id="a"><use transform="matrix(0.06172839506172839,0,0,0.06172839506172839,0,0)" xlink:href="#z"/><path fill="#333" d="M-1.1 1.54h14.56v1.63H-1.1z"/><use transform="matrix(0.06172839506172839,0,0,0.06172839506172839,12.345679012345679,0)" xlink:href="#z"/></g><path fill="#333" d="M27 0v-27h64v-190l-56 39v-29l58-41h29v221h61V0H27" id="A"/><g id="b"><use transform="matrix(0.06172839506172839,0,0,0.06172839506172839,0,0)" xlink:href="#z"/><path fill="#333" d="M-1.1 1.54h14.56v1.63H-1.1z"/><use transform="matrix(0.06172839506172839,0,0,0.06172839506172839,12.345679012345679,0)" xlink:href="#A"/></g><path fill="#333" d="M101-251c82-7 93 87 43 132L82-64C71-53 59-42 53-27h129V0H18c2-99 128-94 128-182 0-28-16-43-45-43s-46 15-49 41l-32-3c6-41 34-60 81-64" id="B"/><g id="c"><use transform="matrix(0.06172839506172839,0,0,0.06172839506172839,0,0)" xlink:href="#z"/><path fill="#333" d="M-1.1 1.54h14.56v1.63H-1.1z"/><use transform="matrix(0.06172839506172839,0,0,0.06172839506172839,12.345679012345679,0)" xlink:href="#B"/></g><g id="d"><use transform="matrix(0.06172839506172839,0,0,0.06172839506172839,0,0)" xlink:href="#A"/><path fill="#333" d="M-1.1 1.54h14.56v1.63H-1.1z"/><use transform="matrix(0.06172839506172839,0,0,0.06172839506172839,12.345679012345679,0)" xlink:href="#z"/></g><g id="e"><use transform="matrix(0.06172839506172839,0,0,0.06172839506172839,0,0)" xlink:href="#A"/><path fill="#333" d="M-1.1 1.54h14.56v1.63H-1.1z"/><use transform="matrix(0.06172839506172839,0,0,0.06172839506172839,12.345679012345679,0)" xlink:href="#A"/></g><g id="f"><use transform="matrix(0.06172839506172839,0,0,0.06172839506172839,0,0)" xlink:href="#A"/><path fill="#333" d="M-1.1 1.54h14.56v1.63H-1.1z"/><use transform="matrix(0.06172839506172839,0,0,0.06172839506172839,12.345679012345679,0)" xlink:href="#B"/></g><g id="g"><use transform="matrix(0.06172839506172839,0,0,0.06172839506172839,0,0)" xlink:href="#B"/><path fill="#333" d="M-1.1 1.54h14.56v1.63H-1.1z"/><use transform="matrix(0.06172839506172839,0,0,0.06172839506172839,12.345679012345679,0)" xlink:href="#z"/></g><g id="h"><use transform="matrix(0.06172839506172839,0,0,0.06172839506172839,0,0)" xlink:href="#B"/><path fill="#333" d="M-1.1 1.54h14.56v1.63H-1.1z"/><use transform="matrix(0.06172839506172839,0,0,0.06172839506172839,12.345679012345679,0)" xlink:href="#A"/></g><g id="i"><use transform="matrix(0.06172839506172839,0,0,0.06172839506172839,0,0)" xlink:href="#B"/><path fill="#333" d="M-1.1 1.54h14.56v1.63H-1.1z"/><use transform="matrix(0.06172839506172839,0,0,0.06172839506172839,12.345679012345679,0)" xlink:href="#B"/></g><g id="j"><use transform="matrix(0.06172839506172839,0,0,0.06172839506172839,0,0)" xlink:href="#z"/><use transform="matrix(0.06172839506172839,0,0,0.06172839506172839,12.345679012345679,0)" xlink:href="#z"/><path fill="#333" d="M11.23 1.54H25.8v1.63H11.23z"/></g><g id="k"><use transform="matrix(0.06172839506172839,0,0,0.06172839506172839,0,0)" xlink:href="#z"/><use transform="matrix(0.06172839506172839,0,0,0.06172839506172839,12.345679012345679,0)" xlink:href="#A"/><path fill="#333" d="M11.23 1.54H25.8v1.63H11.23z"/></g><g id="l"><use transform="matrix(0.06172839506172839,0,0,0.06172839506172839,0,0)" xlink:href="#z"/><use transform="matrix(0.06172839506172839,0,0,0.06172839506172839,12.345679012345679,0)" xlink:href="#B"/><path fill="#333" d="M11.23 1.54H25.8v1.63H11.23z"/></g><g id="m"><use transform="matrix(0.06172839506172839,0,0,0.06172839506172839,0,0)" xlink:href="#A"/><use transform="matrix(0.06172839506172839,0,0,0.06172839506172839,12.345679012345679,0)" xlink:href="#z"/><path fill="#333" d="M11.23 1.54H25.8v1.63H11.23z"/></g><g id="n"><use transform="matrix(0.06172839506172839,0,0,0.06172839506172839,0,0)" xlink:href="#A"/><use transform="matrix(0.06172839506172839,0,0,0.06172839506172839,12.345679012345679,0)" xlink:href="#A"/><path fill="#333" d="M11.23 1.54H25.8v1.63H11.23z"/></g><g id="o"><use transform="matrix(0.06172839506172839,0,0,0.06172839506172839,0,0)" xlink:href="#A"/><use transform="matrix(0.06172839506172839,0,0,0.06172839506172839,12.345679012345679,0)" xlink:href="#B"/><path fill="#333" d="M11.23 1.54H25.8v1.63H11.23z"/></g><g id="p"><use transform="matrix(0.06172839506172839,0,0,0.06172839506172839,0,0)" xlink:href="#B"/><use transform="matrix(0.06172839506172839,0,0,0.06172839506172839,12.345679012345679,0)" xlink:href="#z"/><path fill="#333" d="M11.23 1.54H25.8v1.63H11.23z"/></g><g id="q"><use transform="matrix(0.06172839506172839,0,0,0.06172839506172839,0,0)" xlink:href="#B"/><use transform="matrix(0.06172839506172839,0,0,0.06172839506172839,12.345679012345679,0)" xlink:href="#A"/><path fill="#333" d="M11.23 1.54H25.8v1.63H11.23z"/></g><g id="r"><use transform="matrix(0.06172839506172839,0,0,0.06172839506172839,0,0)" xlink:href="#B"/><use transform="matrix(0.06172839506172839,0,0,0.06172839506172839,12.345679012345679,0)" xlink:href="#B"/><path fill="#333" d="M11.23 1.54H25.8v1.63H11.23z"/></g><path fill="#333" d="M30 0v-248h33v221h125V0H30" id="C"/><use transform="matrix(0.06172839506172839,0,0,0.06172839506172839,0,0)" xlink:href="#C" id="s"/><path fill="#333" d="M233-177c-1 41-23 64-60 70L243 0h-38l-65-103H63V0H30v-248c88 3 205-21 203 71zM63-129c60-2 137 13 137-47 0-61-80-42-137-45v92" id="D"/><use transform="matrix(0.06172839506172839,0,0,0.06172839506172839,0,0)" xlink:href="#D" id="t"/><path fill="#333" d="M140-251c81 0 123 46 123 126C263-46 219 4 140 4 59 4 17-45 17-125s42-126 123-126zm0 227c63 0 89-41 89-101s-29-99-89-99c-61 0-89 39-89 99S79-25 140-24" id="E"/><path fill="#333" d="M30-248c87 1 191-15 191 75 0 78-77 80-158 76V0H30v-248zm33 125c57 0 124 11 124-50 0-59-68-47-124-48v98" id="F"/><path fill="#333" d="M30 0v-248h187v28H63v79h144v27H63v87h162V0H30" id="G"/><path fill="#333" d="M190 0L58-211 59 0H30v-248h39L202-35l-2-213h31V0h-41" id="H"/><g id="u"><use transform="matrix(0.049382716049382706,0,0,0.049382716049382706,0,0)" xlink:href="#E"/><use transform="matrix(0.049382716049382706,0,0,0.049382716049382706,13.827160493827158,0)" xlink:href="#F"/><use transform="matrix(0.049382716049382706,0,0,0.049382716049382706,25.679012345679006,0)" xlink:href="#G"/><use transform="matrix(0.049382716049382706,0,0,0.049382716049382706,37.53086419753085,0)" xlink:href="#H"/></g><g id="v"><use transform="matrix(0.03703703703703702,0,0,0.03703703703703702,0,0)" xlink:href="#G"/><use transform="matrix(0.03703703703703702,0,0,0.03703703703703702,8.888888888888886,0)" xlink:href="#D"/><use transform="matrix(0.03703703703703702,0,0,0.03703703703703702,18.481481481481474,0)" xlink:href="#D"/><use transform="matrix(0.03703703703703702,0,0,0.03703703703703702,28.074074074074062,0)" xlink:href="#E"/><use transform="matrix(0.03703703703703702,0,0,0.03703703703703702,38.44444444444443,0)" xlink:href="#D"/></g><path fill="#333" d="M240-174c0 40-23 61-54 70L253 0h-59l-57-94H76V0H24v-248c93 4 217-23 216 74zM76-134c48-2 112 12 112-38 0-48-66-32-112-35v73" id="I"/><path fill="#333" d="M24 0v-248h195v40H76v63h132v40H76v65h150V0H24" id="J"/><path fill="#333" d="M169-182c-1-43-94-46-97-3 18 66 151 10 154 114 3 95-165 93-204 36-6-8-10-19-12-30l50-8c3 46 112 56 116 5-17-69-150-10-154-114-4-87 153-88 188-35 5 8 8 18 10 28" id="K"/><path fill="#333" d="M136-208V0H84v-208H4v-40h212v40h-80" id="L"/><g id="w"><use transform="matrix(0.04938271604938272,0,0,0.04938271604938272,0,0)" xlink:href="#I"/><use transform="matrix(0.04938271604938272,0,0,0.04938271604938272,12.790123456790125,0)" xlink:href="#J"/><use transform="matrix(0.04938271604938272,0,0,0.04938271604938272,24.641975308641978,0)" xlink:href="#K"/><use transform="matrix(0.04938271604938272,0,0,0.04938271604938272,36.49382716049383,0)" xlink:href="#J"/><use transform="matrix(0.04938271604938272,0,0,0.04938271604938272,48.345679012345684,0)" xlink:href="#L"/></g><path fill="#333" d="M140-251c80 0 125 45 125 126S219 4 139 4C58 4 15-44 15-125s44-126 125-126zm-1 214c52 0 73-35 73-88 0-50-21-86-72-86-52 0-73 35-73 86s22 88 72 88" id="M"/><path fill="#333" d="M195 0l-88-114-31 24V0H24v-248h52v113l112-113h60L142-143 257 0h-62" id="N"/><g id="x"><use transform="matrix(0.04938271604938272,0,0,0.04938271604938272,0,0)" xlink:href="#M"/><use transform="matrix(0.04938271604938272,0,0,0.04938271604938272,13.827160493827162,0)" xlink:href="#N"/></g><path fill="#333" d="M125-100v72H85v-72H15v-39h70v-72h40v72h71v39h-71" id="O"/><use transform="matrix(0.04938271604938272,0,0,0.04938271604938272,0,0)" xlink:href="#O" id="y"/></defs></g></svg>